<?xml version="1.0" encoding="utf-8" standalone="no"?>
<!DOCTYPE svg PUBLIC "-//W3C//DTD SVG 1.1//EN"
  "http://www.w3.org/Graphics/SVG/1.1/DTD/svg11.dtd">
<svg xmlns:xlink="http://www.w3.org/1999/xlink" width="576pt" height="432pt" viewBox="0 0 576 432" xmlns="http://www.w3.org/2000/svg" version="1.1">
 <metadata>
  <rdf:RDF xmlns:dc="http://purl.org/dc/elements/1.1/" xmlns:cc="http://creativecommons.org/ns#" xmlns:rdf="http://www.w3.org/1999/02/22-rdf-syntax-ns#">
   <cc:Work>
    <dc:type rdf:resource="http://purl.org/dc/dcmitype/StillImage"/>
    <dc:date>2025-11-25T03:04:20.086800</dc:date>
    <dc:format>image/svg+xml</dc:format>
    <dc:creator>
     <cc:Agent>
      <dc:title>Matplotlib v3.10.0, https://matplotlib.org/</dc:title>
     </cc:Agent>
    </dc:creator>
   </cc:Work>
  </rdf:RDF>
 </metadata>
 <defs>
  <style type="text/css">*{stroke-linejoin: round; stroke-linecap: butt}</style>
 </defs>
 <g id="figure_1">
  <g id="patch_1">
   <path d="M 0 432 
L 576 432 
L 576 0 
L 0 0 
z
" style="fill: #ffffff"/>
  </g>
  <g id="axes_1">
   <g id="patch_2">
    <path d="M 62.03 382.23475 
L 563.04 382.23475 
L 563.04 30.48 
L 62.03 30.48 
z
" style="fill: #ffffff"/>
   </g>
   <g id="PathCollection_1">
    <defs>
     <path id="m22739bf7b1" d="M 0 3 
C 0.795609 3 1.55874 2.683901 2.12132 2.12132 
C 2.683901 1.55874 3 0.795609 3 0 
C 3 -0.795609 2.683901 -1.55874 2.12132 -2.12132 
C 1.55874 -2.683901 0.795609 -3 0 -3 
C -0.795609 -3 -1.55874 -2.683901 -2.12132 -2.12132 
C -2.683901 -1.55874 -3 -0.795609 -3 0 
C -3 0.795609 -2.683901 1.55874 -2.12132 2.12132 
C -1.55874 2.683901 -0.795609 3 0 3 
z
" style="stroke: #000000"/>
    </defs>
    <g clip-path="url(#p37af4a0aa0)">
     <use xlink:href="#m22739bf7b1" x="78.9176" y="176.809976" style="stroke: #000000"/>
     <use xlink:href="#m22739bf7b1" x="183.832956" y="117.715178" style="stroke: #000000"/>
     <use xlink:href="#m22739bf7b1" x="214.518731" y="107.866045" style="stroke: #000000"/>
     <use xlink:href="#m22739bf7b1" x="236.290635" y="109.273064" style="stroke: #000000"/>
     <use xlink:href="#m22739bf7b1" x="305.635913" y="90.981817" style="stroke: #000000"/>
     <use xlink:href="#m22739bf7b1" x="336.321687" y="88.167779" style="stroke: #000000"/>
     <use xlink:href="#m22739bf7b1" x="374.981191" y="89.574798" style="stroke: #000000"/>
     <use xlink:href="#m22739bf7b1" x="427.438869" y="99.423931" style="stroke: #000000"/>
     <use xlink:href="#m22739bf7b1" x="479.896547" y="90.981817" style="stroke: #000000"/>
     <use xlink:href="#m22739bf7b1" x="549.241826" y="249.974964" style="stroke: #000000"/>
    </g>
   </g>
   <g id="PathCollection_2">
    <defs>
     <path id="m89e53a34c6" d="M -3 3 
L 3 3 
L 3 -3 
L -3 -3 
z
" style="stroke: #000000"/>
    </defs>
    <g clip-path="url(#p37af4a0aa0)">
     <use xlink:href="#m89e53a34c6" x="78.9176" y="356.064197" style="stroke: #000000"/>
     <use xlink:href="#m89e53a34c6" x="183.832956" y="326.798201" style="stroke: #000000"/>
     <use xlink:href="#m89e53a34c6" x="214.518731" y="300.06484" style="stroke: #000000"/>
     <use xlink:href="#m89e53a34c6" x="236.290635" y="278.959555" style="stroke: #000000"/>
     <use xlink:href="#m89e53a34c6" x="305.635913" y="268.266211" style="stroke: #000000"/>
     <use xlink:href="#m89e53a34c6" x="336.321687" y="269.391826" style="stroke: #000000"/>
     <use xlink:href="#m89e53a34c6" x="374.981191" y="261.231116" style="stroke: #000000"/>
     <use xlink:href="#m89e53a34c6" x="427.438869" y="261.231116" style="stroke: #000000"/>
     <use xlink:href="#m89e53a34c6" x="479.896547" y="264.748664" style="stroke: #000000"/>
     <use xlink:href="#m89e53a34c6" x="549.241826" y="265.452173" style="stroke: #000000"/>
    </g>
   </g>
   <g id="matplotlib.axis_1">
    <g id="xtick_1">
     <g id="line2d_1">
      <path d="M 78.9176 382.23475 
L 78.9176 30.48 
" clip-path="url(#p37af4a0aa0)" style="fill: none; stroke: #808080; stroke-opacity: 0.3; stroke-width: 0.8; stroke-linecap: square"/>
     </g>
     <g id="line2d_2">
      <defs>
       <path id="m2f027ef7ca" d="M 0 0 
L 0 3.5 
" style="stroke: #000000; stroke-width: 0.8"/>
      </defs>
      <g>
       <use xlink:href="#m2f027ef7ca" x="78.9176" y="382.23475" style="stroke: #000000; stroke-width: 0.8"/>
      </g>
     </g>
     <g id="text_1">
      <!-- $\mathdefault{10^{2}}$ -->
      <g transform="translate(68.4776 398.2235) scale(0.12 -0.12)">
       <defs>
        <path id="IPAexGothic-31" d="M 2463 63 
L 1900 63 
L 1900 4103 
Q 1372 3922 788 3797 
L 684 4231 
Q 1519 4441 2106 4731 
L 2463 4731 
L 2463 63 
z
" transform="scale(0.015625)"/>
        <path id="IPAexGothic-30" d="M 2038 4725 
Q 2881 4725 3334 3944 
Q 3694 3325 3694 2344 
Q 3694 1372 3334 741 
Q 2888 -31 2016 -31 
Q 1147 -31 700 741 
Q 341 1372 341 2350 
Q 341 3713 1000 4334 
Q 1419 4725 2038 4725 
z
M 2016 4266 
Q 1516 4266 1228 3759 
Q 934 3247 934 2344 
Q 934 1456 1222 947 
Q 1513 447 2016 447 
Q 2619 447 2909 1153 
Q 3100 1622 3100 2375 
Q 3100 3256 2806 3759 
Q 2509 4266 2016 4266 
z
" transform="scale(0.015625)"/>
        <path id="IPAexGothic-32" d="M 3659 63 
L 447 63 
L 447 594 
Q 825 1475 1894 2203 
L 2072 2322 
Q 2619 2697 2791 2906 
Q 2988 3153 2988 3444 
Q 2988 3772 2756 4003 
Q 2500 4259 2084 4259 
Q 1250 4259 991 3328 
L 497 3506 
Q 853 4725 2116 4725 
Q 2806 4725 3216 4316 
Q 3575 3947 3575 3425 
Q 3575 3038 3344 2722 
Q 3131 2416 2366 1938 
L 2231 1856 
Q 1256 1253 978 569 
L 3659 569 
L 3659 63 
z
" transform="scale(0.015625)"/>
       </defs>
       <use xlink:href="#IPAexGothic-31" transform="translate(0 0.773438)"/>
       <use xlink:href="#IPAexGothic-30" transform="translate(62.988281 0.773438)"/>
       <use xlink:href="#IPAexGothic-32" transform="translate(126.865234 36.320312) scale(0.7)"/>
      </g>
     </g>
    </g>
    <g id="xtick_2">
     <g id="line2d_3">
      <path d="M 253.178235 382.23475 
L 253.178235 30.48 
" clip-path="url(#p37af4a0aa0)" style="fill: none; stroke: #808080; stroke-opacity: 0.3; stroke-width: 0.8; stroke-linecap: square"/>
     </g>
     <g id="line2d_4">
      <g>
       <use xlink:href="#m2f027ef7ca" x="253.178235" y="382.23475" style="stroke: #000000; stroke-width: 0.8"/>
      </g>
     </g>
     <g id="text_2">
      <!-- $\mathdefault{10^{3}}$ -->
      <g transform="translate(242.738235 398.2235) scale(0.12 -0.12)">
       <defs>
        <path id="IPAexGothic-33" d="M 2381 2419 
Q 3506 2216 3506 1278 
Q 3506 716 3128 356 
Q 2709 -31 1944 -31 
Q 797 -31 288 881 
L 756 1131 
Q 1109 441 1938 441 
Q 2425 441 2694 691 
Q 2950 928 2950 1291 
Q 2950 1719 2566 1978 
Q 2216 2213 1644 2213 
L 1363 2213 
L 1363 2669 
L 1656 2669 
Q 2231 2669 2534 2888 
Q 2859 3119 2859 3509 
Q 2859 3934 2494 4138 
Q 2259 4278 1931 4278 
Q 1238 4278 903 3578 
L 434 3803 
Q 897 4725 1938 4725 
Q 2597 4725 3006 4394 
Q 3416 4069 3416 3534 
Q 3416 3028 3019 2706 
Q 2763 2500 2381 2444 
L 2381 2419 
z
" transform="scale(0.015625)"/>
       </defs>
       <use xlink:href="#IPAexGothic-31" transform="translate(0 0.773438)"/>
       <use xlink:href="#IPAexGothic-30" transform="translate(62.988281 0.773438)"/>
       <use xlink:href="#IPAexGothic-33" transform="translate(126.865234 36.320312) scale(0.7)"/>
      </g>
     </g>
    </g>
    <g id="xtick_3">
     <g id="line2d_5">
      <path d="M 427.438869 382.23475 
L 427.438869 30.48 
" clip-path="url(#p37af4a0aa0)" style="fill: none; stroke: #808080; stroke-opacity: 0.3; stroke-width: 0.8; stroke-linecap: square"/>
     </g>
     <g id="line2d_6">
      <g>
       <use xlink:href="#m2f027ef7ca" x="427.438869" y="382.23475" style="stroke: #000000; stroke-width: 0.8"/>
      </g>
     </g>
     <g id="text_3">
      <!-- $\mathdefault{10^{4}}$ -->
      <g transform="translate(416.998869 398.2235) scale(0.12 -0.12)">
       <defs>
        <path id="IPAexGothic-34" d="M 3813 1159 
L 3059 1159 
L 3059 63 
L 2547 63 
L 2547 1159 
L 197 1159 
L 197 1672 
L 2456 4678 
L 3059 4678 
L 3059 1634 
L 3813 1634 
L 3813 1159 
z
M 2578 4109 
L 2559 4109 
Q 2278 3656 2003 3284 
L 759 1634 
L 2547 1634 
L 2547 3144 
Q 2547 3481 2578 4109 
z
" transform="scale(0.015625)"/>
       </defs>
       <use xlink:href="#IPAexGothic-31" transform="translate(0 0.2875)"/>
       <use xlink:href="#IPAexGothic-30" transform="translate(62.988281 0.2875)"/>
       <use xlink:href="#IPAexGothic-34" transform="translate(126.865234 35.834375) scale(0.7)"/>
      </g>
     </g>
    </g>
    <g id="xtick_4">
     <g id="line2d_7">
      <path d="M 62.03 382.23475 
L 62.03 30.48 
" clip-path="url(#p37af4a0aa0)" style="fill: none; stroke: #808080; stroke-opacity: 0.3; stroke-width: 0.8; stroke-linecap: square"/>
     </g>
     <g id="line2d_8">
      <defs>
       <path id="mf2a492c81d" d="M 0 0 
L 0 2 
" style="stroke: #000000; stroke-width: 0.6"/>
      </defs>
      <g>
       <use xlink:href="#mf2a492c81d" x="62.03" y="382.23475" style="stroke: #000000; stroke-width: 0.6"/>
      </g>
     </g>
    </g>
    <g id="xtick_5">
     <g id="line2d_9">
      <path d="M 70.943871 382.23475 
L 70.943871 30.48 
" clip-path="url(#p37af4a0aa0)" style="fill: none; stroke: #808080; stroke-opacity: 0.3; stroke-width: 0.8; stroke-linecap: square"/>
     </g>
     <g id="line2d_10">
      <g>
       <use xlink:href="#mf2a492c81d" x="70.943871" y="382.23475" style="stroke: #000000; stroke-width: 0.6"/>
      </g>
     </g>
    </g>
    <g id="xtick_6">
     <g id="line2d_11">
      <path d="M 131.375278 382.23475 
L 131.375278 30.48 
" clip-path="url(#p37af4a0aa0)" style="fill: none; stroke: #808080; stroke-opacity: 0.3; stroke-width: 0.8; stroke-linecap: square"/>
     </g>
     <g id="line2d_12">
      <g>
       <use xlink:href="#mf2a492c81d" x="131.375278" y="382.23475" style="stroke: #000000; stroke-width: 0.6"/>
      </g>
     </g>
    </g>
    <g id="xtick_7">
     <g id="line2d_13">
      <path d="M 162.061053 382.23475 
L 162.061053 30.48 
" clip-path="url(#p37af4a0aa0)" style="fill: none; stroke: #808080; stroke-opacity: 0.3; stroke-width: 0.8; stroke-linecap: square"/>
     </g>
     <g id="line2d_14">
      <g>
       <use xlink:href="#mf2a492c81d" x="162.061053" y="382.23475" style="stroke: #000000; stroke-width: 0.6"/>
      </g>
     </g>
    </g>
    <g id="xtick_8">
     <g id="line2d_15">
      <path d="M 183.832956 382.23475 
L 183.832956 30.48 
" clip-path="url(#p37af4a0aa0)" style="fill: none; stroke: #808080; stroke-opacity: 0.3; stroke-width: 0.8; stroke-linecap: square"/>
     </g>
     <g id="line2d_16">
      <g>
       <use xlink:href="#mf2a492c81d" x="183.832956" y="382.23475" style="stroke: #000000; stroke-width: 0.6"/>
      </g>
     </g>
    </g>
    <g id="xtick_9">
     <g id="line2d_17">
      <path d="M 200.720557 382.23475 
L 200.720557 30.48 
" clip-path="url(#p37af4a0aa0)" style="fill: none; stroke: #808080; stroke-opacity: 0.3; stroke-width: 0.8; stroke-linecap: square"/>
     </g>
     <g id="line2d_18">
      <g>
       <use xlink:href="#mf2a492c81d" x="200.720557" y="382.23475" style="stroke: #000000; stroke-width: 0.6"/>
      </g>
     </g>
    </g>
    <g id="xtick_10">
     <g id="line2d_19">
      <path d="M 214.518731 382.23475 
L 214.518731 30.48 
" clip-path="url(#p37af4a0aa0)" style="fill: none; stroke: #808080; stroke-opacity: 0.3; stroke-width: 0.8; stroke-linecap: square"/>
     </g>
     <g id="line2d_20">
      <g>
       <use xlink:href="#mf2a492c81d" x="214.518731" y="382.23475" style="stroke: #000000; stroke-width: 0.6"/>
      </g>
     </g>
    </g>
    <g id="xtick_11">
     <g id="line2d_21">
      <path d="M 226.184921 382.23475 
L 226.184921 30.48 
" clip-path="url(#p37af4a0aa0)" style="fill: none; stroke: #808080; stroke-opacity: 0.3; stroke-width: 0.8; stroke-linecap: square"/>
     </g>
     <g id="line2d_22">
      <g>
       <use xlink:href="#mf2a492c81d" x="226.184921" y="382.23475" style="stroke: #000000; stroke-width: 0.6"/>
      </g>
     </g>
    </g>
    <g id="xtick_12">
     <g id="line2d_23">
      <path d="M 236.290635 382.23475 
L 236.290635 30.48 
" clip-path="url(#p37af4a0aa0)" style="fill: none; stroke: #808080; stroke-opacity: 0.3; stroke-width: 0.8; stroke-linecap: square"/>
     </g>
     <g id="line2d_24">
      <g>
       <use xlink:href="#mf2a492c81d" x="236.290635" y="382.23475" style="stroke: #000000; stroke-width: 0.6"/>
      </g>
     </g>
    </g>
    <g id="xtick_13">
     <g id="line2d_25">
      <path d="M 245.204506 382.23475 
L 245.204506 30.48 
" clip-path="url(#p37af4a0aa0)" style="fill: none; stroke: #808080; stroke-opacity: 0.3; stroke-width: 0.8; stroke-linecap: square"/>
     </g>
     <g id="line2d_26">
      <g>
       <use xlink:href="#mf2a492c81d" x="245.204506" y="382.23475" style="stroke: #000000; stroke-width: 0.6"/>
      </g>
     </g>
    </g>
    <g id="xtick_14">
     <g id="line2d_27">
      <path d="M 305.635913 382.23475 
L 305.635913 30.48 
" clip-path="url(#p37af4a0aa0)" style="fill: none; stroke: #808080; stroke-opacity: 0.3; stroke-width: 0.8; stroke-linecap: square"/>
     </g>
     <g id="line2d_28">
      <g>
       <use xlink:href="#mf2a492c81d" x="305.635913" y="382.23475" style="stroke: #000000; stroke-width: 0.6"/>
      </g>
     </g>
    </g>
    <g id="xtick_15">
     <g id="line2d_29">
      <path d="M 336.321687 382.23475 
L 336.321687 30.48 
" clip-path="url(#p37af4a0aa0)" style="fill: none; stroke: #808080; stroke-opacity: 0.3; stroke-width: 0.8; stroke-linecap: square"/>
     </g>
     <g id="line2d_30">
      <g>
       <use xlink:href="#mf2a492c81d" x="336.321687" y="382.23475" style="stroke: #000000; stroke-width: 0.6"/>
      </g>
     </g>
    </g>
    <g id="xtick_16">
     <g id="line2d_31">
      <path d="M 358.093591 382.23475 
L 358.093591 30.48 
" clip-path="url(#p37af4a0aa0)" style="fill: none; stroke: #808080; stroke-opacity: 0.3; stroke-width: 0.8; stroke-linecap: square"/>
     </g>
     <g id="line2d_32">
      <g>
       <use xlink:href="#mf2a492c81d" x="358.093591" y="382.23475" style="stroke: #000000; stroke-width: 0.6"/>
      </g>
     </g>
    </g>
    <g id="xtick_17">
     <g id="line2d_33">
      <path d="M 374.981191 382.23475 
L 374.981191 30.48 
" clip-path="url(#p37af4a0aa0)" style="fill: none; stroke: #808080; stroke-opacity: 0.3; stroke-width: 0.8; stroke-linecap: square"/>
     </g>
     <g id="line2d_34">
      <g>
       <use xlink:href="#mf2a492c81d" x="374.981191" y="382.23475" style="stroke: #000000; stroke-width: 0.6"/>
      </g>
     </g>
    </g>
    <g id="xtick_18">
     <g id="line2d_35">
      <path d="M 388.779365 382.23475 
L 388.779365 30.48 
" clip-path="url(#p37af4a0aa0)" style="fill: none; stroke: #808080; stroke-opacity: 0.3; stroke-width: 0.8; stroke-linecap: square"/>
     </g>
     <g id="line2d_36">
      <g>
       <use xlink:href="#mf2a492c81d" x="388.779365" y="382.23475" style="stroke: #000000; stroke-width: 0.6"/>
      </g>
     </g>
    </g>
    <g id="xtick_19">
     <g id="line2d_37">
      <path d="M 400.445556 382.23475 
L 400.445556 30.48 
" clip-path="url(#p37af4a0aa0)" style="fill: none; stroke: #808080; stroke-opacity: 0.3; stroke-width: 0.8; stroke-linecap: square"/>
     </g>
     <g id="line2d_38">
      <g>
       <use xlink:href="#mf2a492c81d" x="400.445556" y="382.23475" style="stroke: #000000; stroke-width: 0.6"/>
      </g>
     </g>
    </g>
    <g id="xtick_20">
     <g id="line2d_39">
      <path d="M 410.551269 382.23475 
L 410.551269 30.48 
" clip-path="url(#p37af4a0aa0)" style="fill: none; stroke: #808080; stroke-opacity: 0.3; stroke-width: 0.8; stroke-linecap: square"/>
     </g>
     <g id="line2d_40">
      <g>
       <use xlink:href="#mf2a492c81d" x="410.551269" y="382.23475" style="stroke: #000000; stroke-width: 0.6"/>
      </g>
     </g>
    </g>
    <g id="xtick_21">
     <g id="line2d_41">
      <path d="M 419.46514 382.23475 
L 419.46514 30.48 
" clip-path="url(#p37af4a0aa0)" style="fill: none; stroke: #808080; stroke-opacity: 0.3; stroke-width: 0.8; stroke-linecap: square"/>
     </g>
     <g id="line2d_42">
      <g>
       <use xlink:href="#mf2a492c81d" x="419.46514" y="382.23475" style="stroke: #000000; stroke-width: 0.6"/>
      </g>
     </g>
    </g>
    <g id="xtick_22">
     <g id="line2d_43">
      <path d="M 479.896547 382.23475 
L 479.896547 30.48 
" clip-path="url(#p37af4a0aa0)" style="fill: none; stroke: #808080; stroke-opacity: 0.3; stroke-width: 0.8; stroke-linecap: square"/>
     </g>
     <g id="line2d_44">
      <g>
       <use xlink:href="#mf2a492c81d" x="479.896547" y="382.23475" style="stroke: #000000; stroke-width: 0.6"/>
      </g>
     </g>
    </g>
    <g id="xtick_23">
     <g id="line2d_45">
      <path d="M 510.582322 382.23475 
L 510.582322 30.48 
" clip-path="url(#p37af4a0aa0)" style="fill: none; stroke: #808080; stroke-opacity: 0.3; stroke-width: 0.8; stroke-linecap: square"/>
     </g>
     <g id="line2d_46">
      <g>
       <use xlink:href="#mf2a492c81d" x="510.582322" y="382.23475" style="stroke: #000000; stroke-width: 0.6"/>
      </g>
     </g>
    </g>
    <g id="xtick_24">
     <g id="line2d_47">
      <path d="M 532.354225 382.23475 
L 532.354225 30.48 
" clip-path="url(#p37af4a0aa0)" style="fill: none; stroke: #808080; stroke-opacity: 0.3; stroke-width: 0.8; stroke-linecap: square"/>
     </g>
     <g id="line2d_48">
      <g>
       <use xlink:href="#mf2a492c81d" x="532.354225" y="382.23475" style="stroke: #000000; stroke-width: 0.6"/>
      </g>
     </g>
    </g>
    <g id="xtick_25">
     <g id="line2d_49">
      <path d="M 549.241826 382.23475 
L 549.241826 30.48 
" clip-path="url(#p37af4a0aa0)" style="fill: none; stroke: #808080; stroke-opacity: 0.3; stroke-width: 0.8; stroke-linecap: square"/>
     </g>
     <g id="line2d_50">
      <g>
       <use xlink:href="#mf2a492c81d" x="549.241826" y="382.23475" style="stroke: #000000; stroke-width: 0.6"/>
      </g>
     </g>
    </g>
    <g id="xtick_26">
     <g id="line2d_51">
      <path d="M 563.04 382.23475 
L 563.04 30.48 
" clip-path="url(#p37af4a0aa0)" style="fill: none; stroke: #808080; stroke-opacity: 0.3; stroke-width: 0.8; stroke-linecap: square"/>
     </g>
     <g id="line2d_52">
      <g>
       <use xlink:href="#mf2a492c81d" x="563.04" y="382.23475" style="stroke: #000000; stroke-width: 0.6"/>
      </g>
     </g>
    </g>
    <g id="text_4">
     <!-- 周波数 (Hz) -->
     <g transform="translate(281.580625 414.371625) scale(0.12 -0.12)">
      <defs>
       <path id="IPAexGothic-5468" d="M 5638 4984 
L 5638 191 
Q 5638 -75 5534 -188 
Q 5409 -341 4975 -341 
Q 4581 -341 3966 -294 
L 3859 209 
Q 4422 134 4850 134 
Q 5069 134 5131 225 
Q 5169 291 5169 441 
L 5169 4575 
L 1378 4575 
L 1378 2750 
Q 1378 1400 1288 800 
Q 1184 78 781 -500 
L 391 -116 
Q 741 350 838 1106 
Q 909 1650 909 2656 
L 909 4984 
L 5638 4984 
z
M 2463 703 
L 2463 222 
L 2022 222 
L 2022 2119 
L 4447 2119 
L 4447 703 
L 2463 703 
z
M 4006 1075 
L 4006 1747 
L 2463 1747 
L 2463 1075 
L 4006 1075 
z
M 3444 3816 
L 4744 3816 
L 4744 3438 
L 3444 3438 
L 3444 2913 
L 4941 2913 
L 4941 2534 
L 1606 2534 
L 1606 2913 
L 3000 2913 
L 3000 3438 
L 1803 3438 
L 1803 3816 
L 3000 3816 
L 3000 4347 
L 3444 4347 
L 3444 3816 
z
" transform="scale(0.015625)"/>
       <path id="IPAexGothic-6ce2" d="M 4641 838 
Q 5219 381 6097 38 
L 5791 -384 
Q 4919 -6 4325 513 
Q 3591 -144 2794 -500 
L 2488 -103 
Q 3350 188 4006 825 
Q 3397 1472 3056 2400 
L 2756 2400 
L 2756 2344 
Q 2747 1263 2513 563 
Q 2344 53 1963 -453 
L 1613 -122 
Q 2113 525 2238 1288 
Q 2316 1756 2316 2503 
L 2316 4378 
L 3866 4378 
L 3866 5313 
L 4306 5313 
L 4306 4378 
L 5753 4378 
L 6016 4141 
Q 5838 3597 5522 3066 
L 5100 3238 
Q 5322 3584 5466 3969 
L 4306 3969 
L 4306 2797 
L 5425 2797 
L 5688 2547 
Q 5231 1469 4641 838 
z
M 4306 1141 
Q 4850 1797 5113 2400 
L 3519 2400 
Q 3838 1638 4306 1141 
z
M 3866 3969 
L 2756 3969 
L 2756 2797 
L 3866 2797 
L 3866 3969 
z
M 409 6 
Q 1013 769 1525 1919 
L 1856 1563 
Q 1388 463 788 -391 
L 409 6 
z
M 1344 2388 
Q 919 2869 384 3238 
L 684 3597 
Q 1225 3234 1672 2759 
L 1344 2388 
z
M 1525 3866 
Q 1047 4381 597 4703 
L 903 5063 
Q 1384 4738 1844 4250 
L 1525 3866 
z
" transform="scale(0.015625)"/>
       <path id="IPAexGothic-6570" d="M 2847 1553 
Q 2741 1006 2425 534 
Q 2625 441 3091 203 
L 2809 -188 
Q 2541 0 2144 209 
Q 1569 -291 703 -500 
L 422 -125 
Q 1263 19 1747 406 
Q 1222 650 734 816 
Q 975 1172 1147 1503 
L 1172 1553 
L 359 1553 
L 359 1925 
L 1344 1925 
Q 1406 2066 1569 2475 
L 1691 2450 
L 1691 3372 
Q 1250 2738 550 2303 
L 275 2663 
Q 1019 3013 1528 3641 
L 378 3641 
L 378 4006 
L 1691 4006 
L 1691 5313 
L 2113 5313 
L 2113 4006 
L 3297 4006 
L 3297 3641 
L 2113 3641 
L 2113 3513 
Q 2659 3291 3175 2963 
L 2956 2584 
Q 2553 2922 2113 3159 
L 2113 2372 
L 1966 2372 
Q 1928 2288 1872 2141 
Q 1806 1975 1784 1925 
L 3378 1925 
L 3378 1553 
L 2847 1553 
z
M 2419 1553 
L 1613 1553 
Q 1478 1269 1313 997 
Q 1559 909 2047 703 
Q 2313 1047 2419 1553 
z
M 4363 1163 
Q 3953 1781 3738 2638 
Q 3575 2281 3428 2016 
L 3103 2406 
Q 3675 3444 3916 5291 
L 4363 5200 
Q 4284 4666 4197 4197 
L 6009 4197 
L 6009 3775 
L 5503 3775 
Q 5397 2275 4869 1191 
Q 5419 503 6144 75 
L 5822 -378 
Q 5188 106 4631 788 
Q 4113 34 3341 -463 
L 3031 -78 
Q 3888 406 4363 1163 
z
M 4588 1594 
Q 4938 2388 5059 3775 
L 4100 3775 
Q 4041 3519 3972 3288 
Q 3981 3250 3991 3194 
Q 4175 2256 4588 1594 
z
M 1003 4116 
Q 878 4544 638 4934 
L 1053 5094 
Q 1247 4788 1438 4269 
L 1003 4116 
z
M 2316 4269 
Q 2550 4688 2688 5131 
L 3128 4997 
Q 2966 4588 2675 4128 
L 2316 4269 
z
" transform="scale(0.015625)"/>
       <path id="IPAexGothic-20" transform="scale(0.015625)"/>
       <path id="IPAexGothic-28" d="M 1928 -1016 
L 1653 -1166 
Q 488 69 488 1875 
Q 488 3678 1653 4909 
L 1928 4763 
Q 1006 3522 1006 1881 
Q 1006 203 1928 -1016 
z
" transform="scale(0.015625)"/>
       <path id="IPAexGothic-48" d="M 4181 63 
L 3619 63 
L 3619 2200 
L 1172 2200 
L 1172 63 
L 609 63 
L 609 4634 
L 1172 4634 
L 1172 2669 
L 3619 2669 
L 3619 4634 
L 4181 4634 
L 4181 63 
z
" transform="scale(0.015625)"/>
       <path id="IPAexGothic-7a" d="M 2778 63 
L 206 63 
L 206 381 
L 1575 2175 
Q 1822 2500 2081 2797 
L 2081 2816 
L 366 2816 
L 366 3250 
L 2703 3250 
L 2703 2900 
L 1378 1138 
Q 1256 975 872 522 
L 872 503 
L 2778 503 
L 2778 63 
z
" transform="scale(0.015625)"/>
       <path id="IPAexGothic-29" d="M 466 4909 
Q 1638 3672 1638 1875 
Q 1638 75 466 -1166 
L 191 -1016 
Q 1119 216 1119 1881 
Q 1119 3509 191 4763 
L 466 4909 
z
" transform="scale(0.015625)"/>
      </defs>
      <use xlink:href="#IPAexGothic-5468"/>
      <use xlink:href="#IPAexGothic-6ce2" transform="translate(100 0)"/>
      <use xlink:href="#IPAexGothic-6570" transform="translate(200 0)"/>
      <use xlink:href="#IPAexGothic-20" transform="translate(300 0)"/>
      <use xlink:href="#IPAexGothic-28" transform="translate(327.001953 0)"/>
      <use xlink:href="#IPAexGothic-48" transform="translate(360.302734 0)"/>
      <use xlink:href="#IPAexGothic-7a" transform="translate(435.302734 0)"/>
      <use xlink:href="#IPAexGothic-29" transform="translate(482.617188 0)"/>
     </g>
    </g>
   </g>
   <g id="matplotlib.axis_2">
    <g id="ytick_1">
     <g id="line2d_53">
      <path d="M 62.03 382.23475 
L 563.04 382.23475 
" clip-path="url(#p37af4a0aa0)" style="fill: none; stroke: #808080; stroke-opacity: 0.3; stroke-width: 0.8; stroke-linecap: square"/>
     </g>
     <g id="line2d_54">
      <defs>
       <path id="m9062e77061" d="M 0 0 
L -3.5 0 
" style="stroke: #000000; stroke-width: 0.8"/>
      </defs>
      <g>
       <use xlink:href="#m9062e77061" x="62.03" y="382.23475" style="stroke: #000000; stroke-width: 0.8"/>
      </g>
     </g>
     <g id="text_5">
      <!-- 0.00 -->
      <g transform="translate(29.185 386.729125) scale(0.12 -0.12)">
       <defs>
        <path id="IPAexGothic-2e" d="M 1184 63 
L 494 63 
L 494 753 
L 1184 753 
L 1184 63 
z
" transform="scale(0.015625)"/>
       </defs>
       <use xlink:href="#IPAexGothic-30"/>
       <use xlink:href="#IPAexGothic-2e" transform="translate(62.988281 0)"/>
       <use xlink:href="#IPAexGothic-30" transform="translate(89.404297 0)"/>
       <use xlink:href="#IPAexGothic-30" transform="translate(152.392578 0)"/>
      </g>
     </g>
    </g>
    <g id="ytick_2">
     <g id="line2d_55">
      <path d="M 62.03 311.8838 
L 563.04 311.8838 
" clip-path="url(#p37af4a0aa0)" style="fill: none; stroke: #808080; stroke-opacity: 0.3; stroke-width: 0.8; stroke-linecap: square"/>
     </g>
     <g id="line2d_56">
      <g>
       <use xlink:href="#m9062e77061" x="62.03" y="311.8838" style="stroke: #000000; stroke-width: 0.8"/>
      </g>
     </g>
     <g id="text_6">
      <!-- 0.05 -->
      <g transform="translate(29.185 316.378175) scale(0.12 -0.12)">
       <defs>
        <path id="IPAexGothic-35" d="M 1178 2603 
Q 1634 2963 2172 2963 
Q 2816 2963 3241 2528 
Q 3638 2113 3638 1497 
Q 3638 938 3297 513 
Q 2869 -31 2031 -31 
Q 959 -31 469 784 
L 938 1028 
Q 1309 434 2013 434 
Q 2466 434 2769 716 
Q 3081 1013 3081 1503 
Q 3081 1966 2806 2241 
Q 2519 2528 2056 2528 
Q 1406 2528 1072 2028 
L 591 2091 
L 884 4634 
L 3406 4634 
L 3406 4153 
L 1341 4153 
L 1134 2603 
L 1178 2603 
z
" transform="scale(0.015625)"/>
       </defs>
       <use xlink:href="#IPAexGothic-30"/>
       <use xlink:href="#IPAexGothic-2e" transform="translate(62.988281 0)"/>
       <use xlink:href="#IPAexGothic-30" transform="translate(89.404297 0)"/>
       <use xlink:href="#IPAexGothic-35" transform="translate(152.392578 0)"/>
      </g>
     </g>
    </g>
    <g id="ytick_3">
     <g id="line2d_57">
      <path d="M 62.03 241.53285 
L 563.04 241.53285 
" clip-path="url(#p37af4a0aa0)" style="fill: none; stroke: #808080; stroke-opacity: 0.3; stroke-width: 0.8; stroke-linecap: square"/>
     </g>
     <g id="line2d_58">
      <g>
       <use xlink:href="#m9062e77061" x="62.03" y="241.53285" style="stroke: #000000; stroke-width: 0.8"/>
      </g>
     </g>
     <g id="text_7">
      <!-- 0.10 -->
      <g transform="translate(29.185 246.027225) scale(0.12 -0.12)">
       <use xlink:href="#IPAexGothic-30"/>
       <use xlink:href="#IPAexGothic-2e" transform="translate(62.988281 0)"/>
       <use xlink:href="#IPAexGothic-31" transform="translate(89.404297 0)"/>
       <use xlink:href="#IPAexGothic-30" transform="translate(152.392578 0)"/>
      </g>
     </g>
    </g>
    <g id="ytick_4">
     <g id="line2d_59">
      <path d="M 62.03 171.1819 
L 563.04 171.1819 
" clip-path="url(#p37af4a0aa0)" style="fill: none; stroke: #808080; stroke-opacity: 0.3; stroke-width: 0.8; stroke-linecap: square"/>
     </g>
     <g id="line2d_60">
      <g>
       <use xlink:href="#m9062e77061" x="62.03" y="171.1819" style="stroke: #000000; stroke-width: 0.8"/>
      </g>
     </g>
     <g id="text_8">
      <!-- 0.15 -->
      <g transform="translate(29.185 175.676275) scale(0.12 -0.12)">
       <use xlink:href="#IPAexGothic-30"/>
       <use xlink:href="#IPAexGothic-2e" transform="translate(62.988281 0)"/>
       <use xlink:href="#IPAexGothic-31" transform="translate(89.404297 0)"/>
       <use xlink:href="#IPAexGothic-35" transform="translate(152.392578 0)"/>
      </g>
     </g>
    </g>
    <g id="ytick_5">
     <g id="line2d_61">
      <path d="M 62.03 100.83095 
L 563.04 100.83095 
" clip-path="url(#p37af4a0aa0)" style="fill: none; stroke: #808080; stroke-opacity: 0.3; stroke-width: 0.8; stroke-linecap: square"/>
     </g>
     <g id="line2d_62">
      <g>
       <use xlink:href="#m9062e77061" x="62.03" y="100.83095" style="stroke: #000000; stroke-width: 0.8"/>
      </g>
     </g>
     <g id="text_9">
      <!-- 0.20 -->
      <g transform="translate(29.185 105.325325) scale(0.12 -0.12)">
       <use xlink:href="#IPAexGothic-30"/>
       <use xlink:href="#IPAexGothic-2e" transform="translate(62.988281 0)"/>
       <use xlink:href="#IPAexGothic-32" transform="translate(89.404297 0)"/>
       <use xlink:href="#IPAexGothic-30" transform="translate(152.392578 0)"/>
      </g>
     </g>
    </g>
    <g id="ytick_6">
     <g id="line2d_63">
      <path d="M 62.03 30.48 
L 563.04 30.48 
" clip-path="url(#p37af4a0aa0)" style="fill: none; stroke: #808080; stroke-opacity: 0.3; stroke-width: 0.8; stroke-linecap: square"/>
     </g>
     <g id="line2d_64">
      <g>
       <use xlink:href="#m9062e77061" x="62.03" y="30.48" style="stroke: #000000; stroke-width: 0.8"/>
      </g>
     </g>
     <g id="text_10">
      <!-- 0.25 -->
      <g transform="translate(29.185 34.974375) scale(0.12 -0.12)">
       <use xlink:href="#IPAexGothic-30"/>
       <use xlink:href="#IPAexGothic-2e" transform="translate(62.988281 0)"/>
       <use xlink:href="#IPAexGothic-32" transform="translate(89.404297 0)"/>
       <use xlink:href="#IPAexGothic-35" transform="translate(152.392578 0)"/>
      </g>
     </g>
    </g>
    <g id="text_11">
     <!-- 電圧 (V) -->
     <g transform="translate(22.905 227.796125) rotate(-90) scale(0.12 -0.12)">
      <defs>
       <path id="IPAexGothic-96fb" d="M 2956 4378 
L 2956 4741 
L 1053 4741 
L 1053 5106 
L 5338 5106 
L 5338 4741 
L 3397 4741 
L 3397 4378 
L 5797 4378 
L 5797 3084 
L 5344 3084 
L 5344 4031 
L 3397 4031 
L 3397 2638 
L 2956 2638 
L 2956 4031 
L 1047 4031 
L 1047 3072 
L 594 3072 
L 594 4378 
L 2956 4378 
z
M 3363 544 
L 3363 238 
Q 3363 59 3497 31 
Q 3600 6 4491 6 
Q 5219 6 5347 31 
Q 5556 78 5584 281 
Q 5609 500 5616 684 
L 6038 556 
Q 6028 -109 5797 -256 
Q 5619 -378 4419 -378 
Q 3256 -378 3128 -313 
Q 2959 -225 2959 91 
L 2959 544 
L 1456 544 
L 1456 166 
L 1034 166 
L 1034 2400 
L 5316 2400 
L 5316 544 
L 3363 544 
z
M 2959 2059 
L 1456 2059 
L 1456 1666 
L 2959 1666 
L 2959 2059 
z
M 3363 2059 
L 3363 1666 
L 4900 1666 
L 4900 2059 
L 3363 2059 
z
M 2959 1325 
L 1456 1325 
L 1456 897 
L 2959 897 
L 2959 1325 
z
M 3363 1325 
L 3363 897 
L 4900 897 
L 4900 1325 
L 3363 1325 
z
M 1338 3688 
L 2663 3688 
L 2663 3375 
L 1338 3375 
L 1338 3688 
z
M 1338 3072 
L 2663 3072 
L 2663 2753 
L 1338 2753 
L 1338 3072 
z
M 3691 3688 
L 5053 3688 
L 5053 3375 
L 3691 3375 
L 3691 3688 
z
M 3691 3072 
L 5053 3072 
L 5053 2753 
L 3691 2753 
L 3691 3072 
z
" transform="scale(0.015625)"/>
       <path id="IPAexGothic-5727" d="M 1409 4409 
L 1409 3200 
Q 1409 1691 1275 916 
Q 1150 216 800 -456 
L 403 -103 
Q 934 931 934 2853 
L 934 4838 
L 5756 4838 
L 5756 4409 
L 1409 4409 
z
M 3378 2597 
L 3378 4131 
L 3859 4131 
L 3859 2597 
L 5588 2597 
L 5588 2169 
L 3859 2169 
L 3859 325 
L 6009 325 
L 6009 -116 
L 1356 -116 
L 1356 325 
L 3378 325 
L 3378 2169 
L 1747 2169 
L 1747 2597 
L 3378 2597 
z
" transform="scale(0.015625)"/>
       <path id="IPAexGothic-56" d="M 4078 4634 
L 2222 0 
L 1806 0 
L -6 4634 
L 622 4634 
L 1703 1766 
Q 1916 1194 2034 784 
L 2053 784 
Q 2188 1256 2381 1766 
L 3450 4634 
L 4078 4634 
z
" transform="scale(0.015625)"/>
      </defs>
      <use xlink:href="#IPAexGothic-96fb"/>
      <use xlink:href="#IPAexGothic-5727" transform="translate(100 0)"/>
      <use xlink:href="#IPAexGothic-20" transform="translate(200 0)"/>
      <use xlink:href="#IPAexGothic-28" transform="translate(227.001953 0)"/>
      <use xlink:href="#IPAexGothic-56" transform="translate(260.302734 0)"/>
      <use xlink:href="#IPAexGothic-29" transform="translate(324.023438 0)"/>
     </g>
    </g>
   </g>
   <g id="line2d_65">
    <path d="M 62.03 205.412563 
L 72.070281 190.824972 
L 80.102505 179.553429 
L 86.126673 171.444819 
L 92.150842 163.70251 
L 97.170982 157.568714 
L 102.191122 151.750287 
L 107.211263 146.265389 
L 112.231403 141.126024 
L 117.251543 136.338217 
L 122.271683 131.902413 
L 127.291824 127.81405 
L 132.311964 124.064257 
L 137.332104 120.640602 
L 142.352244 117.52787 
L 147.372385 114.708803 
L 152.392525 112.164784 
L 157.412665 109.876452 
L 162.432806 107.824214 
L 167.452946 105.988673 
L 173.477114 104.04556 
L 179.501283 102.35631 
L 185.525451 100.891919 
L 192.553647 99.432181 
L 199.581844 98.20405 
L 207.614068 97.040993 
L 216.650321 95.987718 
L 225.686573 95.154976 
L 236.730882 94.37563 
L 248.779218 93.758539 
L 262.835611 93.27121 
L 278.90006 92.944465 
L 296.972565 92.804534 
L 316.049098 92.887053 
L 333.117575 93.177283 
L 348.177996 93.648912 
L 361.230361 94.277472 
L 372.274669 95.022361 
L 382.31495 95.920241 
L 391.351202 96.955841 
L 399.383427 98.099751 
L 406.411623 99.308006 
L 413.43982 100.744523 
L 419.463988 102.186029 
L 425.488156 103.849363 
L 431.512325 105.763289 
L 436.532465 107.571857 
L 441.552605 109.594615 
L 446.572745 111.850907 
L 451.592886 114.360321 
L 456.613026 117.142279 
L 461.633166 120.215526 
L 466.653307 123.597536 
L 471.673447 127.303835 
L 476.693587 131.347259 
L 481.713727 135.737193 
L 486.733868 140.478804 
L 491.754008 145.572337 
L 496.774148 151.012525 
L 501.794289 156.788165 
L 506.814429 162.881903 
L 512.838597 170.580841 
L 518.862766 178.652355 
L 525.890962 188.457094 
L 534.927214 201.5033 
L 563.04 242.59231 
L 563.04 242.59231 
" clip-path="url(#p37af4a0aa0)" style="fill: none; stroke: #000000; stroke-width: 1.5; stroke-linecap: square"/>
   </g>
   <g id="line2d_66">
    <path d="M 62.03 367.001476 
L 71.066253 365.107273 
L 80.102505 362.98868 
L 89.138758 360.623744 
L 97.170982 358.296829 
L 105.203206 355.74255 
L 113.235431 352.946806 
L 121.267655 349.897489 
L 129.29988 346.585623 
L 137.332104 343.006762 
L 145.364329 339.162593 
L 153.396553 335.062674 
L 161.428778 330.726142 
L 170.46503 325.602708 
L 181.509339 319.0766 
L 212.634208 300.476791 
L 220.666433 295.993982 
L 228.698657 291.774216 
L 235.726854 288.337534 
L 242.75505 285.164826 
L 249.783246 282.270356 
L 255.807415 280.014811 
L 261.831583 277.965617 
L 268.85978 275.827931 
L 275.887976 273.949005 
L 282.916172 272.31054 
L 289.944369 270.891762 
L 297.976593 269.511201 
L 306.008818 268.356314 
L 315.04507 267.288035 
L 325.085351 266.340392 
L 336.129659 265.532817 
L 348.177996 264.870666 
L 363.238417 264.281442 
L 381.310922 263.817563 
L 404.403567 263.467852 
L 436.532465 263.228121 
L 488.741924 263.093348 
L 563.04 263.054305 
L 563.04 263.054305 
" clip-path="url(#p37af4a0aa0)" style="fill: none; stroke: #000000; stroke-width: 1.5; stroke-linecap: square"/>
   </g>
   <g id="patch_3">
    <path d="M 62.03 382.23475 
L 62.03 30.48 
" style="fill: none; stroke: #000000; stroke-width: 0.8; stroke-linejoin: miter; stroke-linecap: square"/>
   </g>
   <g id="patch_4">
    <path d="M 563.04 382.23475 
L 563.04 30.48 
" style="fill: none; stroke: #000000; stroke-width: 0.8; stroke-linejoin: miter; stroke-linecap: square"/>
   </g>
   <g id="patch_5">
    <path d="M 62.03 382.23475 
L 563.04 382.23475 
" style="fill: none; stroke: #000000; stroke-width: 0.8; stroke-linejoin: miter; stroke-linecap: square"/>
   </g>
   <g id="patch_6">
    <path d="M 62.03 30.48 
L 563.04 30.48 
" style="fill: none; stroke: #000000; stroke-width: 0.8; stroke-linejoin: miter; stroke-linecap: square"/>
   </g>
   <g id="text_12">
    <!-- 周波数特性 -->
    <g transform="translate(276.535 24.48) scale(0.144 -0.144)">
     <defs>
      <path id="IPAexGothic-7279" d="M 1025 3950 
L 1434 3950 
L 1434 5313 
L 1875 5313 
L 1875 3950 
L 2534 3950 
L 2534 3547 
L 1875 3547 
L 1875 2216 
Q 2084 2313 2494 2516 
L 2547 2106 
Q 2281 1963 1856 1750 
L 1856 -447 
L 1416 -447 
L 1416 1538 
Q 1028 1359 538 1153 
L 313 1581 
Q 778 1744 1434 2019 
L 1434 3547 
L 947 3547 
Q 828 3013 647 2556 
L 275 2803 
Q 584 3600 691 4744 
L 1131 4688 
Q 1091 4291 1025 3950 
z
M 3872 4372 
L 3872 5313 
L 4313 5313 
L 4313 4372 
L 5738 4372 
L 5738 3981 
L 4313 3981 
L 4313 3200 
L 6072 3200 
L 6072 2803 
L 5106 2803 
L 5106 2047 
L 5956 2047 
L 5956 1650 
L 5125 1650 
L 5125 38 
Q 5125 -447 4594 -447 
Q 4288 -447 3788 -391 
L 3691 78 
Q 4181 0 4491 0 
Q 4684 0 4684 172 
L 4684 1650 
L 2609 1650 
L 2609 2047 
L 4666 2047 
L 4666 2803 
L 2400 2803 
L 2400 3200 
L 3872 3200 
L 3872 3981 
L 2653 3981 
L 2653 4372 
L 3872 4372 
z
M 3550 384 
Q 3216 959 2834 1331 
L 3172 1575 
Q 3641 1116 3916 672 
L 3550 384 
z
" transform="scale(0.015625)"/>
      <path id="IPAexGothic-6027" d="M 3106 3788 
L 3900 3788 
L 3900 5216 
L 4353 5216 
L 4353 3788 
L 5884 3788 
L 5884 3372 
L 4353 3372 
L 4353 2069 
L 5756 2069 
L 5756 1653 
L 4353 1653 
L 4353 153 
L 6081 153 
L 6081 -269 
L 2231 -269 
L 2231 153 
L 3900 153 
L 3900 1653 
L 2606 1653 
L 2606 2069 
L 3900 2069 
L 3900 3372 
L 2984 3372 
Q 2806 2803 2544 2325 
L 2147 2613 
Q 2638 3428 2875 4875 
L 3313 4778 
Q 3234 4309 3106 3788 
z
M 269 2188 
Q 459 2891 525 3950 
L 934 3884 
Q 884 2694 672 1931 
L 269 2188 
z
M 1997 3047 
Q 1872 3591 1650 4078 
L 1984 4256 
Q 2216 3844 2394 3291 
L 1997 3047 
z
M 1159 5313 
L 1613 5313 
L 1613 -447 
L 1159 -447 
L 1159 5313 
z
" transform="scale(0.015625)"/>
     </defs>
     <use xlink:href="#IPAexGothic-5468"/>
     <use xlink:href="#IPAexGothic-6ce2" transform="translate(100 0)"/>
     <use xlink:href="#IPAexGothic-6570" transform="translate(200 0)"/>
     <use xlink:href="#IPAexGothic-7279" transform="translate(300 0)"/>
     <use xlink:href="#IPAexGothic-6027" transform="translate(400 0)"/>
    </g>
   </g>
   <g id="legend_1">
    <g id="patch_7">
     <path d="M 416.64 376.23475 
L 554.64 376.23475 
Q 557.04 376.23475 557.04 373.83475 
L 557.04 338.7385 
Q 557.04 336.3385 554.64 336.3385 
L 416.64 336.3385 
Q 414.24 336.3385 414.24 338.7385 
L 414.24 373.83475 
Q 414.24 376.23475 416.64 376.23475 
z
" style="fill: #ffffff; opacity: 0.8; stroke: #cccccc; stroke-linejoin: miter"/>
    </g>
    <g id="line2d_67">
     <path d="M 419.04 346.806625 
L 431.04 346.806625 
L 443.04 346.806625 
" style="fill: none; stroke: #000000; stroke-width: 1.5; stroke-linecap: square"/>
     <defs>
      <path id="mba5ff65ede" d="M 0 3.5 
C 0.928211 3.5 1.81853 3.131218 2.474874 2.474874 
C 3.131218 1.81853 3.5 0.928211 3.5 0 
C 3.5 -0.928211 3.131218 -1.81853 2.474874 -2.474874 
C 1.81853 -3.131218 0.928211 -3.5 0 -3.5 
C -0.928211 -3.5 -1.81853 -3.131218 -2.474874 -2.474874 
C -3.131218 -1.81853 -3.5 -0.928211 -3.5 0 
C -3.5 0.928211 -3.131218 1.81853 -2.474874 2.474874 
C -1.81853 3.131218 -0.928211 3.5 0 3.5 
z
" style="stroke: #000000"/>
     </defs>
     <g>
      <use xlink:href="#mba5ff65ede" x="431.04" y="346.806625" style="stroke: #000000"/>
     </g>
    </g>
    <g id="text_13">
     <!-- AM OUT (補正後) -->
     <g transform="translate(452.64 351.006625) scale(0.12 -0.12)">
      <defs>
       <path id="IPAexGothic-41" d="M 4056 63 
L 3444 63 
L 2938 1409 
L 1100 1409 
L 603 63 
L -6 63 
L 1806 4666 
L 2259 4666 
L 4056 63 
z
M 2778 1863 
L 2316 3078 
Q 2125 3588 2028 4000 
L 2009 4000 
Q 1897 3563 1716 3078 
L 1263 1863 
L 2778 1863 
z
" transform="scale(0.015625)"/>
       <path id="IPAexGothic-4d" d="M 5147 63 
L 4597 63 
L 4597 2534 
Q 4597 3281 4634 4134 
L 4609 4134 
Q 4356 3409 4066 2675 
L 3066 209 
L 2650 209 
L 1641 2725 
Q 1328 3506 1128 4141 
L 1103 4141 
Q 1141 3131 1141 2553 
L 1141 63 
L 609 63 
L 609 4634 
L 1416 4634 
L 2503 1944 
Q 2697 1472 2869 906 
L 2888 906 
Q 3028 1416 3234 1931 
L 4316 4634 
L 5147 4634 
L 5147 63 
z
" transform="scale(0.015625)"/>
       <path id="IPAexGothic-4f" d="M 2541 4725 
Q 3456 4725 4044 4138 
Q 4709 3472 4709 2331 
Q 4709 1219 4031 550 
Q 3450 -31 2541 -31 
Q 1638 -31 1056 550 
Q 378 1219 378 2356 
Q 378 3469 1044 4138 
Q 1631 4725 2541 4725 
z
M 2541 4266 
Q 1953 4266 1531 3844 
Q 994 3303 994 2350 
Q 994 1391 1531 863 
Q 1947 447 2541 447 
Q 3131 447 3556 863 
Q 4094 1400 4094 2375 
Q 4094 3297 3550 3844 
Q 3138 4266 2541 4266 
z
" transform="scale(0.015625)"/>
       <path id="IPAexGothic-55" d="M 4219 4634 
L 4219 1631 
Q 4219 994 3906 594 
Q 3400 -63 2388 -63 
Q 1372 -63 856 594 
Q 550 988 550 1631 
L 550 4634 
L 1113 4634 
L 1113 1700 
Q 1113 1134 1388 831 
Q 1753 428 2388 428 
Q 3031 428 3388 831 
Q 3663 1144 3663 1700 
L 3663 4634 
L 4219 4634 
z
" transform="scale(0.015625)"/>
       <path id="IPAexGothic-54" d="M 3866 4141 
L 2175 4141 
L 2175 63 
L 1606 63 
L 1606 4141 
L -31 4141 
L -31 4634 
L 3866 4634 
L 3866 4141 
z
" transform="scale(0.015625)"/>
       <path id="IPAexGothic-88dc" d="M 1600 2394 
L 1688 2338 
Q 1700 2325 1766 2288 
Q 1938 2509 2188 2925 
L 2506 2709 
Q 2297 2431 1997 2119 
Q 2328 1875 2522 1697 
L 2259 1359 
Q 1956 1672 1600 1997 
L 1600 -447 
L 1172 -447 
L 1172 2159 
Q 906 1816 494 1403 
L 256 1794 
Q 1275 2716 1747 3816 
L 403 3816 
L 403 4231 
L 1153 4231 
L 1153 5306 
L 1581 5306 
L 1581 4231 
L 2047 4231 
L 2297 4034 
Q 2003 3319 1600 2741 
L 1600 2394 
z
M 4384 4019 
L 4384 3419 
L 5778 3419 
L 5778 25 
Q 5778 -391 5303 -391 
Q 4997 -391 4806 -366 
L 4728 56 
Q 5006 19 5209 19 
Q 5363 19 5363 206 
L 5363 1031 
L 4378 1031 
L 4378 -288 
L 3969 -288 
L 3969 1031 
L 3034 1031 
L 3034 -447 
L 2613 -447 
L 2613 3419 
L 3963 3419 
L 3963 4019 
L 2350 4019 
L 2350 4403 
L 3963 4403 
L 3963 5313 
L 4384 5313 
L 4384 4403 
L 5338 4403 
Q 5331 4422 5303 4459 
Q 5113 4750 4813 5050 
L 5144 5247 
Q 5413 4997 5681 4641 
L 5350 4403 
L 6047 4403 
L 6047 4019 
L 4384 4019 
z
M 3969 3047 
L 3034 3047 
L 3034 2413 
L 3969 2413 
L 3969 3047 
z
M 4378 3047 
L 4378 2413 
L 5363 2413 
L 5363 3047 
L 4378 3047 
z
M 3969 2047 
L 3034 2047 
L 3034 1391 
L 3969 1391 
L 3969 2047 
z
M 4378 2047 
L 4378 1391 
L 5363 1391 
L 5363 2047 
L 4378 2047 
z
" transform="scale(0.015625)"/>
       <path id="IPAexGothic-6b63" d="M 3547 409 
L 5916 409 
L 5916 -31 
L 481 -31 
L 481 409 
L 1441 409 
L 1441 3231 
L 1934 3231 
L 1934 409 
L 3059 409 
L 3059 4288 
L 750 4288 
L 750 4728 
L 5659 4728 
L 5659 4288 
L 3547 4288 
L 3547 2669 
L 5353 2669 
L 5353 2241 
L 3547 2241 
L 3547 409 
z
" transform="scale(0.015625)"/>
       <path id="IPAexGothic-5f8c" d="M 3309 2475 
Q 3184 2469 2291 2425 
L 2125 2859 
Q 2625 2859 2822 2866 
L 3169 2878 
L 3488 3194 
Q 2891 3844 2375 4238 
L 2700 4563 
Q 2878 4409 3097 4191 
Q 3563 4781 3828 5297 
L 4263 5075 
Q 3853 4431 3366 3916 
Q 3538 3744 3769 3475 
Q 4366 4109 4756 4647 
L 5178 4391 
Q 4525 3594 3719 2891 
L 4519 2925 
Q 5022 2950 5197 2963 
Q 4978 3316 4741 3591 
L 5106 3794 
Q 5606 3197 5972 2516 
L 5569 2259 
Q 5494 2428 5381 2638 
Q 5363 2631 5309 2628 
Q 5259 2625 5234 2622 
Q 4741 2566 3806 2509 
Q 3728 2338 3550 2041 
L 5050 2041 
L 5319 1791 
Q 4978 1122 4441 631 
Q 5069 256 5984 25 
L 5663 -419 
Q 4734 -106 4109 338 
Q 3372 -225 2194 -531 
L 1900 -116 
Q 3009 66 3775 594 
Q 3331 969 3053 1356 
Q 2663 900 2259 625 
L 1959 941 
Q 2838 1559 3309 2475 
z
M 4109 863 
Q 4528 1244 4728 1656 
L 3322 1656 
Q 3613 1263 4109 863 
z
M 1588 2753 
L 1588 -447 
L 1147 -447 
L 1147 2209 
Q 869 1891 550 1613 
L 250 1947 
Q 1216 2806 1803 3938 
L 2206 3738 
Q 1906 3188 1588 2753 
z
M 294 3716 
Q 1213 4375 1663 5209 
L 2078 4997 
Q 1475 4016 588 3372 
L 294 3716 
z
" transform="scale(0.015625)"/>
      </defs>
      <use xlink:href="#IPAexGothic-41"/>
      <use xlink:href="#IPAexGothic-4d" transform="translate(63.720703 0)"/>
      <use xlink:href="#IPAexGothic-20" transform="translate(153.90625 0)"/>
      <use xlink:href="#IPAexGothic-4f" transform="translate(180.908203 0)"/>
      <use xlink:href="#IPAexGothic-55" transform="translate(260.595703 0)"/>
      <use xlink:href="#IPAexGothic-54" transform="translate(335.302734 0)"/>
      <use xlink:href="#IPAexGothic-20" transform="translate(395.214844 0)"/>
      <use xlink:href="#IPAexGothic-28" transform="translate(422.216797 0)"/>
      <use xlink:href="#IPAexGothic-88dc" transform="translate(455.517578 0)"/>
      <use xlink:href="#IPAexGothic-6b63" transform="translate(555.517578 0)"/>
      <use xlink:href="#IPAexGothic-5f8c" transform="translate(655.517578 0)"/>
      <use xlink:href="#IPAexGothic-29" transform="translate(755.517578 0)"/>
     </g>
    </g>
    <g id="line2d_68">
     <path d="M 419.04 364.95475 
L 431.04 364.95475 
L 443.04 364.95475 
" style="fill: none; stroke: #000000; stroke-width: 1.5; stroke-linecap: square"/>
     <defs>
      <path id="m2ed8977d3a" d="M -3.5 3.5 
L 3.5 3.5 
L 3.5 -3.5 
L -3.5 -3.5 
z
" style="stroke: #000000; stroke-linejoin: miter"/>
     </defs>
     <g>
      <use xlink:href="#m2ed8977d3a" x="431.04" y="364.95475" style="stroke: #000000; stroke-linejoin: miter"/>
     </g>
    </g>
    <g id="text_14">
     <!-- DET OUT (補正後) -->
     <g transform="translate(452.64 369.15475) scale(0.12 -0.12)">
      <defs>
       <path id="IPAexGothic-44" d="M 609 4634 
L 1984 4634 
Q 3159 4634 3791 4050 
Q 4456 3444 4456 2356 
Q 4456 1047 3516 441 
Q 2925 63 1941 63 
L 609 63 
L 609 4634 
z
M 1172 556 
L 1894 556 
Q 3853 556 3853 2356 
Q 3853 4147 1928 4147 
L 1172 4147 
L 1172 556 
z
" transform="scale(0.015625)"/>
       <path id="IPAexGothic-45" d="M 3547 63 
L 609 63 
L 609 4634 
L 3469 4634 
L 3469 4147 
L 1166 4147 
L 1166 2650 
L 3206 2650 
L 3206 2191 
L 1166 2191 
L 1166 556 
L 3547 556 
L 3547 63 
z
" transform="scale(0.015625)"/>
      </defs>
      <use xlink:href="#IPAexGothic-44"/>
      <use xlink:href="#IPAexGothic-45" transform="translate(75.683594 0)"/>
      <use xlink:href="#IPAexGothic-54" transform="translate(135.205078 0)"/>
      <use xlink:href="#IPAexGothic-20" transform="translate(195.117188 0)"/>
      <use xlink:href="#IPAexGothic-4f" transform="translate(222.119141 0)"/>
      <use xlink:href="#IPAexGothic-55" transform="translate(301.806641 0)"/>
      <use xlink:href="#IPAexGothic-54" transform="translate(376.513672 0)"/>
      <use xlink:href="#IPAexGothic-20" transform="translate(436.425781 0)"/>
      <use xlink:href="#IPAexGothic-28" transform="translate(463.427734 0)"/>
      <use xlink:href="#IPAexGothic-88dc" transform="translate(496.728516 0)"/>
      <use xlink:href="#IPAexGothic-6b63" transform="translate(596.728516 0)"/>
      <use xlink:href="#IPAexGothic-5f8c" transform="translate(696.728516 0)"/>
      <use xlink:href="#IPAexGothic-29" transform="translate(796.728516 0)"/>
     </g>
    </g>
   </g>
  </g>
 </g>
 <defs>
  <clipPath id="p37af4a0aa0">
   <rect x="62.03" y="30.48" width="501.01" height="351.75475"/>
  </clipPath>
 </defs>
</svg>
