<?xml version="1.0" encoding="UTF-8" standalone="no"?>
<!-- Created with Inkscape (http://www.inkscape.org/) -->

<svg
   width="152.96725mm"
   height="34.381367mm"
   viewBox="0 0 152.96725 34.381367"
   version="1.1"
   id="svg1"
   inkscape:version="1.4.2 (f4327f4, 2025-05-13)"
   sodipodi:docname="Wave.svg"
   xmlns:inkscape="http://www.inkscape.org/namespaces/inkscape"
   xmlns:sodipodi="http://sodipodi.sourceforge.net/DTD/sodipodi-0.dtd"
   xmlns="http://www.w3.org/2000/svg"
   xmlns:svg="http://www.w3.org/2000/svg">
  <sodipodi:namedview
     id="namedview1"
     pagecolor="#ffffff"
     bordercolor="#000000"
     borderopacity="0.25"
     inkscape:showpageshadow="2"
     inkscape:pageopacity="0.0"
     inkscape:pagecheckerboard="0"
     inkscape:deskcolor="#d1d1d1"
     inkscape:document-units="mm"
     inkscape:zoom="1.2587753"
     inkscape:cx="340.80746"
     inkscape:cy="15.094037"
     inkscape:window-width="1436"
     inkscape:window-height="1681"
     inkscape:window-x="-9"
     inkscape:window-y="0"
     inkscape:window-maximized="0"
     inkscape:current-layer="layer1" />
  <defs
     id="defs1">
    <clipPath
       clipPathUnits="userSpaceOnUse"
       id="clipPath60">
      <path
         d="M 0,0 H 4536 V 1133 H 0 Z"
         transform="matrix(0.1,0,0,-0.1,-340.80001,11.380088)"
         id="path60" />
    </clipPath>
    <clipPath
       clipPathUnits="userSpaceOnUse"
       id="clipPath56">
      <path
         d="M 0,0 H 4536 V 1133 H 0 Z"
         transform="matrix(0.1,0,0,-0.1,-94.500002,63.278902)"
         id="path56" />
    </clipPath>
    <clipPath
       clipPathUnits="userSpaceOnUse"
       id="clipPath30">
      <path
         d="M 0,0 H 4536 V 1133 H 0 Z"
         id="path30" />
    </clipPath>
    <clipPath
       clipPathUnits="userSpaceOnUse"
       id="clipPath28">
      <path
         d="M 0,0 H 4536 V 1133 H 0 Z"
         id="path28" />
    </clipPath>
    <clipPath
       clipPathUnits="userSpaceOnUse"
       id="clipPath26">
      <path
         d="M 0,0 H 4536 V 1133 H 0 Z"
         id="path26" />
    </clipPath>
    <clipPath
       clipPathUnits="userSpaceOnUse"
       id="clipPath24">
      <path
         d="M 0,0 H 4536 V 1133 H 0 Z"
         id="path24" />
    </clipPath>
    <clipPath
       clipPathUnits="userSpaceOnUse"
       id="clipPath22">
      <path
         d="M 0,0 H 4536 V 1133 H 0 Z"
         id="path22" />
    </clipPath>
    <clipPath
       clipPathUnits="userSpaceOnUse"
       id="clipPath20">
      <path
         d="M 0,0 H 4536 V 1133 H 0 Z"
         id="path20" />
    </clipPath>
    <clipPath
       clipPathUnits="userSpaceOnUse"
       id="clipPath18">
      <path
         d="M 0,0 H 4536 V 1133 H 0 Z"
         id="path18" />
    </clipPath>
    <clipPath
       clipPathUnits="userSpaceOnUse"
       id="clipPath16">
      <path
         d="M 0,0 H 4536 V 1133 H 0 Z"
         id="path16" />
    </clipPath>
    <clipPath
       clipPathUnits="userSpaceOnUse"
       id="clipPath14">
      <path
         d="M 0,0 H 4536 V 1133 H 0 Z"
         id="path14" />
    </clipPath>
    <clipPath
       clipPathUnits="userSpaceOnUse"
       id="clipPath12">
      <path
         d="M 0,0 H 4536 V 1133 H 0 Z"
         id="path12" />
    </clipPath>
    <clipPath
       clipPathUnits="userSpaceOnUse"
       id="clipPath10">
      <path
         d="M 0,0 H 4536 V 1133 H 0 Z"
         id="path10" />
    </clipPath>
    <clipPath
       clipPathUnits="userSpaceOnUse"
       id="clipPath8">
      <path
         d="M 0,0 H 4536 V 1133 H 0 Z"
         id="path8" />
    </clipPath>
    <clipPath
       clipPathUnits="userSpaceOnUse"
       id="clipPath6">
      <path
         d="m 142.004,140.797 h 4252 v 850 h -4252 z"
         id="path6" />
    </clipPath>
    <clipPath
       clipPathUnits="userSpaceOnUse"
       id="clipPath4">
      <path
         d="M 0,1133 H 4536 V 0 H 0 Z"
         id="path4" />
    </clipPath>
    <clipPath
       clipPathUnits="userSpaceOnUse"
       id="clipPath2">
      <path
         d="m 142.004,140.797 h 4252 v 850 h -4252 z"
         id="path2" />
    </clipPath>
  </defs>
  <g
     inkscape:label="Layer 1"
     inkscape:groupmode="layer"
     id="layer1"
     transform="translate(-15.006524,-144.32055)">
    <path
       id="path1"
       d="m 142.004,565.797 5,5 m 0,0 5.992,5.996 m 0,0 6.004,5 m 0,0 5,5 m 0,0 6,5.996 m 0,0 6,5 m 0,0 5,5 m 0,0 6.004,5 m 0,0 5.992,5 m 0,0 5,6.008 m 0,0 6.004,5 m 0,0 6,5 m 0,0 5,5 m 0,0 6,3.992 m 0,0 6.004,5 m 0,0 5,5 m 0,0 5.992,5 m 0,0 6.004,4.004 m 0,0 5,5 m 0,0 6,4.004 m 0,0 6,3.996 m 0,0 5,4.004 m 0,0 6.004,3.992 m 0,0 5.992,4.004 m 0,0 6.004,4.004 m 0,0 5,3.996 m 0,0 6,4.004 m 0,0 6,2.996 m 0,0 5,3 m 0,0 6.004,4.004 m 0,0 5.992,2.996 m 0,0 5,3 m 0,0 6.004,2 m 0,0 6,3 m 0,0 5,2.996 m 0,0 6,2.004 m 0,0 6.004,2 m 0,0 5,2.004 m 0,0 5.992,2 m 0,0 6.004,1.992 m 0,0 5,1.008 m 0,0 6,2 m 0,0 6,0.996 m 0,0 5,0.996 m 0,0 6.004,1.008 m 0,0 5.992,0.996 m 0,0 h 5 m 0,0 6.004,1.004 m 0,0 h 6 m 0,0 h 5 m 0,0 h 6 m 0,0 h 6.004 m 0,0 5,-1.004 m 0,0 h 5.992 m 0,0 6.004,-0.996 m 0,0 5,-1.008 m 0,0 6,-0.996 m 0,0 6,-0.996 m 0,0 5,-2 m 0,0 6.004,-1.008 m 0,0 5.992,-1.992 m 0,0 5,-2 m 0,0 6.004,-2.004 m 0,0 6,-2 m 0,0 5,-2.004 m 0,0 6,-2.996 m 0,0 6.004,-3 m 0,0 5,-2 m 0,0 5.992,-3 m 0,0 6.004,-2.996 m 0,0 5,-4.004 m 0,0 6,-3 m 0,0 6,-2.996 m 0,0 5,-4.004 m 0,0 6.004,-3.996 m 0,0 5.992,-4.004 m 0,0 5,-4.004 m 0,0 6.004,-3.992 m 0,0 6,-4.004 m 0,0 5,-3.996 m 0,0 6,-4.004 m 0,0 6.004,-5 m 0,0 5,-4.004 m 0,0 5.992,-5 m 0,0 6.004,-5 m 0,0 5,-5 m 0,0 6,-3.992 m 0,0 6,-5 m 0,0 5,-5 m 0,0 6.004,-5 m 0,0 5.992,-6.008 m 0,0 5,-5 m 0,0 6.004,-5 m 0,0 6,-5 m 0,0 5,-5 m 0,0 6,-5.996 m 0,0 6.004,-5 m 0,0 5,-5 m 0,0 5.992,-5.996 m 0,0 6.004,-5 m 0,0 5,-5 m 0,0 6,-6.004 m 0,0 6,-5 m 0,0 5,-5 m 0,0 6.004,-5.996 m 0,0 5.992,-5 m 0,0 5,-5 m 0,0 6.004,-5 m 0,0 6,-5 m 0,0 5,-5.996 m 0,0 6,-5 m 0,0 6.004,-5 m 0,0 5,-5 m 0,0 5.992,-4.004 m 0,0 6.004,-5 m 0,0 5,-5 m 0,0 6,-5 m 0,0 6,-4.004 m 0,0 5,-5 m 0,0 6.004,-3.996 m 0,0 5.992,-4.004 m 0,0 5,-3.992 m 0,0 6.004,-4.004 m 0,0 6,-4.004 m 0,0 6,-3.996 m 0,0 5,-4.004 m 0,0 6.004,-3.992 m 0,0 5.992,-3.008 m 0,0 5,-3 m 0,0 6.004,-3.992 m 0,0 6,-3.008 m 0,0 5,-3 m 0,0 6,-2 m 0,0 6.004,-3 m 0,0 5,-2.996 m 0,0 5.992,-2.004 m 0,0 6.004,-2 m 0,0 5,-1.992 m 0,0 6,-2.004 m 0,0 6,-2 m 0,0 5,-0.996 m 0,0 6.004,-2.004 m 0,0 5.992,-1.004 m 0,0 5,-0.996 m 0,0 6.004,-0.996 m 0,0 6,-1.008 m 0,0 h 5 m 0,0 6,-0.996 m 0,0 h 6.004 m 0,0 h 5 m 0,0 h 5.992 m 0,0 H 1004 m 0,0 5,0.996 m 0,0 h 6 m 0,0 6,1.008 m 0,0 5,0.996 m 0,0 6,0.996 m 0,0 6,1.004 m 0,0 5,2.004 m 0,0 6,0.996 m 0,0 6,2 m 0,0 5,2.004 m 0,0 6,1.992 m 0,0 6,2 m 0,0 5,2.004 m 0,0 6,2.996 m 0,0 6,3 m 0,0 5,2 m 0,0 6,3 m 0,0 6,3.008 m 0,0 5,3.992 m 0,0 6,3 m 0,0 6,3.008 m 0,0 5,3.992 m 0,0 6,4.004 m 0,0 6,3.996 m 0,0 5,4.004 m 0,0 6,4.004 m 0,0 6,3.992 m 0,0 5,4.004 m 0,0 6,3.996 m 0,0 6,5 m 0,0 5,4.004 m 0,0 6,5 m 0,0 6,5 m 0,0 5,5 m 0,0 6,4.004 m 0,0 6,5 m 0,0 5,5 m 0,0 6,5 m 0,0 6,5.996 m 0,0 5,5 m 0,0 6,5 m 0,0 6,5 m 0,0 5,5 m 0,0 6,5.996 m 0,0 6,5 m 0,0 5,5 m 0,0 6,6.004 m 0,0 6,5"
       style="fill:none;stroke:#231f20;stroke-width:14;stroke-linecap:round;stroke-linejoin:round;stroke-miterlimit:10;stroke-dasharray:none;stroke-opacity:1"
       transform="matrix(0.03527778,0,0,-0.03527778,10.243883,182.11256)"
       clip-path="url(#clipPath2)" />
    <path
       id="path3"
       d="m 1418,565.797 5,63 m 0,0 6,60 m 0,0 6,52 m 0,0 5,40 m 0,0 6,28 m 0,0 6,12 m 0,0 5,-4.004 m 0,0 6,-20 m 0,0 6,-34.004 m 0,0 5,-46.992 m 0,0 6,-56.004 m 0,0 6,-62.004 m 0,0 5,-63.992 m 0,0 6,-62.004 m 0,0 6,-55.996 m 0,0 5,-47 m 0,0 6,-34.004 m 0,0 6,-20 m 0,0 5,-3.996 m 0,0 6,12.004 m 0,0 6,27.996 m 0,0 5,40 m 0,0 6,52.004 m 0,0 6,60 m 0,0 5,62.996 m 0,0 6,63 m 0,0 6,60 m 0,0 5,52 m 0,0 6,40 m 0,0 6,28 m 0,0 5,12 m 0,0 6,-4.004 m 0,0 6,-20 m 0,0 5,-34.004 m 0,0 6,-46.992 m 0,0 6,-56.004 m 0,0 5,-62.004 m 0,0 6,-63.992 m 0,0 6,-62.004 m 0,0 5,-55.996 m 0,0 6,-47 m 0,0 6,-34.004 m 0,0 5,-20 m 0,0 6,-3.996 m 0,0 6,12.004 m 0,0 5,27.996 m 0,0 6,40 m 0,0 6,52.004 m 0,0 5,60 m 0,0 6,62.996 m 0,0 6,63 m 0,0 5,60 m 0,0 6,52 m 0,0 6,40 m 0,0 5,28 m 0,0 6,12 m 0,0 6,-4.004 m 0,0 5,-20 m 0,0 6,-34.004 m 0,0 6,-46.992 m 0,0 5,-56.004 m 0,0 6,-62.004 m 0,0 6,-63.992 m 0,0 5,-62.004 m 0,0 6,-55.996 m 0,0 6,-47 m 0,0 5,-34.004 m 0,0 6,-20 m 0,0 6,-3.996 m 0,0 5,12.004 m 0,0 6,27.996 m 0,0 6,40 m 0,0 5,52.004 m 0,0 6,60 m 0,0 6,62.996 m 0,0 5,63 m 0,0 6,60 m 0,0 6,52 m 0,0 5,40 m 0,0 6,28 m 0,0 6,12 m 0,0 5,-4.004 m 0,0 6,-20 m 0,0 6,-34.004 m 0,0 5,-46.992 m 0,0 6,-56.004 m 0,0 6,-62.004 m 0,0 5,-63.992 m 0,0 6,-62.004 m 0,0 6,-55.996 m 0,0 5,-47 m 0,0 6,-34.004 m 0,0 6,-20 m 0,0 5,-3.996 m 0,0 6,12.004 m 0,0 6,27.996 m 0,0 5,40 m 0,0 6,52.004 m 0,0 6,60 m 0,0 6,62.996 m 0,0 5,63 m 0,0 6,60 m 0,0 6,52 m 0,0 5,40 m 0,0 6,28 m 0,0 6,12 m 0,0 5,-4.004 m 0,0 6,-20 m 0,0 6,-34.004 m 0,0 5,-46.992 m 0,0 6,-56.004 m 0,0 6,-62.004 m 0,0 5,-63.992 m 0,0 6,-62.004 m 0,0 6,-55.996 m 0,0 5,-47 m 0,0 6,-34.004 m 0,0 6,-20 m 0,0 5,-3.996 m 0,0 6,12.004 m 0,0 6,27.996 m 0,0 5,40 m 0,0 6,52.004 m 0,0 6,60 m 0,0 5,62.996 m 0,0 6,63 m 0,0 6,60 m 0,0 5,52 m 0,0 6,40 m 0,0 6,28 m 0,0 5,12 m 0,0 6,-4.004 m 0,0 6,-20 m 0,0 5,-34.004 m 0,0 6,-46.992 m 0,0 6,-56.004 m 0,0 5,-62.004 m 0,0 6,-63.992 m 0,0 6,-62.004 m 0,0 5,-55.996 m 0,0 6,-47 m 0,0 6,-34.004 m 0,0 5,-20 m 0,0 6,-3.996 m 0,0 6,12.004 m 0,0 5,27.996 m 0,0 6,40 m 0,0 6,52.004 m 0,0 5,60 m 0,0 6,62.996 m 0,0 6,63 m 0,0 5,60 m 0,0 6,52 m 0,0 6,40 m 0,0 5,28 m 0,0 6,12 m 0,0 6,-4.004 m 0,0 5,-20 m 0,0 6,-34.004 m 0,0 6,-46.992 m 0,0 5,-56.004 m 0,0 6,-62.004 m 0,0 6,-63.992 m 0,0 5,-62.004 m 0,0 6,-55.996 m 0,0 6,-47 m 0,0 5,-34.004 m 0,0 6,-20 m 0,0 6,-3.996 m 0,0 5,12.004 m 0,0 6,27.996 m 0,0 6,40 m 0,0 5,52.004 m 0,0 6,60 m 0,0 6,62.996 m 0,0 5,63 m 0,0 6,60 m 0,0 6,52 m 0,0 5,40 m 0,0 6,28 m 0,0 6,12 m 0,0 5,-4.004 m 0,0 6,-20 m 0,0 6,-34.004 m 0,0 5,-46.992 m 0,0 6,-56.004 m 0,0 6,-62.004 m 0,0 5,-63.992 m 0,0 6,-62.004 m 0,0 6,-55.996 m 0,0 5,-47 m 0,0 6,-34.004 m 0,0 6,-20 m 0,0 5,-3.996 m 0,0 6,12.004 m 0,0 6,27.996 m 0,0 5,40 m 0,0 6,52.004 m 0,0 6,60 m 0,0 6,62.996"
       style="fill:none;stroke:#231f20;stroke-width:14;stroke-linecap:round;stroke-linejoin:round;stroke-miterlimit:10;stroke-dasharray:none;stroke-opacity:1"
       transform="matrix(0.03527778,0,0,-0.03527778,10.243883,182.11256)"
       clip-path="url(#clipPath4)" />
    <path
       id="path5"
       d="m 2693,565.797 9,140.996 m 0,0 8,120.996 m 0,0 9,83.008 m 0,0 8,35 m 0,0 9,-19.004 m 0,0 8,-70 m 0,0 9,-110 m 0,0 8,-134.004 m 0,0 9,-138.992 m 0,0 8,-125 m 0,0 9,-92.004 m 0,0 8,-47 m 0,0 9,3.008 m 0,0 8,51.992 m 0,0 9,94.004 m 0,0 8,120 m 0,0 9,130 m 0,0 8,120.996 m 0,0 9,94.004 m 0,0 8,55.996 m 0,0 9,11.004 m 0,0 8,-35 m 0,0 9,-74.004 m 0,0 8,-102 m 0,0 9,-113.996 m 0,0 8,-110 m 0,0 9,-90 m 0,0 8,-60 m 0,0 9,-20 m 0,0 8,18 m 0,0 9,55 m 0,0 8,80 m 0,0 9,95 m 0,0 8,93.992 m 0,0 9,82.004 m 0,0 8,57.996 m 0,0 9,27.004 m 0,0 8,-5.996 m 0,0 9,-36.008 m 0,0 8,-60 m 0,0 9,-75 m 0,0 8,-77.996 m 0,0 9,-70 m 0,0 8,-53 m 0,0 9,-30 m 0,0 8,-3.992 m 0,0 9,20.996 m 0,0 8,42.996 m 0,0 9,57.004 m 0,0 9,62 m 0,0 8,58.996 m 0,0 9,47.996 m 0,0 8,32.004 m 0,0 9,10 m 0,0 8,-10 m 0,0 9,-28.996 m 0,0 8,-42 m 0,0 9,-51.008 m 0,0 8,-50.996 m 0,0 9,-45 m 0,0 8,-32.996 m 0,0 9,-15.996 m 0,0 8,0.996 m 0,0 9,17.996 m 0,0 8,34.004 m 0,0 9,43 m 0,0 8,47.996 m 0,0 9,45.996 m 0,0 8,37.004 m 0,0 9,24.004 m 0,0 8,7 m 0,0 9,-11.004 m 0,0 8,-28 m 0,0 9,-40.996 m 0,0 8,-50 m 0,0 9,-51.004 m 0,0 8,-45.996 m 0,0 9,-35 m 0,0 8,-15.996 m 0,0 9,2.996 m 0,0 8,25 m 0,0 9,43 m 0,0 8,57 m 0,0 9,61.992 m 0,0 8,59.004 m 0,0 9,48 m 0,0 8,30 m 0,0 9,4.004 m 0,0 8,-21.008 m 0,0 9,-45.996 m 0,0 8,-65.996 m 0,0 9,-76.004 m 0,0 8,-76.992 m 0,0 9,-66.008 m 0,0 8,-45 m 0,0 9,-17 m 0,0 8,16.004 m 0,0 9,48.996 m 0,0 8,74.004 m 0,0 9,92 m 0,0 8,95.996 m 0,0 9,87.004 m 0,0 8,63.992 m 0,0 9,32.004 m 0,0 8,-8 m 0,0 9,-47 m 0,0 8,-80.996 m 0,0 9,-105 m 0,0 8,-115 m 0,0 9,-107.004 m 0,0 8,-85 m 0,0 9,-48.992 m 0,0 8,-5 m 0,0 9,41.992 m 0,0 8,82 m 0,0 9,114.004 m 0,0 8,128 m 0,0 9,125.996 m 0,0 8,104.004 m 0,0 9,67.996 m 0,0 8,20 m 0,0 9,-30.996 m 0,0 8,-78.008 m 0,0 9,-115.996 m 0,0 8,-135.996 m 0,0 9,-137.996 m 0,0 8,-120 m 0,0 9,-85 m 0,0 8,-36.008 m 0,0 9,17.004 m 0,0 8,67.996 m 0,0 9,110 m 0,0 8,136.008 m 0,0 9,142.996 m 0,0 8,130 m 0,0 9,96.992 m 0,0 8,52.004 m 0,0 9,-0.996 m 0,0 8,-54.004 m 0,0 9,-98 m 0,0 8,-127.996 m 0,0 9,-140 m 0,0 8,-130.996 m 0,0 9,-105 m 0,0 8,-63.008 m 0,0 9,-13.996 m 0,0 8,37.004 m 0,0 9,80.996 m 0,0 8,112.996 m 0,0 9,129.004 m 0,0 9,125.996 m 0,0 8,104.004 m 0,0 9,70 m 0,0 8,25.996 m 0,0 9,-20 m 0,0 8,-62 m 0,0 9,-93.996 m 0,0 8,-112 m 0,0 9,-113 m 0,0 8,-97.996 m 0,0 9,-71.008 m 0,0 8,-33.992 m 0,0 9,5.996 m 0,0 8,42.996 m 0,0 9,73 m 0,0 8,92 m 0,0 9,95.996 m 0,0 8,87.004 m 0,0 9,67 m 0,0 8,38 m 0,0 9,5 m 0,0 8,-27.004 m 0,0 9,-52.996 m 0,0 8,-70.996 m 0,0 9,-78 m 0,0 8,-74.004 m 0,0 9,-60 m 0,0 8,-37.996 m 0,0 9,-13 m 0,0 8,13.996 m 0,0 9,36.004 m 0,0 8,53 m 0,0 9,60.996 m 0,0 8,61.004 m 0,0 9,53 m 0,0 8,37 m 0,0 9,18 m 0,0 8,-3 m 0,0 9,-23.008 m 0,0 8,-38.992 m 0,0 9,-48 m 0,0 8,-52 m 0,0 9,-48 m 0,0 8,-37 m 0,0 9,-23 m 0,0 8,-5 m 0,0 9,13 m 0,0 8,29.004 m 0,0 9,40.996 m 0,0 8,47"
       style="fill:none;stroke:#231f20;stroke-width:14;stroke-linecap:round;stroke-linejoin:round;stroke-miterlimit:10;stroke-dasharray:none;stroke-opacity:1"
       transform="matrix(0.03527778,0,0,-0.03527778,10.243883,182.11256)"
       clip-path="url(#clipPath6)" />
    <path
       id="path7"
       d="M 142.004,576.793 H 4403 m -4150.996,168 H 281 m 28,0 h 28.004 m 28.996,0 h 28 m 28.004,0 H 451 m 28,0 h 28.004 m 28.996,0 h 28 m 28.996,0 H 621 m 28,0 h 28.996 m 28.004,0 h 28 m 28.996,0 H 791 m 28,0 h 28.996 m 28.004,0 h 28 m 28.996,0 H 961 m -62,-168 v 95"
       style="fill:none;stroke:#231f20;stroke-width:14;stroke-linecap:round;stroke-linejoin:round;stroke-miterlimit:10;stroke-dasharray:none;stroke-opacity:1"
       transform="matrix(0.03527778,0,0,-0.03527778,10.243883,182.11256)"
       clip-path="url(#clipPath8)" />
    <path
       id="path9"
       d="m 899,727.789 13.996,-55.996 H 885 l 14,55.996"
       style="fill:#231f20;fill-opacity:1;fill-rule:evenodd;stroke:none"
       transform="matrix(0.03527778,0,0,-0.03527778,10.243883,182.11256)"
       clip-path="url(#clipPath10)" />
    <path
       id="path11"
       d="m 899,727.789 13.996,-55.996 m 0,0 H 885 m 0,0 14,55.996"
       style="fill:none;stroke:#231f20;stroke-width:2;stroke-linecap:round;stroke-linejoin:round;stroke-miterlimit:10;stroke-dasharray:none;stroke-opacity:1"
       transform="matrix(0.03527778,0,0,-0.03527778,10.243883,182.11256)"
       clip-path="url(#clipPath12)" />
    <path
       id="path13"
       d="m 1256,824.793 h 28 m 29,0 h 28 m 28,0 h 29 m 28,0 h 28 m 29,0 h 28 m 28,0 h 29 m 28,0 h 28 m 29,0 h 28 m -340,-240 v 167"
       style="fill:none;stroke:#231f20;stroke-width:14;stroke-linecap:round;stroke-linejoin:round;stroke-miterlimit:10;stroke-dasharray:none;stroke-opacity:1"
       transform="matrix(0.03527778,0,0,-0.03527778,10.243883,182.11256)"
       clip-path="url(#clipPath14)" />
    <path
       id="path15"
       d="m 1341,807.789 14,-55.996 h -28 l 14,55.996"
       style="fill:#231f20;fill-opacity:1;fill-rule:evenodd;stroke:none"
       transform="matrix(0.03527778,0,0,-0.03527778,10.243883,182.11256)"
       clip-path="url(#clipPath16)" />
    <path
       id="path17"
       d="m 1341,807.789 14,-55.996 m 0,0 h -28 m 0,0 14,55.996"
       style="fill:none;stroke:#231f20;stroke-width:2;stroke-linecap:round;stroke-linejoin:round;stroke-miterlimit:10;stroke-dasharray:none;stroke-opacity:1"
       transform="matrix(0.03527778,0,0,-0.03527778,10.243883,182.11256)"
       clip-path="url(#clipPath18)" />
    <path
       id="path19"
       d="m 2549,943.797 h 28 m 28,0 h 29 m 28,0 h 28 m 29,0 h 28 m 28,0 h 29 m 28,0 h 29 m 28,0 h 28 m 29,0 h 28 m 28,0 h 29 m 28,0 h 28 m 29,0 h 28 m 28,0 h 29 m 28,0 h 28 m 29,0 h 28 m -98,-359.004 v 294.004"
       style="fill:none;stroke:#231f20;stroke-width:14;stroke-linecap:round;stroke-linejoin:round;stroke-miterlimit:10;stroke-dasharray:none;stroke-opacity:1"
       transform="matrix(0.03527778,0,0,-0.03527778,10.243883,182.11256)"
       clip-path="url(#clipPath20)" />
    <path
       id="path21"
       d="m 3216,935.797 14,-57 h -28 l 14,57"
       style="fill:#231f20;fill-opacity:1;fill-rule:evenodd;stroke:none"
       transform="matrix(0.03527778,0,0,-0.03527778,10.243883,182.11256)"
       clip-path="url(#clipPath22)" />
    <path
       id="path23"
       d="m 3216,935.797 14,-57 m 0,0 h -28 m 0,0 14,57"
       style="fill:none;stroke:#231f20;stroke-width:2;stroke-linecap:round;stroke-linejoin:round;stroke-miterlimit:10;stroke-dasharray:none;stroke-opacity:1"
       transform="matrix(0.03527778,0,0,-0.03527778,10.243883,182.11256)"
       clip-path="url(#clipPath24)" />
    <path
       id="path25"
       d="m 3195,704.793 h 28 m 29,0 h 28 m 28,0 h 29 m 28,0 h 28 m 29,0 h 28 m 29,0 h 28 m 28,0 h 29 m 28,0 h 28 m 29,0 h 28 m 28,0 h 29 m 28,0 h 28 m 29,0 h 28 m 28,0 h 29 m 28,0 h 28 m 29,0 h 28 m 29,0 h 28 m 28,0 h 29 m 28,0 h 28 m 29,0 h 28 m 28,0 h 29 m 28,0 h 28 m 29,0 h 28 m -50,-128 v 70.996"
       style="fill:none;stroke:#231f20;stroke-width:14;stroke-linecap:round;stroke-linejoin:round;stroke-miterlimit:10;stroke-dasharray:none;stroke-opacity:1"
       transform="matrix(0.03527778,0,0,-0.03527778,10.243883,182.11256)"
       clip-path="url(#clipPath26)" />
    <path
       id="path27"
       d="m 4364,704.793 15,-57.004 h -29 l 14,57.004"
       style="fill:#231f20;fill-opacity:1;fill-rule:evenodd;stroke:none"
       transform="matrix(0.03527778,0,0,-0.03527778,10.243883,182.11256)"
       clip-path="url(#clipPath28)" />
    <path
       id="path29"
       d="m 4364,704.793 15,-57.004 m 0,0 h -29 m 0,0 14,57.004"
       style="fill:none;stroke:#231f20;stroke-width:2;stroke-linecap:round;stroke-linejoin:round;stroke-miterlimit:10;stroke-dasharray:none;stroke-opacity:1"
       transform="matrix(0.03527778,0,0,-0.03527778,10.243883,182.11256)"
       clip-path="url(#clipPath30)" />
    <g
       id="g30"
       aria-label="V&#10;s&#10;V&#10;c&#10;V&#10;c&#10;(1 + m&#10;a&#10;)&#10;V&#10;c&#10;(1 – m&#10;a&#10;)&#10;t&#10;(a)(b)"
       transform="matrix(0.35277776,0,0,0.35277776,43.581383,159.78917)"
       clip-path="url(#clipPath56)">
      <path
         id="path31"
         d="M 4.8984375,-4.5814516 H 3.5742188 v 0.1757813 c 0.082031,0 0.1523437,0.011719 0.1757812,0.011719 0.1875,0.023437 0.2695312,0.082031 0.2695312,0.2109375 0,0.1523438 -0.1289062,0.4570313 -0.3984374,0.8671875 L 2.3203125,-1.2416078 1.96875,-3.9837953 c 0,-0.046875 0,-0.070312 0,-0.1171875 0,-0.234375 0.058594,-0.2695313 0.515625,-0.3046875 V -4.5814516 H 0.4453125 v 0.1757813 c 0.421875,0 0.46875,0.070312 0.6210937,1.0429687 l 0.515625,3.49218754 H 1.8046875 L 4.4882812,-4.1361391 c 0.09375,-0.1289062 0.2109375,-0.2109375 0.4101563,-0.2695312 z m 0,0"
         style="fill:#231f20;fill-opacity:1;fill-rule:nonzero;stroke:none" />
      <path
         id="path32"
         d="M 6.1113281,-0.41250625 6.0996094,-1.0687562 h -0.058594 l -0.011719,0.011719 c -0.046875,0.035156 -0.046875,0.046875 -0.070312,0.046875 -0.023437,0 -0.070312,-0.011719 -0.1289063,-0.035156 -0.1054687,-0.046875 -0.2109375,-0.058594 -0.328125,-0.058594 -0.3867187,0 -0.65625,0.24609375 -0.65625,0.5859375 0,0.26953125 0.1523438,0.46875 0.5625,0.69140625 l 0.28125,0.1640625 c 0.1640625,0.09375 0.2460938,0.2109375 0.2460938,0.36328125 0,0.2109375 -0.1523438,0.3398438 -0.3984375,0.3398438 -0.1640625,0 -0.3164063,-0.0585938 -0.3984375,-0.16406255 C 5.0332031,0.74765 4.9863281,0.64218125 4.9277344,0.37265 h -0.082031 v 0.75 h 0.070312 c 0.035156,-0.046875 0.046875,-0.058594 0.1054688,-0.058594 0.046875,0 0.1171875,0.011719 0.2226562,0.035156 0.1289063,0.023437 0.2578125,0.046875 0.3515625,0.046875 0.3632813,0 0.6796875,-0.28125 0.6796875,-0.609375 0,-0.24609375 -0.1171875,-0.3984375 -0.4101562,-0.57421875 l -0.515625,-0.3046875 c -0.140625,-0.0820313 -0.2109375,-0.19921875 -0.2109375,-0.328125 0,-0.19921875 0.1523437,-0.328125 0.375,-0.328125 0.2695312,0 0.421875,0.1640625 0.5273437,0.5859375 z m 0,0"
         style="fill:#231f20;fill-opacity:1;fill-rule:nonzero;stroke:none" />
      <path
         id="path33"
         d="M 34.699219,-6.0814516 H 33.375 v 0.1757813 c 0.08203,0 0.152344,0.011719 0.175781,0.011719 0.1875,0.023437 0.269531,0.082031 0.269531,0.2109375 0,0.1523438 -0.128906,0.4570313 -0.398437,0.8671875 l -1.300781,2.0742188 -0.351563,-2.7421875 c 0,-0.046875 0,-0.070312 0,-0.1171875 0,-0.234375 0.05859,-0.2695313 0.515625,-0.3046875 V -6.0814513 H 30.246094 V -5.90567 c 0.421875,0 0.46875,0.070312 0.621093,1.0429687 l 0.515625,3.4921875 h 0.222657 l 2.683593,-4.265625 C 34.382812,-5.7650453 34.5,-5.8470766 34.699219,-5.9056703 Z m 0,0"
         style="fill:#231f20;fill-opacity:1;fill-rule:nonzero;stroke:none" />
      <path
         id="path34"
         d="m 36.210937,-1.1507875 c -0.222656,0.33984375 -0.398437,0.45703125 -0.679687,0.45703125 -0.433594,0 -0.738281,-0.38671875 -0.738281,-0.93749995 0,-0.5039063 0.257812,-0.84375 0.65625,-0.84375 0.164062,0 0.234375,0.058594 0.28125,0.234375 l 0.02344,0.1054687 c 0.04687,0.1289063 0.128906,0.2226563 0.234375,0.2226563 0.117188,0 0.222656,-0.09375 0.222656,-0.1992188 0,-0.2695312 -0.339843,-0.5039062 -0.738281,-0.5039062 -0.234375,0 -0.480469,0.1054687 -0.679687,0.2695312 -0.234375,0.2109375 -0.375,0.5390625 -0.375,0.9257813 0,0.6210937 0.386718,1.0664062 0.914062,1.0664062 0.222656,0 0.410156,-0.0703125 0.585938,-0.22265625 0.128906,-0.1171875 0.222656,-0.24609375 0.363281,-0.52734375 z m 0,0"
         style="fill:#231f20;fill-opacity:1;fill-rule:nonzero;stroke:none" />
      <path
         id="path35"
         d="m 223.09863,-43.683991 h -1.32422 v 0.175782 c 0.082,0 0.15235,0.01172 0.17579,0.01172 0.1875,0.02344 0.26953,0.08203 0.26953,0.210938 0,0.152344 -0.12891,0.457031 -0.39844,0.867187 l -1.30078,2.074219 -0.35156,-2.742187 c 0,-0.04687 0,-0.07031 0,-0.117188 0,-0.234375 0.0586,-0.269531 0.51562,-0.304687 v -0.175782 h -2.03906 v 0.175782 c 0.42187,0 0.46875,0.07031 0.62109,1.042968 l 0.51563,3.492188 h 0.22265 l 2.6836,-4.265625 c 0.0937,-0.128906 0.21093,-0.210938 0.41015,-0.269531 z m 0,0"
         style="fill:#231f20;fill-opacity:1;fill-rule:nonzero;stroke:none" />
      <path
         id="path36"
         d="m 224.61035,-38.650787 c -0.22265,0.339843 -0.39844,0.457031 -0.67969,0.457031 -0.43359,0 -0.73828,-0.386719 -0.73828,-0.9375 0,-0.503906 0.25782,-0.84375 0.65625,-0.84375 0.16407,0 0.23438,0.05859 0.28125,0.234375 l 0.0234,0.105469 c 0.0469,0.128906 0.12891,0.222656 0.23438,0.222656 0.11718,0 0.22265,-0.09375 0.22265,-0.199219 0,-0.269531 -0.33984,-0.503906 -0.73828,-0.503906 -0.23437,0 -0.48047,0.105469 -0.67969,0.269531 -0.23437,0.210938 -0.375,0.539063 -0.375,0.925781 0,0.621094 0.38672,1.066407 0.91407,1.066407 0.22265,0 0.41015,-0.07031 0.58593,-0.222657 0.12891,-0.117187 0.22266,-0.246093 0.36328,-0.527343 z m 0,0"
         style="fill:#231f20;fill-opacity:1;fill-rule:nonzero;stroke:none" />
      <path
         id="path37"
         d="m 226.89844,-43.848053 c -0.4336,0.222656 -0.6211,0.363281 -0.89063,0.644531 -0.57422,0.632813 -0.89062,1.441406 -0.89062,2.332031 0,0.621094 0.16406,1.230469 0.49218,1.746094 0.31641,0.492188 0.60938,0.773438 1.28907,1.171875 v -0.1875 c -0.39844,-0.246094 -0.5625,-0.421875 -0.70313,-0.738281 -0.21094,-0.421875 -0.30469,-1.054688 -0.30469,-1.992188 0,-0.9375 0.0937,-1.628906 0.28125,-2.039062 0.15235,-0.304688 0.31641,-0.480469 0.72657,-0.761719 z m 2.36718,0.03516 -1.72265,0.75 v 0.175781 c 0.0586,-0.02344 0.11719,-0.03516 0.14062,-0.05859 0.17578,-0.05859 0.35157,-0.117188 0.44532,-0.117188 0.16406,0 0.24609,0.152344 0.24609,0.480469 v 2.636719 c 0,0.550781 -0.14063,0.667968 -0.82031,0.679687 v 0.164063 h 2.5664 v -0.164063 c -0.62109,-0.01172 -0.73828,-0.117187 -0.73828,-0.644531 v -3.902344 z m 0,0"
         style="fill:#231f20;fill-opacity:1;fill-rule:nonzero;stroke:none" />
      <path
         id="path38"
         d="m 235.45312,-41.129303 h -1.42968 v 0.597656 h 1.42968 v 1.429688 h 0.59766 v -1.429688 h 1.42969 v -0.597656 h -1.42969 v -1.441406 h -0.59766 z m 0,0"
         style="fill:#231f20;fill-opacity:1;fill-rule:nonzero;stroke:none" />
      <path
         id="path39"
         d=""
         style="fill:#231f20;fill-opacity:1;fill-rule:nonzero;stroke:none" />
      <path
         id="path40"
         d="m 241.2334,-41.891022 h 0.0586 c 0.21094,0 0.30469,0.05859 0.30469,0.175781 0,0.105469 -0.0469,0.339844 -0.23438,0.984375 l -0.45703,1.628907 h 0.82032 c 0.36328,-1.300782 0.63281,-1.886719 1.00781,-2.34375 0.15234,-0.175782 0.35156,-0.316407 0.44531,-0.316407 0.0703,0 0.12891,0.07031 0.12891,0.152344 0,0.105469 -0.082,0.398438 -0.30469,1.089844 -0.11719,0.351562 -0.21094,0.644531 -0.44531,1.417969 h 0.82031 c 0.39844,-1.3125 0.44531,-1.441407 0.69141,-1.863282 0.28125,-0.515625 0.5625,-0.796875 0.76171,-0.796875 0.082,0 0.15235,0.07031 0.15235,0.140625 0,0.04687 -0.0117,0.117188 -0.0469,0.210938 l -0.30468,0.890625 c -0.15235,0.433594 -0.2461,0.855469 -0.2461,1.042969 0,0.28125 0.16406,0.433593 0.45703,0.433593 0.42188,0 0.70313,-0.222656 1.10157,-0.890625 l -0.15235,-0.09375 c -0.0351,0.05859 -0.0703,0.105469 -0.082,0.128907 -0.16406,0.246093 -0.30469,0.398437 -0.38672,0.398437 -0.0703,0 -0.11719,-0.05859 -0.11719,-0.105469 0,-0.07031 0,-0.07031 0.14063,-0.527343 l 0.31641,-0.914063 c 0.0937,-0.292969 0.15234,-0.550781 0.15234,-0.726562 0,-0.28125 -0.22266,-0.492188 -0.52734,-0.492188 -0.46875,0 -0.77344,0.28125 -1.34766,1.183594 0.12891,-0.351563 0.17578,-0.527344 0.17578,-0.714844 0,-0.292969 -0.17578,-0.46875 -0.45703,-0.46875 -0.19922,0 -0.39844,0.08203 -0.59766,0.234375 -0.24609,0.1875 -0.45703,0.457031 -0.90234,1.136719 l 0.44531,-1.359375 c -0.44531,0.105469 -0.58594,0.117187 -1.37109,0.1875 z m 0,0"
         style="fill:#231f20;fill-opacity:1;fill-rule:nonzero;stroke:none" />
      <path
         id="path41"
         d="m 248.52246,-38.217194 c -0.082,0.07031 -0.14062,0.09375 -0.21094,0.09375 -0.10547,0 -0.14062,-0.07031 -0.14062,-0.28125 v -0.9375 c 0,-0.246093 -0.0234,-0.386718 -0.0937,-0.503906 -0.10547,-0.175781 -0.31641,-0.269531 -0.59766,-0.269531 -0.45703,0 -0.80859,0.234375 -0.80859,0.539062 0,0.117188 0.0937,0.210938 0.21094,0.210938 0.10546,0 0.21093,-0.09375 0.21093,-0.199219 0,-0.02344 0,-0.04687 -0.0117,-0.08203 -0.0117,-0.04687 -0.0117,-0.08203 -0.0117,-0.117188 0,-0.128906 0.15234,-0.234375 0.35156,-0.234375 0.23437,0 0.36328,0.140625 0.36328,0.398438 v 0.292969 c -0.73828,0.304687 -0.82031,0.339843 -1.03125,0.527343 -0.10547,0.09375 -0.17578,0.257813 -0.17578,0.410157 0,0.304687 0.21094,0.515625 0.5039,0.515625 0.21094,0 0.41016,-0.105469 0.70313,-0.351563 0.0234,0.246094 0.11719,0.351563 0.30469,0.351563 0.16406,0 0.26953,-0.05859 0.43359,-0.234375 z m -0.73828,-0.269531 c 0,0.140625 -0.0234,0.1875 -0.12891,0.246094 -0.11718,0.07031 -0.24609,0.105469 -0.35156,0.105469 -0.16406,0 -0.30469,-0.164063 -0.30469,-0.363282 v -0.02344 c 0,-0.28125 0.19922,-0.457031 0.78516,-0.667969 z m 0,0"
         style="fill:#231f20;fill-opacity:1;fill-rule:nonzero;stroke:none" />
      <path
         id="path42"
         d="m 248.68652,-37.953522 c 0.42188,-0.222656 0.60938,-0.363281 0.87891,-0.644531 0.58594,-0.632813 0.90234,-1.453125 0.90234,-2.320313 0,-0.632812 -0.17578,-1.242187 -0.5039,-1.757812 -0.31641,-0.492188 -0.60938,-0.773438 -1.27735,-1.171875 v 0.1875 c 0.38672,0.257812 0.5625,0.421875 0.70313,0.738281 0.19922,0.421875 0.30469,1.054688 0.30469,1.980469 0,0.949219 -0.10547,1.640625 -0.29297,2.050781 -0.14063,0.304688 -0.30469,0.480469 -0.71485,0.75 z m 0,0"
         style="fill:#231f20;fill-opacity:1;fill-rule:nonzero;stroke:none" />
      <path
         id="path43"
         d="m 320.89746,-28.481842 h -1.32422 v 0.175781 c 0.082,0 0.15235,0.01172 0.17578,0.01172 0.1875,0.02344 0.26953,0.08203 0.26953,0.210937 0,0.152344 -0.1289,0.457032 -0.39843,0.867188 l -1.30078,2.074219 -0.35157,-2.742188 c 0,-0.04687 0,-0.07031 0,-0.117187 0,-0.234375 0.0586,-0.269532 0.51563,-0.304688 v -0.175781 h -2.03906 v 0.175781 c 0.42187,0 0.46875,0.07031 0.62109,1.042969 l 0.51562,3.492187 h 0.22266 l 2.68359,-4.265625 c 0.0937,-0.128906 0.21094,-0.210937 0.41016,-0.269531 z m 0,0"
         style="fill:#231f20;fill-opacity:1;fill-rule:nonzero;stroke:none" />
      <path
         id="path44"
         d="m 322.02246,-23.480866 c -0.22266,0.328125 -0.375,0.433594 -0.58594,0.433594 -0.19922,0 -0.35156,-0.175781 -0.35156,-0.433594 0,-0.292968 0.12891,-0.726562 0.30469,-1.042968 0.1289,-0.222657 0.26953,-0.339844 0.41015,-0.339844 0.0586,0 0.10547,0.03516 0.10547,0.08203 0,0.02344 -0.0117,0.04687 -0.0351,0.09375 -0.0469,0.07031 -0.0586,0.128906 -0.0586,0.1875 0,0.140625 0.11719,0.246094 0.26953,0.246094 0.17579,0 0.30469,-0.140625 0.30469,-0.339844 0,-0.246094 -0.22265,-0.421875 -0.53906,-0.421875 -0.67969,0 -1.37109,0.785156 -1.37109,1.546875 0,0.433594 0.30468,0.726563 0.73828,0.726563 0.21093,0 0.41015,-0.07031 0.57422,-0.210938 0.1289,-0.105469 0.21093,-0.199219 0.375,-0.433594 z m 0,0"
         style="fill:#231f20;fill-opacity:1;fill-rule:nonzero;stroke:none" />
      <path
         id="path45"
         d="m 324.69727,-28.645905 c -0.4336,0.222657 -0.6211,0.363282 -0.89063,0.644532 -0.57422,0.632812 -0.89062,1.441406 -0.89062,2.332031 0,0.621094 0.16406,1.230469 0.49218,1.746094 0.31641,0.492187 0.60938,0.773437 1.28907,1.171875 v -0.1875 c -0.39844,-0.246094 -0.5625,-0.421875 -0.70313,-0.738282 -0.21094,-0.421875 -0.30469,-1.054687 -0.30469,-1.992187 0,-0.9375 0.0937,-1.628906 0.28125,-2.039063 0.15235,-0.304687 0.31641,-0.480468 0.72657,-0.761718 z m 2.37011,0.03516 -1.72265,0.75 v 0.175781 c 0.0586,-0.02344 0.11718,-0.03516 0.14062,-0.05859 0.17578,-0.05859 0.35156,-0.117187 0.44531,-0.117187 0.16407,0 0.2461,0.152343 0.2461,0.480468 v 2.636719 c 0,0.550781 -0.14063,0.667969 -0.82031,0.679688 v 0.164062 h 2.5664 v -0.164062 c -0.62109,-0.01172 -0.73828,-0.117188 -0.73828,-0.644532 v -3.902343 z m 0,0"
         style="fill:#231f20;fill-opacity:1;fill-rule:nonzero;stroke:none" />
      <path
         id="path46"
         d="m 331.59961,-25.751373 v 0.609375 h 3.42187 v -0.609375 z m 0,0"
         style="fill:#231f20;fill-opacity:1;fill-rule:nonzero;stroke:none" />
      <path
         id="path47"
         d=""
         style="fill:#231f20;fill-opacity:1;fill-rule:nonzero;stroke:none" />
      <path
         id="path48"
         d="m 339.03516,-26.688873 h 0.0586 c 0.21094,0 0.30469,0.05859 0.30469,0.175781 0,0.105469 -0.0469,0.339844 -0.23438,0.984375 l -0.45703,1.628906 h 0.82031 c 0.36328,-1.300781 0.63282,-1.886719 1.00782,-2.34375 0.15234,-0.175781 0.35156,-0.316406 0.44531,-0.316406 0.0703,0 0.1289,0.07031 0.1289,0.152344 0,0.105468 -0.082,0.398437 -0.30468,1.089843 -0.11719,0.351563 -0.21094,0.644532 -0.44532,1.417969 h 0.82032 c 0.39843,-1.3125 0.44531,-1.441406 0.6914,-1.863281 0.28125,-0.515625 0.5625,-0.796875 0.76172,-0.796875 0.082,0 0.15235,0.07031 0.15235,0.140625 0,0.04687 -0.0117,0.117187 -0.0469,0.210937 l -0.30469,0.890625 c -0.15234,0.433594 -0.24609,0.855469 -0.24609,1.042969 0,0.28125 0.16406,0.433594 0.45703,0.433594 0.42188,0 0.70313,-0.222656 1.10156,-0.890625 l -0.15234,-0.09375 c -0.0352,0.05859 -0.0703,0.105469 -0.082,0.128906 -0.16406,0.246094 -0.30469,0.398438 -0.38672,0.398438 -0.0703,0 -0.11719,-0.05859 -0.11719,-0.105469 0,-0.07031 0,-0.07031 0.14063,-0.527344 l 0.3164,-0.914062 c 0.0937,-0.292969 0.15235,-0.550782 0.15235,-0.726563 0,-0.28125 -0.22266,-0.492187 -0.52735,-0.492187 -0.46875,0 -0.77343,0.28125 -1.34765,1.183593 0.1289,-0.351562 0.17578,-0.527343 0.17578,-0.714843 0,-0.292969 -0.17578,-0.46875 -0.45703,-0.46875 -0.19922,0 -0.39844,0.08203 -0.59766,0.234375 -0.24609,0.1875 -0.45703,0.457031 -0.90234,1.136718 l 0.44531,-1.359375 c -0.44531,0.105469 -0.58594,0.117188 -1.37109,0.1875 z m 0,0"
         style="fill:#231f20;fill-opacity:1;fill-rule:nonzero;stroke:none" />
      <path
         id="path49"
         d="m 346.32129,-23.117584 c -0.082,0.07031 -0.14063,0.09375 -0.21094,0.09375 -0.10547,0 -0.14062,-0.07031 -0.14062,-0.28125 v -0.9375 c 0,-0.246094 -0.0234,-0.386719 -0.0937,-0.503907 -0.10547,-0.175781 -0.31641,-0.269531 -0.59766,-0.269531 -0.45703,0 -0.80859,0.234375 -0.80859,0.539063 0,0.117187 0.0937,0.210937 0.21093,0.210937 0.10547,0 0.21094,-0.09375 0.21094,-0.199219 0,-0.02344 0,-0.04687 -0.0117,-0.08203 -0.0117,-0.04687 -0.0117,-0.08203 -0.0117,-0.117187 0,-0.128907 0.15235,-0.234375 0.35157,-0.234375 0.23437,0 0.36328,0.140625 0.36328,0.398437 v 0.292969 c -0.73828,0.304687 -0.82031,0.339844 -1.03125,0.527344 -0.10547,0.09375 -0.17578,0.257812 -0.17578,0.410156 0,0.304687 0.21093,0.515625 0.5039,0.515625 0.21094,0 0.41016,-0.105469 0.70313,-0.351563 0.0234,0.246094 0.11719,0.351563 0.30469,0.351563 0.16406,0 0.26953,-0.05859 0.43359,-0.234375 z m -0.73828,-0.269532 c 0,0.140625 -0.0234,0.1875 -0.12891,0.246094 -0.11719,0.07031 -0.24609,0.105469 -0.35156,0.105469 -0.16406,0 -0.30469,-0.164063 -0.30469,-0.363281 v -0.02344 c 0,-0.28125 0.19922,-0.457031 0.78516,-0.667969 z m 0,0"
         style="fill:#231f20;fill-opacity:1;fill-rule:nonzero;stroke:none" />
      <path
         id="path50"
         d="m 346.48828,-22.751373 c 0.42188,-0.222657 0.60938,-0.363282 0.87891,-0.644532 0.58593,-0.632812 0.90234,-1.453125 0.90234,-2.320312 0,-0.632813 -0.17578,-1.242188 -0.50391,-1.757813 -0.3164,-0.492187 -0.60937,-0.773437 -1.27734,-1.171875 v 0.1875 c 0.38672,0.257813 0.5625,0.421875 0.70313,0.738282 0.19921,0.421875 0.30468,1.054687 0.30468,1.980468 0,0.949219 -0.10547,1.640625 -0.29297,2.050782 -0.14062,0.304687 -0.30468,0.480468 -0.71484,0.75 z m 0,0"
         style="fill:#231f20;fill-opacity:1;fill-rule:nonzero;stroke:none" />
      <path
         id="path51"
         d="m 352.6084,17.115814 h -0.97266 l 0.52735,-1.96875 h -0.48047 c -0.72657,1.089844 -1.40625,1.652344 -2.47266,2.0625 v 0.46875 h 0.69141 l -0.92578,3.222656 c -0.1875,0.691407 -0.32813,1.3125 -0.32813,1.535157 0,0.527343 0.38672,0.878906 0.94922,0.878906 0.82031,0 1.35937,-0.445313 2.25,-1.839844 l -0.29297,-0.1875 c -0.45703,0.714844 -0.82031,1.078125 -1.03125,1.078125 -0.10547,0 -0.22266,-0.105469 -0.22266,-0.199219 0,-0.246093 0.2461,-1.230468 0.73829,-2.882812 0.0703,-0.234375 0.21093,-0.773438 0.44531,-1.605469 h 1.125 z m 0,0"
         style="fill:#231f20;fill-opacity:1;fill-rule:nonzero;stroke:none" />
      <path
         id="path52"
         d="m -27.483398,44.821869 c -0.632813,0.339844 -0.914063,0.550781 -1.3125,0.972656 -0.867188,0.9375 -1.335938,2.144531 -1.335938,3.46875 0,0.925781 0.257813,1.828125 0.75,2.601563 0.46875,0.738281 0.902344,1.148437 1.898438,1.746093 v -0.28125 c -0.574219,-0.375 -0.832032,-0.632812 -1.042969,-1.089843 -0.304688,-0.632813 -0.457031,-1.570313 -0.457031,-2.964844 0,-1.417969 0.152343,-2.4375 0.433593,-3.058594 0.210938,-0.445312 0.457032,-0.703125 1.066407,-1.113281 z m 0,0"
         style="fill:#231f20;fill-opacity:1;fill-rule:nonzero;stroke:none" />
      <path
         id="path53"
         d="m -22.374023,51.243744 -0.105469,0.105469 c -0.03516,0.03516 -0.05859,0.04687 -0.117188,0.04687 -0.140625,0 -0.210937,-0.09375 -0.210937,-0.257813 v -2.660156 c 0,-0.855469 -0.773438,-1.40625 -2.015625,-1.40625 -1.160156,0 -1.933594,0.527344 -1.933594,1.289062 0,0.421875 0.246094,0.679688 0.667969,0.679688 0.410156,0 0.691406,-0.246094 0.691406,-0.597656 0,-0.140625 -0.05859,-0.269532 -0.1875,-0.433594 -0.09375,-0.105469 -0.117187,-0.164063 -0.117187,-0.222656 0,-0.222657 0.28125,-0.386719 0.644531,-0.386719 0.585937,0 0.855469,0.28125 0.855469,0.902344 v 0.738281 c -1.21875,0.375 -1.710938,0.574219 -2.097657,0.832031 -0.433593,0.304688 -0.644531,0.65625 -0.644531,1.089844 0,0.621094 0.480469,1.078125 1.125,1.078125 0.585938,0 1.054688,-0.199219 1.617188,-0.714844 0.105468,0.527344 0.328125,0.714844 0.832031,0.714844 0.445312,0 0.75,-0.164063 1.148437,-0.574219 z m -1.839844,-0.363281 c -0.28125,0.316406 -0.480469,0.433593 -0.726563,0.433593 -0.304687,0 -0.515625,-0.269531 -0.515625,-0.679687 0,-0.585938 0.421875,-1.019531 1.242188,-1.230469 z m 0,0"
         style="fill:#231f20;fill-opacity:1;fill-rule:nonzero;stroke:none" />
      <path
         id="path54"
         d="m -21.829102,53.610931 c 0.632813,-0.339843 0.925782,-0.550781 1.3125,-0.960937 0.878907,-0.949219 1.347657,-2.15625 1.347657,-3.457031 0,-0.9375 -0.257813,-1.851563 -0.75,-2.625 -0.46875,-0.738282 -0.902344,-1.136719 -1.910157,-1.746094 v 0.292969 c 0.585938,0.375 0.84375,0.632812 1.054688,1.089843 0.304687,0.632813 0.445312,1.582032 0.445312,2.964844 0,1.40625 -0.140625,2.4375 -0.421875,3.046875 -0.210937,0.445313 -0.457031,0.714844 -1.078125,1.125 z m 0,0"
         style="fill:#231f20;fill-opacity:1;fill-rule:nonzero;stroke:none" />
      <path
         id="path55"
         d=""
         style="fill:#231f20;fill-opacity:1;fill-rule:nonzero;stroke:none" />
    </g>
    <g
       id="g56"
       aria-label="(c)"
       transform="matrix(0.35277776,0,0,0.35277776,130.47055,178.09792)"
       clip-path="url(#clipPath60)">
      <path
         id="path57"
         d="m 3.1160156,-7.0769412 c -0.6328125,0.3398437 -0.9140625,0.5507812 -1.3125,0.9726562 -0.86718747,0.9375 -1.33593747,2.1445313 -1.33593747,3.46875 0,0.9257813 0.2578125,1.828125 0.74999997,2.6015625 0.46875,0.73828125 0.9023438,1.1484375 1.8984375,1.7460938 v -0.28125 C 2.5417969,1.0558713 2.2839844,0.79805875 2.0730469,0.3410275 1.7683594,-0.291785 1.6160156,-1.229285 1.6160156,-2.6238162 c 0,-1.4179688 0.1523438,-2.4375 0.4335938,-3.0585938 0.2109375,-0.4453125 0.4570312,-0.703125 1.0664062,-1.1132812 z m 0,0"
         style="fill:#231f20;fill-opacity:1;fill-rule:nonzero;stroke:none" />
      <path
         id="path58"
         d="m 7.5925781,-1.1120975 c -0.375,0.43359375 -0.6328125,0.57421875 -1.0546875,0.57421875 -0.890625,0 -1.453125,-0.89062495 -1.453125,-2.27343745 0,-1.0546875 0.328125,-1.6992188 0.8554688,-1.6992188 0.1640625,0 0.3164062,0.082031 0.3867187,0.1992188 0.046875,0.09375 0.046875,0.09375 0.046875,0.515625 0.011719,0.5039062 0.1992188,0.7382812 0.5742188,0.7382812 0.421875,0 0.6914062,-0.2460937 0.6914062,-0.6445312 0,-0.6328125 -0.6796875,-1.125 -1.5820312,-1.125 -1.3828125,0 -2.4023438,1.0898437 -2.4023438,2.5546875 0,1.40624995 0.9140625,2.41406245 2.1796875,2.41406245 0.7851563,0 1.359375,-0.31640625 1.9453125,-1.06640625 z m 0,0"
         style="fill:#231f20;fill-opacity:1;fill-rule:nonzero;stroke:none" />
      <path
         id="path59"
         d="M 8.1697266,1.7121213 C 8.8025391,1.3722775 9.0955078,1.16134 9.4822266,0.75118375 10.361133,-0.198035 10.829883,-1.4050662 10.829883,-2.7058475 c 0,-0.9375 -0.257813,-1.8515625 -0.75,-2.625 C 9.6111328,-6.0691287 9.1775391,-6.4675662 8.1697266,-7.0769412 v 0.2929687 c 0.5859375,0.375 0.84375,0.6328125 1.0546875,1.0898438 0.3046875,0.6328125 0.4453125,1.5820312 0.4453125,2.9648437 0,1.40625 -0.140625,2.4375 -0.421875,3.046875 -0.2109375,0.4453125 -0.4570313,0.7148438 -1.078125,1.125 z m 0,0"
         style="fill:#231f20;fill-opacity:1;fill-rule:nonzero;stroke:none" />
    </g>
  </g>
</svg>
