<svg width="4421" height="3293" xmlns="http://www.w3.org/2000/svg" xmlns:xlink="http://www.w3.org/1999/xlink" xml:space="preserve" overflow="hidden"><g transform="translate(602 -190)"><text font-family="Yu Gothic,Yu Gothic_MSFontService,sans-serif" font-weight="400" font-size="119" transform="matrix(1 0 0 1 -74.0437 2007)">元画像</text><text font-family="Yu Gothic,Yu Gothic_MSFontService,sans-serif" font-weight="400" font-size="119" transform="matrix(1 0 0 1 1959.61 2752)">濃度値が小さい順にソートして</text><text font-family="Aptos,Aptos_MSFontService,sans-serif" font-weight="400" font-size="119" transform="matrix(1 0 0 1 2166.16 2895)">4</text><text font-family="Yu Gothic,Yu Gothic_MSFontService,sans-serif" font-weight="400" font-size="119" transform="matrix(1 0 0 1 2229.75 2895)">つのグループにわける</text><text font-family="Yu Gothic,Yu Gothic_MSFontService,sans-serif" font-weight="400" font-size="119" transform="matrix(1 0 0 1 1840.44 3038)">各グループの中央値が代表色となる</text><text font-family="Yu Gothic,Yu Gothic_MSFontService,sans-serif" font-weight="400" font-size="119" transform="matrix(1 0 0 1 -371.961 3377)">代表色表示の結果</text><text font-family="Yu Gothic Light,Yu Gothic Light_MSFontService,sans-serif" font-weight="300" font-size="151" transform="matrix(1 0 0 1 203.156 577)">問題</text><text font-family="Aptos Display,Aptos Display_MSFontService,sans-serif" font-weight="400" font-size="151" transform="matrix(1 0 0 1 505.656 577)">1</text><text font-family="Aptos Display,Aptos Display_MSFontService,sans-serif" font-weight="400" font-size="151" transform="matrix(1 0 0 1 584.719 577)">-</text><text font-family="Aptos Display,Aptos Display_MSFontService,sans-serif" font-weight="400" font-size="151" transform="matrix(1 0 0 1 626.061 577)">1</text><text font-family="Yu Gothic Light,Yu Gothic Light_MSFontService,sans-serif" font-weight="300" font-size="151" transform="matrix(1 0 0 1 856.373 577)">限定色表示</text><path d="M-599.034 777.034-317.538 777.034-317.538 1058.53-599.034 1058.53Z" fill="#FFFFFF" fill-rule="evenodd"/><path d="M-317.538 777.034-36.0423 777.034-36.0423 1058.53-317.538 1058.53Z" fill="#FFFFFF" fill-rule="evenodd"/><path d="M-36.0423 777.034 245.454 777.034 245.454 1058.53-36.0423 1058.53Z" fill="#FFFFFF" fill-rule="evenodd"/><path d="M245.454 777.034 526.95 777.034 526.95 1058.53 245.454 1058.53Z" fill="#FFFFFF" fill-rule="evenodd"/><path d="M526.95 777.034 808.446 777.034 808.446 1058.53 526.95 1058.53Z" fill="#FFFFFF" fill-rule="evenodd"/><path d="M-599.034 1058.53-317.538 1058.53-317.538 1321.26-599.034 1321.26Z" fill="#FFFFFF" fill-rule="evenodd"/><path d="M-317.538 1058.53-36.0423 1058.53-36.0423 1321.26-317.538 1321.26Z" fill="#FFFFFF" fill-rule="evenodd"/><path d="M-36.0423 1058.53 245.454 1058.53 245.454 1321.26-36.0423 1321.26Z" fill="#FFFFFF" fill-rule="evenodd"/><path d="M245.454 1058.53 526.95 1058.53 526.95 1321.26 245.454 1321.26Z" fill="#FFFFFF" fill-rule="evenodd"/><path d="M526.95 1058.53 808.446 1058.53 808.446 1321.26 526.95 1321.26Z" fill="#FFFFFF" fill-rule="evenodd"/><path d="M-599.034 1321.26-317.538 1321.26-317.538 1602.76-599.034 1602.76Z" fill="#FFFFFF" fill-rule="evenodd"/><path d="M-317.538 1321.26-36.0423 1321.26-36.0423 1602.76-317.538 1602.76Z" fill="#FFFFFF" fill-rule="evenodd"/><path d="M-36.0423 1321.26 245.454 1321.26 245.454 1602.76-36.0423 1602.76Z" fill="#FFFFFF" fill-rule="evenodd"/><path d="M245.454 1321.26 526.95 1321.26 526.95 1602.76 245.454 1602.76Z" fill="#FFFFFF" fill-rule="evenodd"/><path d="M526.95 1321.26 808.446 1321.26 808.446 1602.76 526.95 1602.76Z" fill="#FFFFFF" fill-rule="evenodd"/><path d="M-599.034 1602.76-317.538 1602.76-317.538 1865.49-599.034 1865.49Z" fill="#FFFFFF" fill-rule="evenodd"/><path d="M-317.538 1602.76-36.0423 1602.76-36.0423 1865.49-317.538 1865.49Z" fill="#FFFFFF" fill-rule="evenodd"/><path d="M-36.0423 1602.76 245.454 1602.76 245.454 1865.49-36.0423 1865.49Z" fill="#FFFFFF" fill-rule="evenodd"/><path d="M245.454 1602.76 526.95 1602.76 526.95 1865.49 245.454 1865.49Z" fill="#FFFFFF" fill-rule="evenodd"/><path d="M526.95 1602.76 808.446 1602.76 808.446 1865.49 526.95 1865.49Z" fill="#FFFFFF" fill-rule="evenodd"/><path d="M-317.538 774.743-317.538 1867.78" stroke="#000000" stroke-width="4.58333" stroke-linejoin="round" stroke-miterlimit="10" fill="none" fill-rule="evenodd"/><path d="M-36.0423 774.743-36.0423 1867.78" stroke="#000000" stroke-width="4.58333" stroke-linejoin="round" stroke-miterlimit="10" fill="none" fill-rule="evenodd"/><path d="M245.454 774.743 245.454 1867.78" stroke="#000000" stroke-width="4.58333" stroke-linejoin="round" stroke-miterlimit="10" fill="none" fill-rule="evenodd"/><path d="M526.95 774.743 526.95 1867.78" stroke="#000000" stroke-width="4.58333" stroke-linejoin="round" stroke-miterlimit="10" fill="none" fill-rule="evenodd"/><path d="M-601.326 1058.53 810.738 1058.53" stroke="#000000" stroke-width="4.58333" stroke-linejoin="round" stroke-miterlimit="10" fill="none" fill-rule="evenodd"/><path d="M-601.326 1321.26 810.738 1321.26" stroke="#000000" stroke-width="4.58333" stroke-linejoin="round" stroke-miterlimit="10" fill="none" fill-rule="evenodd"/><path d="M-601.326 1602.76 810.738 1602.76" stroke="#000000" stroke-width="4.58333" stroke-linejoin="round" stroke-miterlimit="10" fill="none" fill-rule="evenodd"/><path d="M-599.034 774.743-599.034 1867.78" stroke="#000000" stroke-width="4.58333" stroke-linejoin="round" stroke-miterlimit="10" fill="none" fill-rule="evenodd"/><path d="M808.446 774.743 808.446 1867.78" stroke="#000000" stroke-width="4.58333" stroke-linejoin="round" stroke-miterlimit="10" fill="none" fill-rule="evenodd"/><path d="M-601.326 777.034 810.738 777.034" stroke="#000000" stroke-width="4.58333" stroke-linejoin="round" stroke-miterlimit="10" fill="none" fill-rule="evenodd"/><path d="M-601.326 1865.49 810.738 1865.49" stroke="#000000" stroke-width="4.58333" stroke-linejoin="round" stroke-miterlimit="10" fill="none" fill-rule="evenodd"/><text font-family="Aptos,Aptos_MSFontService,sans-serif" font-weight="400" font-size="78" transform="matrix(1 0 0 1 604.963 943)">106</text><text font-family="Aptos,Aptos_MSFontService,sans-serif" font-weight="400" font-size="78" transform="matrix(1 0 0 1 344.379 943)">14</text><text font-family="Aptos,Aptos_MSFontService,sans-serif" font-weight="400" font-size="78" transform="matrix(1 0 0 1 62.8826 943)">92</text><text font-family="Aptos,Aptos_MSFontService,sans-serif" font-weight="400" font-size="78" transform="matrix(1 0 0 1 -239.525 943)">179</text><text font-family="Aptos,Aptos_MSFontService,sans-serif" font-weight="400" font-size="78" transform="matrix(1 0 0 1 -521.021 943)">102</text><text font-family="Aptos,Aptos_MSFontService,sans-serif" font-weight="400" font-size="78" transform="matrix(1 0 0 1 625.875 1215)">99</text><text font-family="Aptos,Aptos_MSFontService,sans-serif" font-weight="400" font-size="78" transform="matrix(1 0 0 1 323.467 1215)">116</text><text font-family="Aptos,Aptos_MSFontService,sans-serif" font-weight="400" font-size="78" transform="matrix(1 0 0 1 62.8826 1215)">87</text><text font-family="Aptos,Aptos_MSFontService,sans-serif" font-weight="400" font-size="78" transform="matrix(1 0 0 1 -239.525 1215)">202</text><text font-family="Aptos,Aptos_MSFontService,sans-serif" font-weight="400" font-size="78" transform="matrix(1 0 0 1 -500.109 1215)">74</text><text font-family="Aptos,Aptos_MSFontService,sans-serif" font-weight="400" font-size="78" transform="matrix(1 0 0 1 646.786 1487)">1</text><text font-family="Aptos,Aptos_MSFontService,sans-serif" font-weight="400" font-size="78" transform="matrix(1 0 0 1 344.379 1487)">52</text><text font-family="Aptos,Aptos_MSFontService,sans-serif" font-weight="400" font-size="78" transform="matrix(1 0 0 1 41.9712 1487)">149</text><text font-family="Aptos,Aptos_MSFontService,sans-serif" font-weight="400" font-size="78" transform="matrix(1 0 0 1 -239.525 1487)">130</text><text font-family="Aptos,Aptos_MSFontService,sans-serif" font-weight="400" font-size="78" transform="matrix(1 0 0 1 -521.021 1487)">151</text><text font-family="Aptos,Aptos_MSFontService,sans-serif" font-weight="400" font-size="78" transform="matrix(1 0 0 1 604.963 1759)">191</text><text font-family="Aptos,Aptos_MSFontService,sans-serif" font-weight="400" font-size="78" transform="matrix(1 0 0 1 323.467 1759)">129</text><text font-family="Aptos,Aptos_MSFontService,sans-serif" font-weight="400" font-size="78" transform="matrix(1 0 0 1 62.8826 1759)">37</text><text font-family="Aptos,Aptos_MSFontService,sans-serif" font-weight="400" font-size="78" transform="matrix(1 0 0 1 -239.525 1759)">157</text><text font-family="Aptos,Aptos_MSFontService,sans-serif" font-weight="400" font-size="78" transform="matrix(1 0 0 1 -521.021 1759)">235</text><path d="M2090.03 1039.76 2371.53 1039.76 2371.53 1321.26 2090.03 1321.26Z" fill="#FFFFFF" fill-rule="evenodd"/><path d="M2371.53 1039.76 2653.03 1039.76 2653.03 1321.26 2371.53 1321.26Z" fill="#FFFFFF" fill-rule="evenodd"/><path d="M2653.03 1039.76 2934.52 1039.76 2934.52 1321.26 2653.03 1321.26Z" fill="#FAFAFA" fill-rule="evenodd"/><path d="M2934.52 1039.76 3216.02 1039.76 3216.02 1321.26 2934.52 1321.26Z" fill="#FFFFFF" fill-rule="evenodd"/><path d="M3216.02 1039.76 3497.52 1039.76 3497.52 1321.26 3216.02 1321.26Z" fill="#FFFFFF" fill-rule="evenodd"/><path d="M2371.53 1037.47 2371.53 1323.55" stroke="#000000" stroke-width="4.58333" stroke-linejoin="round" stroke-miterlimit="10" fill="none" fill-rule="evenodd"/><path d="M2653.03 1037.47 2653.03 1323.55" stroke="#000000" stroke-width="4.58333" stroke-linejoin="round" stroke-miterlimit="10" fill="none" fill-rule="evenodd"/><path d="M2934.52 1037.47 2934.52 1323.55" stroke="#000000" stroke-width="4.58333" stroke-linejoin="round" stroke-miterlimit="10" fill="none" fill-rule="evenodd"/><path d="M3216.02 1037.47 3216.02 1323.55" stroke="#000000" stroke-width="4.58333" stroke-linejoin="round" stroke-miterlimit="10" fill="none" fill-rule="evenodd"/><path d="M2090.03 1037.47 2090.03 1323.55" stroke="#000000" stroke-width="4.58333" stroke-linejoin="round" stroke-miterlimit="10" fill="none" fill-rule="evenodd"/><path d="M3497.52 1037.47 3497.52 1323.55" stroke="#000000" stroke-width="4.58333" stroke-linejoin="round" stroke-miterlimit="10" fill="none" fill-rule="evenodd"/><path d="M2087.74 1039.76 3499.81 1039.76" stroke="#000000" stroke-width="4.58333" stroke-linejoin="round" stroke-miterlimit="10" fill="none" fill-rule="evenodd"/><path d="M2087.74 1321.26 3499.81 1321.26" stroke="#000000" stroke-width="4.58333" stroke-linejoin="round" stroke-miterlimit="10" fill="none" fill-rule="evenodd"/><text font-family="Aptos,Aptos_MSFontService,sans-serif" font-weight="400" font-size="78" transform="matrix(1 0 0 1 3314.94 1206)">74</text><text font-family="Aptos,Aptos_MSFontService,sans-serif" font-weight="400" font-size="78" transform="matrix(1 0 0 1 3033.45 1206)">52</text><text font-family="Aptos,Aptos_MSFontService,sans-serif" font-weight="400" font-size="78" transform="matrix(1 0 0 1 2751.95 1206)">37</text><text font-family="Aptos,Aptos_MSFontService,sans-serif" font-weight="400" font-size="78" transform="matrix(1 0 0 1 2470.46 1206)">14</text><text font-family="Aptos,Aptos_MSFontService,sans-serif" font-weight="400" font-size="78" transform="matrix(1 0 0 1 2209.87 1206)">1</text><path d="M2092.21 1460.16 2373.7 1460.16 2373.7 1741.65 2092.21 1741.65Z" fill="#FFFFFF" fill-rule="evenodd"/><path d="M2373.7 1460.16 2655.2 1460.16 2655.2 1741.65 2373.7 1741.65Z" fill="#FFFFFF" fill-rule="evenodd"/><path d="M2655.2 1460.16 2936.69 1460.16 2936.69 1741.65 2655.2 1741.65Z" fill="#FAFAFA" fill-rule="evenodd"/><path d="M2936.69 1460.16 3218.19 1460.16 3218.19 1741.65 2936.69 1741.65Z" fill="#FFFFFF" fill-rule="evenodd"/><path d="M3218.19 1460.16 3499.69 1460.16 3499.69 1741.65 3218.19 1741.65Z" fill="#FFFFFF" fill-rule="evenodd"/><path d="M2373.7 1457.87 2373.7 1743.95" stroke="#000000" stroke-width="4.58333" stroke-linejoin="round" stroke-miterlimit="10" fill="none" fill-rule="evenodd"/><path d="M2655.2 1457.87 2655.2 1743.95" stroke="#000000" stroke-width="4.58333" stroke-linejoin="round" stroke-miterlimit="10" fill="none" fill-rule="evenodd"/><path d="M2936.69 1457.87 2936.69 1743.95" stroke="#000000" stroke-width="4.58333" stroke-linejoin="round" stroke-miterlimit="10" fill="none" fill-rule="evenodd"/><path d="M3218.19 1457.87 3218.19 1743.95" stroke="#000000" stroke-width="4.58333" stroke-linejoin="round" stroke-miterlimit="10" fill="none" fill-rule="evenodd"/><path d="M2092.21 1457.87 2092.21 1743.95" stroke="#000000" stroke-width="4.58333" stroke-linejoin="round" stroke-miterlimit="10" fill="none" fill-rule="evenodd"/><path d="M3499.69 1457.87 3499.69 1743.95" stroke="#000000" stroke-width="4.58333" stroke-linejoin="round" stroke-miterlimit="10" fill="none" fill-rule="evenodd"/><path d="M2089.91 1460.16 3501.98 1460.16" stroke="#000000" stroke-width="4.58333" stroke-linejoin="round" stroke-miterlimit="10" fill="none" fill-rule="evenodd"/><path d="M2089.91 1741.65 3501.98 1741.65" stroke="#000000" stroke-width="4.58333" stroke-linejoin="round" stroke-miterlimit="10" fill="none" fill-rule="evenodd"/><text font-family="Aptos,Aptos_MSFontService,sans-serif" font-weight="400" font-size="78" transform="matrix(1 0 0 1 3296.2 1626)">106</text><text font-family="Aptos,Aptos_MSFontService,sans-serif" font-weight="400" font-size="78" transform="matrix(1 0 0 1 3014.71 1626)">102</text><text font-family="Aptos,Aptos_MSFontService,sans-serif" font-weight="400" font-size="78" transform="matrix(1 0 0 1 2754.12 1626)">99</text><text font-family="Aptos,Aptos_MSFontService,sans-serif" font-weight="400" font-size="78" transform="matrix(1 0 0 1 2472.63 1626)">92</text><text font-family="Aptos,Aptos_MSFontService,sans-serif" font-weight="400" font-size="78" transform="matrix(1 0 0 1 2191.13 1626)">87</text><path d="M2092.21 1880.55 2373.7 1880.55 2373.7 2162.05 2092.21 2162.05Z" fill="#FFFFFF" fill-rule="evenodd"/><path d="M2373.7 1880.55 2655.2 1880.55 2655.2 2162.05 2373.7 2162.05Z" fill="#FFFFFF" fill-rule="evenodd"/><path d="M2655.2 1880.55 2936.69 1880.55 2936.69 2162.05 2655.2 2162.05Z" fill="#FAFAFA" fill-rule="evenodd"/><path d="M2936.69 1880.55 3218.19 1880.55 3218.19 2162.05 2936.69 2162.05Z" fill="#FFFFFF" fill-rule="evenodd"/><path d="M3218.19 1880.55 3499.69 1880.55 3499.69 2162.05 3218.19 2162.05Z" fill="#FFFFFF" fill-rule="evenodd"/><path d="M2373.7 1878.26 2373.7 2164.34" stroke="#000000" stroke-width="4.58333" stroke-linejoin="round" stroke-miterlimit="10" fill="none" fill-rule="evenodd"/><path d="M2655.2 1878.26 2655.2 2164.34" stroke="#000000" stroke-width="4.58333" stroke-linejoin="round" stroke-miterlimit="10" fill="none" fill-rule="evenodd"/><path d="M2936.69 1878.26 2936.69 2164.34" stroke="#000000" stroke-width="4.58333" stroke-linejoin="round" stroke-miterlimit="10" fill="none" fill-rule="evenodd"/><path d="M3218.19 1878.26 3218.19 2164.34" stroke="#000000" stroke-width="4.58333" stroke-linejoin="round" stroke-miterlimit="10" fill="none" fill-rule="evenodd"/><path d="M2092.21 1878.26 2092.21 2164.34" stroke="#000000" stroke-width="4.58333" stroke-linejoin="round" stroke-miterlimit="10" fill="none" fill-rule="evenodd"/><path d="M3499.69 1878.26 3499.69 2164.34" stroke="#000000" stroke-width="4.58333" stroke-linejoin="round" stroke-miterlimit="10" fill="none" fill-rule="evenodd"/><path d="M2089.91 1880.55 3501.98 1880.55" stroke="#000000" stroke-width="4.58333" stroke-linejoin="round" stroke-miterlimit="10" fill="none" fill-rule="evenodd"/><path d="M2089.91 2162.05 3501.98 2162.05" stroke="#000000" stroke-width="4.58333" stroke-linejoin="round" stroke-miterlimit="10" fill="none" fill-rule="evenodd"/><text font-family="Aptos,Aptos_MSFontService,sans-serif" font-weight="400" font-size="78" transform="matrix(1 0 0 1 3296.2 2047)">151</text><text font-family="Aptos,Aptos_MSFontService,sans-serif" font-weight="400" font-size="78" transform="matrix(1 0 0 1 3014.71 2047)">149</text><text font-family="Aptos,Aptos_MSFontService,sans-serif" font-weight="400" font-size="78" transform="matrix(1 0 0 1 2733.21 2047)">130</text><text font-family="Aptos,Aptos_MSFontService,sans-serif" font-weight="400" font-size="78" transform="matrix(1 0 0 1 2451.72 2047)">129</text><text font-family="Aptos,Aptos_MSFontService,sans-serif" font-weight="400" font-size="78" transform="matrix(1 0 0 1 2170.22 2047)">116</text><path d="M2092.21 2300.95 2373.7 2300.95 2373.7 2582.44 2092.21 2582.44Z" fill="#FFFFFF" fill-rule="evenodd"/><path d="M2373.7 2300.95 2655.2 2300.95 2655.2 2582.44 2373.7 2582.44Z" fill="#FFFFFF" fill-rule="evenodd"/><path d="M2655.2 2300.95 2936.69 2300.95 2936.69 2582.44 2655.2 2582.44Z" fill="#FAFAFA" fill-rule="evenodd"/><path d="M2936.69 2300.95 3218.19 2300.95 3218.19 2582.44 2936.69 2582.44Z" fill="#FFFFFF" fill-rule="evenodd"/><path d="M3218.19 2300.95 3499.69 2300.95 3499.69 2582.44 3218.19 2582.44Z" fill="#FFFFFF" fill-rule="evenodd"/><path d="M2373.7 2298.65 2373.7 2584.73" stroke="#000000" stroke-width="4.58333" stroke-linejoin="round" stroke-miterlimit="10" fill="none" fill-rule="evenodd"/><path d="M2655.2 2298.65 2655.2 2584.73" stroke="#000000" stroke-width="4.58333" stroke-linejoin="round" stroke-miterlimit="10" fill="none" fill-rule="evenodd"/><path d="M2936.69 2298.65 2936.69 2584.73" stroke="#000000" stroke-width="4.58333" stroke-linejoin="round" stroke-miterlimit="10" fill="none" fill-rule="evenodd"/><path d="M3218.19 2298.65 3218.19 2584.73" stroke="#000000" stroke-width="4.58333" stroke-linejoin="round" stroke-miterlimit="10" fill="none" fill-rule="evenodd"/><path d="M2092.21 2298.65 2092.21 2584.73" stroke="#000000" stroke-width="4.58333" stroke-linejoin="round" stroke-miterlimit="10" fill="none" fill-rule="evenodd"/><path d="M3499.69 2298.65 3499.69 2584.73" stroke="#000000" stroke-width="4.58333" stroke-linejoin="round" stroke-miterlimit="10" fill="none" fill-rule="evenodd"/><path d="M2089.91 2300.95 3501.98 2300.95" stroke="#000000" stroke-width="4.58333" stroke-linejoin="round" stroke-miterlimit="10" fill="none" fill-rule="evenodd"/><path d="M2089.91 2582.44 3501.98 2582.44" stroke="#000000" stroke-width="4.58333" stroke-linejoin="round" stroke-miterlimit="10" fill="none" fill-rule="evenodd"/><text font-family="Aptos,Aptos_MSFontService,sans-serif" font-weight="400" font-size="78" transform="matrix(1 0 0 1 3296.2 2467)">235</text><text font-family="Aptos,Aptos_MSFontService,sans-serif" font-weight="400" font-size="78" transform="matrix(1 0 0 1 3014.71 2467)">202</text><text font-family="Aptos,Aptos_MSFontService,sans-serif" font-weight="400" font-size="78" transform="matrix(1 0 0 1 2733.21 2467)">191</text><text font-family="Aptos,Aptos_MSFontService,sans-serif" font-weight="400" font-size="78" transform="matrix(1 0 0 1 2451.72 2467)">179</text><text font-family="Aptos,Aptos_MSFontService,sans-serif" font-weight="400" font-size="78" transform="matrix(1 0 0 1 2170.22 2467)">157</text><path d="M-599.034 2162.05-317.538 2162.05-317.538 2443.54-599.034 2443.54Z" fill="#FFFFFF" fill-rule="evenodd"/><path d="M-317.538 2162.05-36.0423 2162.05-36.0423 2443.54-317.538 2443.54Z" fill="#FFFFFF" fill-rule="evenodd"/><path d="M-36.0423 2162.05 245.454 2162.05 245.454 2443.54-36.0423 2443.54Z" fill="#FFFFFF" fill-rule="evenodd"/><path d="M245.454 2162.05 526.95 2162.05 526.95 2443.54 245.454 2443.54Z" fill="#FFFFFF" fill-rule="evenodd"/><path d="M526.95 2162.05 808.446 2162.05 808.446 2443.54 526.95 2443.54Z" fill="#FFFFFF" fill-rule="evenodd"/><path d="M-599.034 2443.54-317.538 2443.54-317.538 2725.04-599.034 2725.04Z" fill="#FFFFFF" fill-rule="evenodd"/><path d="M-317.538 2443.54-36.0423 2443.54-36.0423 2725.04-317.538 2725.04Z" fill="#FFFFFF" fill-rule="evenodd"/><path d="M-36.0423 2443.54 245.454 2443.54 245.454 2725.04-36.0423 2725.04Z" fill="#FFFFFF" fill-rule="evenodd"/><path d="M245.454 2443.54 526.95 2443.54 526.95 2725.04 245.454 2725.04Z" fill="#FFFFFF" fill-rule="evenodd"/><path d="M526.95 2443.54 808.446 2443.54 808.446 2725.04 526.95 2725.04Z" fill="#FFFFFF" fill-rule="evenodd"/><path d="M-599.034 2725.04-317.538 2725.04-317.538 2987.77-599.034 2987.77Z" fill="#FFFFFF" fill-rule="evenodd"/><path d="M-317.538 2725.04-36.0423 2725.04-36.0423 2987.77-317.538 2987.77Z" fill="#FFFFFF" fill-rule="evenodd"/><path d="M-36.0423 2725.04 245.454 2725.04 245.454 2987.77-36.0423 2987.77Z" fill="#FFFFFF" fill-rule="evenodd"/><path d="M245.454 2725.04 526.95 2725.04 526.95 2987.77 245.454 2987.77Z" fill="#FFFFFF" fill-rule="evenodd"/><path d="M526.95 2725.04 808.446 2725.04 808.446 2987.77 526.95 2987.77Z" fill="#FFFFFF" fill-rule="evenodd"/><path d="M-599.034 2987.77-317.538 2987.77-317.538 3250.5-599.034 3250.5Z" fill="#FFFFFF" fill-rule="evenodd"/><path d="M-317.538 2987.77-36.0423 2987.77-36.0423 3250.5-317.538 3250.5Z" fill="#FFFFFF" fill-rule="evenodd"/><path d="M-36.0423 2987.77 245.454 2987.77 245.454 3250.5-36.0423 3250.5Z" fill="#FFFFFF" fill-rule="evenodd"/><path d="M245.454 2987.77 526.95 2987.77 526.95 3250.5 245.454 3250.5Z" fill="#FFFFFF" fill-rule="evenodd"/><path d="M526.95 2987.77 808.446 2987.77 808.446 3250.5 526.95 3250.5Z" fill="#FFFFFF" fill-rule="evenodd"/><path d="M-317.538 2159.75-317.538 3252.79" stroke="#000000" stroke-width="4.58333" stroke-linejoin="round" stroke-miterlimit="10" fill="none" fill-rule="evenodd"/><path d="M-36.0423 2159.75-36.0423 3252.79" stroke="#000000" stroke-width="4.58333" stroke-linejoin="round" stroke-miterlimit="10" fill="none" fill-rule="evenodd"/><path d="M245.454 2159.75 245.454 3252.79" stroke="#000000" stroke-width="4.58333" stroke-linejoin="round" stroke-miterlimit="10" fill="none" fill-rule="evenodd"/><path d="M526.95 2159.75 526.95 3252.79" stroke="#000000" stroke-width="4.58333" stroke-linejoin="round" stroke-miterlimit="10" fill="none" fill-rule="evenodd"/><path d="M-601.326 2443.54 810.738 2443.54" stroke="#000000" stroke-width="4.58333" stroke-linejoin="round" stroke-miterlimit="10" fill="none" fill-rule="evenodd"/><path d="M-601.326 2725.04 810.738 2725.04" stroke="#000000" stroke-width="4.58333" stroke-linejoin="round" stroke-miterlimit="10" fill="none" fill-rule="evenodd"/><path d="M-601.326 2987.77 810.738 2987.77" stroke="#000000" stroke-width="4.58333" stroke-linejoin="round" stroke-miterlimit="10" fill="none" fill-rule="evenodd"/><path d="M-599.034 2159.75-599.034 3252.79" stroke="#000000" stroke-width="4.58333" stroke-linejoin="round" stroke-miterlimit="10" fill="none" fill-rule="evenodd"/><path d="M808.446 2159.75 808.446 3252.79" stroke="#000000" stroke-width="4.58333" stroke-linejoin="round" stroke-miterlimit="10" fill="none" fill-rule="evenodd"/><path d="M-601.326 2162.05 810.738 2162.05" stroke="#000000" stroke-width="4.58333" stroke-linejoin="round" stroke-miterlimit="10" fill="none" fill-rule="evenodd"/><path d="M-601.326 3250.5 810.738 3250.5" stroke="#000000" stroke-width="4.58333" stroke-linejoin="round" stroke-miterlimit="10" fill="none" fill-rule="evenodd"/><text font-family="Aptos,Aptos_MSFontService,sans-serif" font-weight="400" font-size="78" transform="matrix(1 0 0 1 625.875 2328)">99</text><text font-family="Aptos,Aptos_MSFontService,sans-serif" font-weight="400" font-size="78" transform="matrix(1 0 0 1 344.379 2328)">39</text><text font-family="Aptos,Aptos_MSFontService,sans-serif" font-weight="400" font-size="78" transform="matrix(1 0 0 1 62.8826 2328)">99</text><text font-family="Aptos,Aptos_MSFontService,sans-serif" font-weight="400" font-size="78" transform="matrix(1 0 0 1 -239.525 2328)">191</text><text font-family="Aptos,Aptos_MSFontService,sans-serif" font-weight="400" font-size="78" transform="matrix(1 0 0 1 -500.109 2328)">99</text><text font-family="Aptos,Aptos_MSFontService,sans-serif" font-weight="400" font-size="78" transform="matrix(1 0 0 1 625.875 2610)">99</text><text font-family="Aptos,Aptos_MSFontService,sans-serif" font-weight="400" font-size="78" transform="matrix(1 0 0 1 323.467 2610)">130</text><text font-family="Aptos,Aptos_MSFontService,sans-serif" font-weight="400" font-size="78" transform="matrix(1 0 0 1 62.8826 2610)">99</text><text font-family="Aptos,Aptos_MSFontService,sans-serif" font-weight="400" font-size="78" transform="matrix(1 0 0 1 -239.525 2610)">191</text><text font-family="Aptos,Aptos_MSFontService,sans-serif" font-weight="400" font-size="78" transform="matrix(1 0 0 1 -500.109 2610)">37</text><text font-family="Aptos,Aptos_MSFontService,sans-serif" font-weight="400" font-size="78" transform="matrix(1 0 0 1 625.875 2882)">37</text><text font-family="Aptos,Aptos_MSFontService,sans-serif" font-weight="400" font-size="78" transform="matrix(1 0 0 1 344.379 2882)">37</text><text font-family="Aptos,Aptos_MSFontService,sans-serif" font-weight="400" font-size="78" transform="matrix(1 0 0 1 41.9712 2882)">130</text><text font-family="Aptos,Aptos_MSFontService,sans-serif" font-weight="400" font-size="78" transform="matrix(1 0 0 1 -239.525 2882)">130</text><text font-family="Aptos,Aptos_MSFontService,sans-serif" font-weight="400" font-size="78" transform="matrix(1 0 0 1 -521.021 2882)">130</text><text font-family="Aptos,Aptos_MSFontService,sans-serif" font-weight="400" font-size="78" transform="matrix(1 0 0 1 604.963 3144)">191</text><text font-family="Aptos,Aptos_MSFontService,sans-serif" font-weight="400" font-size="78" transform="matrix(1 0 0 1 323.467 3144)">130</text><text font-family="Aptos,Aptos_MSFontService,sans-serif" font-weight="400" font-size="78" transform="matrix(1 0 0 1 62.8826 3144)">37</text><text font-family="Aptos,Aptos_MSFontService,sans-serif" font-weight="400" font-size="78" transform="matrix(1 0 0 1 -239.525 3144)">191</text><text font-family="Aptos,Aptos_MSFontService,sans-serif" font-weight="400" font-size="78" transform="matrix(1 0 0 1 -521.021 3144)">191</text><path d="M866.5 1382 1619.5 1382 1619.5 1321.5 1740.5 1442.5 1619.5 1563.5 1619.5 1503 866.5 1503Z" stroke="#000000" stroke-width="6.875" stroke-miterlimit="8" fill="#FFFFFF" fill-rule="evenodd"/><path d="M1740.5 2602.25 987 2602.25 987 2662.5 866.5 2542 987 2421.5 987 2481.75 1740.5 2481.75Z" stroke="#000000" stroke-width="6.875" stroke-miterlimit="8" fill="#FFFFFF" fill-rule="evenodd"/></g></svg>