<svg height="95.25mm" viewBox="0 0 200.50002 95.25" width="200.50002mm" xmlns="http://www.w3.org/2000/svg"><g transform="translate(-4.75 -204.74999)"><g transform="translate(79.872015 -80.13645)"><text font-family="Meiryo" font-size="5" stroke-width=".264583" text-anchor="middle" x="25.218319" y="289.04877"><tspan font-size="5" stroke-width=".264583" x="25.218319" y="289.04877">G (100)</tspan></text><path d="m15.127988 285.13644h20v5h-20z" fill="none" stroke="#000" stroke-width=".5"/></g><g transform="translate(-10.127988 4.863548)"><text font-family="Meiryo" font-size="5" stroke-width=".264583" text-anchor="middle" x="25.256161" y="289.0488"><tspan font-size="5" stroke-width=".264583" x="25.256161" y="289.0488">4 (1)</tspan></text><path d="m15.127988 285.13644h20v5h-20z" fill="none" stroke="#000" stroke-width=".5"/></g><g transform="translate(-10.127988 188.86354)"><text font-family="Meiryo" font-size="5" stroke-width=".264583" text-anchor="middle" x="25.256161" y="110.47483"><tspan font-size="5" stroke-width=".264583" x="25.256161" y="110.47483">00000</tspan></text><path d="m15.127988 106.13645h20v5h-20z" fill="none"/></g><g transform="translate(19.872014 188.86354)"><text font-family="Meiryo" font-size="5" stroke-width=".264583" text-anchor="middle" x="25.256161" y="110.47483"><tspan font-size="5" stroke-width=".264583" x="25.256161" y="110.47483">00001</tspan></text><path d="m15.127988 106.13645h20v5h-20z" fill="none"/></g><g transform="translate(49.872014 188.86354)"><text font-family="Meiryo" font-size="5" stroke-width=".264583" text-anchor="middle" x="25.256161" y="110.47483"><tspan font-size="5" stroke-width=".264583" x="25.256161" y="110.47483">0010</tspan></text><path d="m15.127988 106.13645h20v5h-20z" fill="none"/></g><g transform="translate(79.872015 188.86354)"><text font-family="Meiryo" font-size="5" stroke-width=".264583" text-anchor="middle" x="25.256161" y="110.47483"><tspan font-size="5" stroke-width=".264583" x="25.256161" y="110.47483">0011</tspan></text><path d="m15.127988 106.13645h20v5h-20z" fill="none"/></g><g transform="translate(109.87202 188.86354)"><text font-family="Meiryo" font-size="5" stroke-width=".264583" text-anchor="middle" x="25.256161" y="110.47483"><tspan font-size="5" stroke-width=".264583" x="25.256161" y="110.47483">01</tspan></text><path d="m15.127988 106.13645h20v5h-20z" fill="none"/></g><g transform="translate(139.87202 188.86354)"><text font-family="Meiryo" font-size="5" stroke-width=".264583" text-anchor="middle" x="25.256161" y="110.47483"><tspan font-size="5" stroke-width=".264583" x="25.256161" y="110.47483">10</tspan></text><path d="m15.127988 106.13645h20v5h-20z" fill="none"/></g><g transform="translate(169.87202 188.86354)"><text font-family="Meiryo" font-size="5" stroke-width=".264583" text-anchor="middle" x="25.256161" y="110.47483"><tspan font-size="5" stroke-width=".264583" x="25.256161" y="110.47483">11</tspan></text><path d="m15.127988 106.13645h20v5h-20z" fill="none"/></g><g transform="translate(-7.707206 -.136452)"><text font-family="Meiryo" font-size="5" stroke-width=".264583" text-anchor="middle" x="18.955986" y="289.47482"><tspan font-size="5" stroke-width=".264583" x="18.955986" y="289.47482">0</tspan></text><path d="m15.207207 285.13644h7.5v5h-7.5z" fill="none"/></g><g transform="translate(29.792794 -.136452)"><text font-family="Meiryo" font-size="5" stroke-width=".264583" text-anchor="middle" x="18.955986" y="289.47482"><tspan font-size="5" stroke-width=".264583" x="18.955986" y="289.47482">1</tspan></text><path d="m15.207207 285.13644h7.5v5h-7.5z" fill="none"/></g><g transform="translate(7.542795 -15.136452)"><text font-family="Meiryo" font-size="5" stroke-width=".264583" text-anchor="middle" x="18.955986" y="289.47482"><tspan font-size="5" stroke-width=".264583" x="18.955986" y="289.47482">0</tspan></text><path d="m15.207207 285.13644h7.5v5h-7.5z" fill="none"/></g><g transform="translate(22.292794 -30.136454)"><text font-family="Meiryo" font-size="5" stroke-width=".264583" text-anchor="middle" x="18.955986" y="289.47482"><tspan font-size="5" stroke-width=".264583" x="18.955986" y="289.47482">0</tspan></text><path d="m15.207207 285.13644h7.5v5h-7.5z" fill="none"/></g><g transform="translate(37.292795 -45.136454)"><text font-family="Meiryo" font-size="5" stroke-width=".264583" text-anchor="middle" x="18.955986" y="289.47482"><tspan font-size="5" stroke-width=".264583" x="18.955986" y="289.47482">0</tspan></text><path d="m15.207207 285.13644h7.5v5h-7.5z" fill="none"/></g><g transform="translate(52.292795 -60.136451)"><text font-family="Meiryo" font-size="5" stroke-width=".264583" text-anchor="middle" x="18.955986" y="289.47482"><tspan font-size="5" stroke-width=".264583" x="18.955986" y="289.47482">0</tspan></text><path d="m15.207207 285.13644h7.5v5h-7.5z" fill="none"/></g><g transform="translate(142.29279 -.136454)"><text font-family="Meiryo" font-size="5" stroke-width=".264583" text-anchor="middle" x="18.955986" y="289.47482"><tspan font-size="5" stroke-width=".264583" x="18.955986" y="289.47482">0</tspan></text><path d="m15.207207 285.13644h7.5v5h-7.5z" fill="none"/></g><g transform="translate(52.292795 -.136452)"><text font-family="Meiryo" font-size="5" stroke-width=".264583" text-anchor="middle" x="18.955986" y="289.47482"><tspan font-size="5" stroke-width=".264583" x="18.955986" y="289.47482">0</tspan></text><path d="m15.207207 285.13644h7.5v5h-7.5z" fill="none"/></g><g transform="translate(89.792793 -.136449)"><text font-family="Meiryo" font-size="5" stroke-width=".264583" text-anchor="middle" x="18.955986" y="289.47482"><tspan font-size="5" stroke-width=".264583" x="18.955986" y="289.47482">1</tspan></text><path d="m15.207207 285.13644h7.5v5h-7.5z" fill="none"/></g><g transform="translate(44.792794 -15.136454)"><text font-family="Meiryo" font-size="5" stroke-width=".264583" text-anchor="middle" x="18.955986" y="289.47482"><tspan font-size="5" stroke-width=".264583" x="18.955986" y="289.47482">1</tspan></text><path d="m15.207207 285.13644h7.5v5h-7.5z" fill="none"/></g><g transform="translate(74.792795 -15.136452)"><text font-family="Meiryo" font-size="5" stroke-width=".264583" text-anchor="middle" x="18.955986" y="289.47482"><tspan font-size="5" stroke-width=".264583" x="18.955986" y="289.47482">1</tspan></text><path d="m15.207207 285.13644h7.5v5h-7.5z" fill="none"/></g><g transform="translate(119.7928 -.136452)"><text font-family="Meiryo" font-size="5" stroke-width=".264583" text-anchor="middle" x="18.955986" y="289.47482"><tspan font-size="5" stroke-width=".264583" x="18.955986" y="289.47482">1</tspan></text><path d="m15.207207 285.13644h7.5v5h-7.5z" fill="none"/></g><g transform="translate(164.7928 -15.136452)"><text font-family="Meiryo" font-size="5" stroke-width=".264583" text-anchor="middle" x="18.955986" y="289.47482"><tspan font-size="5" stroke-width=".264583" x="18.955986" y="289.47482">1</tspan></text><path d="m15.207207 285.13644h7.5v5h-7.5z" fill="none"/></g><g transform="translate(179.79279 -.136449)"><text font-family="Meiryo" font-size="5" stroke-width=".264583" text-anchor="middle" x="18.955986" y="289.47482"><tspan font-size="5" stroke-width=".264583" x="18.955986" y="289.47482">1</tspan></text><path d="m15.207207 285.13644h7.5v5h-7.5z" fill="none"/></g><g transform="translate(4.872017 -10.136452)"><text font-family="Meiryo" font-size="5" stroke-width=".264583" text-anchor="middle" x="25.218319" y="289.04877"><tspan font-size="5" stroke-width=".264583" x="25.218319" y="289.04877">A (3)</tspan></text><path d="m15.127988 285.13644h20v5h-20z" fill="none" stroke="#000" stroke-width=".5"/></g><g transform="translate(34.872013 -10.136452)"><text font-family="Meiryo" font-size="5" stroke-width=".264583" text-anchor="middle" x="25.218319" y="289.04877"><tspan font-size="5" stroke-width=".264583" x="25.218319" y="289.04877">3 (4)</tspan></text><path d="m15.127988 285.13644h20v5h-20z" fill="none" stroke="#000" stroke-width=".5"/></g><g transform="translate(64.872015 -10.136452)"><text font-family="Meiryo" font-size="5" stroke-width=".264583" text-anchor="middle" x="25.218319" y="289.04877"><tspan font-size="5" stroke-width=".264583" x="25.218319" y="289.04877">C (11)</tspan></text><path d="m15.127988 285.13644h20v5h-20z" fill="none" stroke="#000" stroke-width=".5"/></g><g transform="translate(49.872014 4.863548)"><text font-family="Meiryo" font-size="5" stroke-width=".264583" text-anchor="middle" x="25.218319" y="289.04877"><tspan font-size="5" stroke-width=".264583" x="25.218319" y="289.04877">5 (5)</tspan></text><path d="m15.127988 285.13644h20v5h-20z" fill="none" stroke="#000" stroke-width=".5"/></g><g transform="translate(79.872015 4.863548)"><text font-family="Meiryo" font-size="5" stroke-width=".264583" text-anchor="middle" x="25.218319" y="289.04877"><tspan font-size="5" stroke-width=".264583" x="25.218319" y="289.04877">2 (6)</tspan></text><path d="m15.127988 285.13644h20v5h-20z" fill="none" stroke="#000" stroke-width=".5"/></g><g transform="translate(109.87202 4.863548)"><text font-family="Meiryo" font-size="5" stroke-width=".264583" text-anchor="middle" x="25.218319" y="289.04877"><tspan font-size="5" stroke-width=".264583" x="25.218319" y="289.04877">6 (20)</tspan></text><path d="m15.127988 285.13644h20v5h-20z" fill="none" stroke="#000" stroke-width=".5"/></g><g transform="translate(139.87202 4.863548)"><text font-family="Meiryo" font-size="5" stroke-width=".264583" text-anchor="middle" x="25.218319" y="289.04877"><tspan font-size="5" stroke-width=".264583" x="25.218319" y="289.04877">0 (30)</tspan></text><path d="m15.127988 285.13644h20v5h-20z" fill="none" stroke="#000" stroke-width=".5"/></g><g transform="translate(169.87202 4.863548)"><text font-family="Meiryo" font-size="5" stroke-width=".264583" text-anchor="middle" x="25.218319" y="289.04877"><tspan font-size="5" stroke-width=".264583" x="25.218319" y="289.04877">7 (32)</tspan></text><path d="m15.127988 285.13644h20v5h-20z" fill="none" stroke="#000" stroke-width=".5"/></g><g transform="translate(154.87202 -10.136452)"><text font-family="Meiryo" font-size="5" stroke-width=".264583" text-anchor="middle" x="25.218319" y="289.04877"><tspan font-size="5" stroke-width=".264583" x="25.218319" y="289.04877">F (62)</tspan></text><path d="m15.127988 285.13644h20v5h-20z" fill="none" stroke="#000" stroke-width=".5"/></g><g transform="translate(19.872013 4.863548)"><text font-family="Meiryo" font-size="5" stroke-width=".264583" text-anchor="middle" x="25.218319" y="289.04877"><tspan font-size="5" stroke-width=".264583" x="25.218319" y="289.04877">1 (2)</tspan></text><path d="m15.127988 285.13644h20v5h-20z" fill="none" stroke="#000" stroke-width=".5"/></g><g transform="translate(19.872014 -25.136452)"><text font-family="Meiryo" font-size="5" stroke-width=".264583" text-anchor="middle" x="25.218319" y="289.04877"><tspan font-size="5" stroke-width=".264583" x="25.218319" y="289.04877">B (7)</tspan></text><path d="m15.127988 285.13644h20v5h-20z" fill="none" stroke="#000" stroke-width=".5"/></g><g transform="translate(34.872014 -40.136454)"><text font-family="Meiryo" font-size="5" stroke-width=".264583" text-anchor="middle" x="25.218319" y="289.04877"><tspan font-size="5" stroke-width=".264583" x="25.218319" y="289.04877">D (18)</tspan></text><path d="m15.127988 285.13644h20v5h-20z" fill="none" stroke="#000" stroke-width=".5"/></g><g transform="translate(49.872014 -55.136451)"><text font-family="Meiryo" font-size="5" stroke-width=".264583" text-anchor="middle" x="25.218319" y="289.04877"><tspan font-size="5" stroke-width=".264583" x="25.218319" y="289.04877">E (38)</tspan></text><path d="m15.127988 285.13644h20v5h-20z" fill="none" stroke="#000" stroke-width=".5"/></g><g fill="none" stroke="#000"><path d="m30.000001 279.99999-15.000001 5-.000001 5" stroke-width=".499999"/><path d="m30.000001 279.99999 15 5v5" stroke-width=".499999"/><path d="m45 265-14.999999 4.99999v5" stroke-width=".499999"/><path d="m45 265 15.000001 4.99999v5" stroke-width=".499999"/><path d="m90.000002 279.99999-15 5-.000002 5.00001" stroke-width=".499999"/><path d="m105 290v-5.00001l-14.999998-5" stroke-width=".499999"/><path d="m60.000001 249.99999-15 5v5" stroke-width=".499999"/><path d="m60.000001 249.99999 30.000001 10v14.99999" stroke-width=".499999"/><path d="m60.000001 244.99999v-5l14.999999-5" stroke-width=".499999"/><path d="m75 234.99999 60 20v35.00001" stroke-width=".499999"/><path d="m165 290v-5.00001l15-5" stroke-width=".499999"/><path d="m195 290v-5.00001l-15-5" stroke-width=".499999"/><path d="m75 229.99999.000002-10 29.999998-10" stroke-width=".5"/><path d="m105 209.99999 75 25 .00001 39.99999" stroke-width=".499999"/></g><g transform="translate(34.872013 173.86354)"><text font-family="Meiryo" font-size="5" stroke-width=".264583" text-anchor="middle" x="25.256161" y="110.47483"><tspan font-size="5" stroke-width=".264583" x="25.256161" y="110.47483">0001</tspan></text><path d="m15.127988 106.13645h20v5h-20z" fill="none"/></g></g></svg>