<svg width="4073" height="3233" xmlns="http://www.w3.org/2000/svg" xmlns:xlink="http://www.w3.org/1999/xlink" xml:space="preserve" overflow="hidden"><g transform="translate(882 -190)"><text font-family="Yu Gothic Light,Yu Gothic Light_MSFontService,sans-serif" font-weight="300" font-size="151" transform="matrix(1 0 0 1 203.156 577)">問題</text><text font-family="Aptos Display,Aptos Display_MSFontService,sans-serif" font-weight="400" font-size="151" transform="matrix(1 0 0 1 505.656 577)">1</text><text font-family="Aptos Display,Aptos Display_MSFontService,sans-serif" font-weight="400" font-size="151" transform="matrix(1 0 0 1 584.719 577)">-</text><text font-family="Aptos Display,Aptos Display_MSFontService,sans-serif" font-weight="400" font-size="151" transform="matrix(1 0 0 1 637.427 577)">2 </text><text font-family="Yu Gothic Light,Yu Gothic Light_MSFontService,sans-serif" font-weight="300" font-size="151" transform="matrix(1 0 0 1 745.708 577)">ラベリング</text><text font-family="Aptos,Aptos_MSFontService,sans-serif" font-weight="400" font-size="119" transform="matrix(1 0 0 1 17.1366 981)">1</text><text font-family="Yu Gothic,Yu Gothic_MSFontService,sans-serif" font-weight="400" font-size="119" transform="matrix(1 0 0 1 80.7304 981)">回目用</text><text font-family="Aptos,Aptos_MSFontService,sans-serif" font-weight="400" font-size="119" transform="matrix(1 0 0 1 2018.26 994)">2</text><text font-family="Yu Gothic,Yu Gothic_MSFontService,sans-serif" font-weight="400" font-size="119" transform="matrix(1 0 0 1 2081.86 994)">回目用</text><path d="M40.0197 1233.36 227.684 1233.36 227.684 1421.03 40.0197 1421.03Z" fill="#D9D9D9" fill-rule="evenodd"/><path d="M227.684 1233.36 415.348 1233.36 415.348 1421.03 227.684 1421.03Z" fill="#D9D9D9" fill-rule="evenodd"/><path d="M415.348 1233.36 603.012 1233.36 603.012 1421.03 415.348 1421.03Z" fill="#FFFFFF" fill-rule="evenodd"/><path d="M-147.644 1421.03 40.0197 1421.03 40.0197 1608.69-147.644 1608.69Z" fill="#D9D9D9" fill-rule="evenodd"/><path d="M40.0197 1421.03 227.684 1421.03 227.684 1608.69 40.0197 1608.69Z" fill="#D9D9D9" fill-rule="evenodd"/><path d="M227.684 1421.03 415.348 1421.03 415.348 1608.69 227.684 1608.69Z" fill="#D9D9D9" fill-rule="evenodd"/><path d="M415.348 1421.03 603.012 1421.03 603.012 1608.69 415.348 1608.69Z" fill="#D9D9D9" fill-rule="evenodd"/><path d="M790.676 1421.03 978.34 1421.03 978.34 1608.69 790.676 1608.69Z" fill="#D9D9D9" fill-rule="evenodd"/><path d="M-335.308 1608.69-147.644 1608.69-147.644 1796.36-335.308 1796.36Z" fill="#D9D9D9" fill-rule="evenodd"/><path d="M-147.644 1608.69 40.0197 1608.69 40.0197 1796.36-147.644 1796.36Z" fill="#D9D9D9" fill-rule="evenodd"/><path d="M40.0197 1608.69 227.684 1608.69 227.684 1796.36 40.0197 1796.36Z" fill="#D9D9D9" fill-rule="evenodd"/><path d="M227.684 1608.69 415.348 1608.69 415.348 1796.36 227.684 1796.36Z" fill="#D9D9D9" fill-rule="evenodd"/><path d="M415.348 1608.69 603.012 1608.69 603.012 1796.36 415.348 1796.36Z" fill="#D9D9D9" fill-rule="evenodd"/><path d="M603.012 1608.69 790.676 1608.69 790.676 1796.36 603.012 1796.36Z" fill="#D9D9D9" fill-rule="evenodd"/><path d="M-147.644 1796.36 40.0197 1796.36 40.0197 1984.02-147.644 1984.02Z" fill="#D9D9D9" fill-rule="evenodd"/><path d="M40.0197 1796.36 227.684 1796.36 227.684 1984.02 40.0197 1984.02Z" fill="#D9D9D9" fill-rule="evenodd"/><path d="M227.684 1796.36 415.348 1796.36 415.348 1984.02 227.684 1984.02Z" fill="#D9D9D9" fill-rule="evenodd"/><path d="M415.348 1796.36 603.012 1796.36 603.012 1984.02 415.348 1984.02Z" fill="#D9D9D9" fill-rule="evenodd"/><path d="M603.012 1796.36 790.676 1796.36 790.676 1984.02 603.012 1984.02Z" fill="#D9D9D9" fill-rule="evenodd"/><path d="M-522.972 1984.02-335.308 1984.02-335.308 2171.68-522.972 2171.68Z" fill="#D9D9D9" fill-rule="evenodd"/><path d="M-335.308 1984.02-147.644 1984.02-147.644 2171.68-335.308 2171.68Z" fill="#D9D9D9" fill-rule="evenodd"/><path d="M-147.644 1984.02 40.0197 1984.02 40.0197 2171.68-147.644 2171.68Z" fill="#D9D9D9" fill-rule="evenodd"/><path d="M40.0197 1984.02 227.684 1984.02 227.684 2171.68 40.0197 2171.68Z" fill="#D9D9D9" fill-rule="evenodd"/><path d="M227.684 1984.02 415.348 1984.02 415.348 2171.68 227.684 2171.68Z" fill="#D9D9D9" fill-rule="evenodd"/><path d="M415.348 1984.02 603.012 1984.02 603.012 2171.68 415.348 2171.68Z" fill="#FFFFFF" fill-rule="evenodd"/><path d="M-147.644 2171.68 40.0197 2171.68 40.0197 2359.35-147.644 2359.35Z" fill="#FFFFFF" fill-rule="evenodd"/><path d="M603.012 2171.68 790.676 2171.68 790.676 2359.35 603.012 2359.35Z" fill="#D9D9D9" fill-rule="evenodd"/><path d="M-335.308 2359.35-147.644 2359.35-147.644 2547.01-335.308 2547.01Z" fill="#D9D9D9" fill-rule="evenodd"/><path d="M40.0197 2359.35 227.684 2359.35 227.684 2547.01 40.0197 2547.01Z" fill="#D9D9D9" fill-rule="evenodd"/><path d="M227.684 2359.35 415.348 2359.35 415.348 2547.01 227.684 2547.01Z" fill="#FFFFFF" fill-rule="evenodd"/><path d="M415.348 2359.35 603.012 2359.35 603.012 2547.01 415.348 2547.01Z" fill="#D9D9D9" fill-rule="evenodd"/><path d="M603.012 2359.35 790.676 2359.35 790.676 2547.01 603.012 2547.01Z" fill="#D9D9D9" fill-rule="evenodd"/><path d="M790.676 2359.35 978.34 2359.35 978.34 2547.01 790.676 2547.01Z" fill="#D9D9D9" fill-rule="evenodd"/><path d="M-335.308 2547.01-147.644 2547.01-147.644 2734.68-335.308 2734.68Z" fill="#D9D9D9" fill-rule="evenodd"/><path d="M-147.644 2547.01 40.0197 2547.01 40.0197 2734.68-147.644 2734.68Z" fill="#D9D9D9" fill-rule="evenodd"/><path d="M40.0197 2547.01 227.684 2547.01 227.684 2734.68 40.0197 2734.68Z" fill="#D9D9D9" fill-rule="evenodd"/><path d="M227.684 2547.01 415.348 2547.01 415.348 2734.68 227.684 2734.68Z" fill="#FFFFFF" fill-rule="evenodd"/><path d="M603.012 2547.01 790.676 2547.01 790.676 2734.68 603.012 2734.68Z" fill="#D9D9D9" fill-rule="evenodd"/><path d="M-522.972 1043.41-522.972 2924.63" stroke="#000000" stroke-width="4.58333" stroke-linejoin="round" stroke-miterlimit="10" fill="none" fill-rule="evenodd"/><path d="M-335.308 1043.41-335.308 2924.63" stroke="#000000" stroke-width="4.58333" stroke-linejoin="round" stroke-miterlimit="10" fill="none" fill-rule="evenodd"/><path d="M-147.644 1043.41-147.644 2924.63" stroke="#000000" stroke-width="4.58333" stroke-linejoin="round" stroke-miterlimit="10" fill="none" fill-rule="evenodd"/><path d="M40.0197 1043.41 40.0197 2924.63" stroke="#000000" stroke-width="4.58333" stroke-linejoin="round" stroke-miterlimit="10" fill="none" fill-rule="evenodd"/><path d="M227.684 1043.41 227.684 2924.63" stroke="#000000" stroke-width="4.58333" stroke-linejoin="round" stroke-miterlimit="10" fill="none" fill-rule="evenodd"/><path d="M415.348 1043.41 415.348 2924.63" stroke="#000000" stroke-width="4.58333" stroke-linejoin="round" stroke-miterlimit="10" fill="none" fill-rule="evenodd"/><path d="M603.012 1043.41 603.012 2924.63" stroke="#000000" stroke-width="4.58333" stroke-linejoin="round" stroke-miterlimit="10" fill="none" fill-rule="evenodd"/><path d="M790.676 1043.41 790.676 2924.63" stroke="#000000" stroke-width="4.58333" stroke-linejoin="round" stroke-miterlimit="10" fill="none" fill-rule="evenodd"/><path d="M978.34 1043.41 978.34 2924.63" stroke="#000000" stroke-width="4.58333" stroke-linejoin="round" stroke-miterlimit="10" fill="none" fill-rule="evenodd"/><path d="M-712.928 1233.36 1168.3 1233.36" stroke="#000000" stroke-width="4.58333" stroke-linejoin="round" stroke-miterlimit="10" fill="none" fill-rule="evenodd"/><path d="M-712.928 1421.03 1168.3 1421.03" stroke="#000000" stroke-width="4.58333" stroke-linejoin="round" stroke-miterlimit="10" fill="none" fill-rule="evenodd"/><path d="M-712.928 1608.69 1168.3 1608.69" stroke="#000000" stroke-width="4.58333" stroke-linejoin="round" stroke-miterlimit="10" fill="none" fill-rule="evenodd"/><path d="M-712.928 1796.36 1168.3 1796.36" stroke="#000000" stroke-width="4.58333" stroke-linejoin="round" stroke-miterlimit="10" fill="none" fill-rule="evenodd"/><path d="M-712.928 1984.02 1168.3 1984.02" stroke="#000000" stroke-width="4.58333" stroke-linejoin="round" stroke-miterlimit="10" fill="none" fill-rule="evenodd"/><path d="M-712.928 2171.68 1168.3 2171.68" stroke="#000000" stroke-width="4.58333" stroke-linejoin="round" stroke-miterlimit="10" fill="none" fill-rule="evenodd"/><path d="M-712.928 2359.35 1168.3 2359.35" stroke="#000000" stroke-width="4.58333" stroke-linejoin="round" stroke-miterlimit="10" fill="none" fill-rule="evenodd"/><path d="M-712.928 2547.01 1168.3 2547.01" stroke="#000000" stroke-width="4.58333" stroke-linejoin="round" stroke-miterlimit="10" fill="none" fill-rule="evenodd"/><path d="M-712.928 2734.68 1168.3 2734.68" stroke="#000000" stroke-width="4.58333" stroke-linejoin="round" stroke-miterlimit="10" fill="none" fill-rule="evenodd"/><path d="M-710.636 1043.41-710.636 2924.63" stroke="#000000" stroke-width="4.58333" stroke-linejoin="round" stroke-miterlimit="10" fill="none" fill-rule="evenodd"/><path d="M1166 1043.41 1166 2924.63" stroke="#000000" stroke-width="4.58333" stroke-linejoin="round" stroke-miterlimit="10" fill="none" fill-rule="evenodd"/><path d="M-712.928 1045.7 1168.3 1045.7" stroke="#000000" stroke-width="4.58333" stroke-linejoin="round" stroke-miterlimit="10" fill="none" fill-rule="evenodd"/><path d="M-712.928 2922.34 1168.3 2922.34" stroke="#000000" stroke-width="4.58333" stroke-linejoin="round" stroke-miterlimit="10" fill="none" fill-rule="evenodd"/><text font-family="Verdana,Verdana_MSFontService,sans-serif" font-weight="400" font-size="92" transform="matrix(1 0 0 1 290.292 1363)">A</text><text font-family="Verdana,Verdana_MSFontService,sans-serif" font-weight="400" font-size="92" transform="matrix(1 0 0 1 102.628 1363)">A</text><text font-family="Verdana,Verdana_MSFontService,sans-serif" font-weight="400" font-size="92" transform="matrix(1 0 0 1 852.997 1551)">B</text><text font-family="Verdana,Verdana_MSFontService,sans-serif" font-weight="400" font-size="92" transform="matrix(1 0 0 1 477.956 1551)">A</text><text font-family="Verdana,Verdana_MSFontService,sans-serif" font-weight="400" font-size="92" transform="matrix(1 0 0 1 290.292 1551)">A</text><text font-family="Verdana,Verdana_MSFontService,sans-serif" font-weight="400" font-size="92" transform="matrix(1 0 0 1 102.628 1551)">A</text><text font-family="Verdana,Verdana_MSFontService,sans-serif" font-weight="400" font-size="92" transform="matrix(1 0 0 1 -85.0363 1551)">A</text><text font-family="Verdana,Verdana_MSFontService,sans-serif" font-weight="400" font-size="92" transform="matrix(1 0 0 1 665.62 1739)">A</text><text font-family="Verdana,Verdana_MSFontService,sans-serif" font-weight="400" font-size="92" transform="matrix(1 0 0 1 477.956 1739)">A</text><text font-family="Verdana,Verdana_MSFontService,sans-serif" font-weight="400" font-size="92" transform="matrix(1 0 0 1 290.292 1739)">A</text><text font-family="Verdana,Verdana_MSFontService,sans-serif" font-weight="400" font-size="92" transform="matrix(1 0 0 1 102.628 1739)">A</text><text font-family="Verdana,Verdana_MSFontService,sans-serif" font-weight="400" font-size="92" transform="matrix(1 0 0 1 -85.0363 1739)">A</text><text font-family="Verdana,Verdana_MSFontService,sans-serif" font-weight="400" font-size="92" transform="matrix(1 0 0 1 -272.7 1739)">A</text><text font-family="Verdana,Verdana_MSFontService,sans-serif" font-weight="400" font-size="92" transform="matrix(1 0 0 1 665.62 1926)">A</text><text font-family="Verdana,Verdana_MSFontService,sans-serif" font-weight="400" font-size="92" transform="matrix(1 0 0 1 477.956 1926)">A</text><text font-family="Verdana,Verdana_MSFontService,sans-serif" font-weight="400" font-size="92" transform="matrix(1 0 0 1 290.292 1926)">A</text><text font-family="Verdana,Verdana_MSFontService,sans-serif" font-weight="400" font-size="92" transform="matrix(1 0 0 1 102.628 1926)">A</text><text font-family="Verdana,Verdana_MSFontService,sans-serif" font-weight="400" font-size="92" transform="matrix(1 0 0 1 -85.0363 1926)">A</text><text font-family="Verdana,Verdana_MSFontService,sans-serif" font-weight="400" font-size="92" transform="matrix(1 0 0 1 290.292 2114)">A</text><text font-family="Verdana,Verdana_MSFontService,sans-serif" font-weight="400" font-size="92" transform="matrix(1 0 0 1 102.628 2114)">A</text><text font-family="Verdana,Verdana_MSFontService,sans-serif" font-weight="400" font-size="92" transform="matrix(1 0 0 1 -85.0363 2114)">A</text><text font-family="Verdana,Verdana_MSFontService,sans-serif" font-weight="400" font-size="92" transform="matrix(1 0 0 1 -272.7 2114)">A</text><text font-family="Verdana,Verdana_MSFontService,sans-serif" font-weight="400" font-size="92" transform="matrix(1 0 0 1 -461.224 2114)">C</text><text font-family="Verdana,Verdana_MSFontService,sans-serif" font-weight="400" font-size="92" transform="matrix(1 0 0 1 661.609 2302)">D</text><text font-family="Verdana,Verdana_MSFontService,sans-serif" font-weight="400" font-size="92" transform="matrix(1 0 0 1 849.273 2489)">D</text><text font-family="Verdana,Verdana_MSFontService,sans-serif" font-weight="400" font-size="92" transform="matrix(1 0 0 1 661.609 2489)">D</text><text font-family="Verdana,Verdana_MSFontService,sans-serif" font-weight="400" font-size="92" transform="matrix(1 0 0 1 473.945 2489)">D</text><text font-family="Verdana,Verdana_MSFontService,sans-serif" font-weight="400" font-size="92" transform="matrix(1 0 0 1 107.498 2489)">F</text><text font-family="Verdana,Verdana_MSFontService,sans-serif" font-weight="400" font-size="92" transform="matrix(1 0 0 1 -270.409 2489)">E</text><text font-family="Verdana,Verdana_MSFontService,sans-serif" font-weight="400" font-size="92" transform="matrix(1 0 0 1 661.609 2677)">D</text><text font-family="Verdana,Verdana_MSFontService,sans-serif" font-weight="400" font-size="92" transform="matrix(1 0 0 1 104.919 2677)">E</text><text font-family="Verdana,Verdana_MSFontService,sans-serif" font-weight="400" font-size="92" transform="matrix(1 0 0 1 -82.7447 2677)">E</text><text font-family="Verdana,Verdana_MSFontService,sans-serif" font-weight="400" font-size="92" transform="matrix(1 0 0 1 -270.409 2677)">E</text><path d="M2059.65 1233.36 2247.32 1233.36 2247.32 1421.03 2059.65 1421.03Z" fill="#D9D9D9" fill-rule="evenodd"/><path d="M2247.32 1233.36 2434.98 1233.36 2434.98 1421.03 2247.32 1421.03Z" fill="#D9D9D9" fill-rule="evenodd"/><path d="M2434.98 1233.36 2622.65 1233.36 2622.65 1421.03 2434.98 1421.03Z" fill="#FFFFFF" fill-rule="evenodd"/><path d="M1871.99 1421.03 2059.65 1421.03 2059.65 1608.69 1871.99 1608.69Z" fill="#D9D9D9" fill-rule="evenodd"/><path d="M2059.65 1421.03 2247.32 1421.03 2247.32 1608.69 2059.65 1608.69Z" fill="#D9D9D9" fill-rule="evenodd"/><path d="M2247.32 1421.03 2434.98 1421.03 2434.98 1608.69 2247.32 1608.69Z" fill="#D9D9D9" fill-rule="evenodd"/><path d="M2434.98 1421.03 2622.65 1421.03 2622.65 1608.69 2434.98 1608.69Z" fill="#D9D9D9" fill-rule="evenodd"/><path d="M2810.31 1421.03 2997.97 1421.03 2997.97 1608.69 2810.31 1608.69Z" fill="#D9D9D9" fill-rule="evenodd"/><path d="M1684.32 1608.69 1871.99 1608.69 1871.99 1796.36 1684.32 1796.36Z" fill="#D9D9D9" fill-rule="evenodd"/><path d="M1871.99 1608.69 2059.65 1608.69 2059.65 1796.36 1871.99 1796.36Z" fill="#D9D9D9" fill-rule="evenodd"/><path d="M2059.65 1608.69 2247.32 1608.69 2247.32 1796.36 2059.65 1796.36Z" fill="#D9D9D9" fill-rule="evenodd"/><path d="M2247.32 1608.69 2434.98 1608.69 2434.98 1796.36 2247.32 1796.36Z" fill="#D9D9D9" fill-rule="evenodd"/><path d="M2434.98 1608.69 2622.65 1608.69 2622.65 1796.36 2434.98 1796.36Z" fill="#D9D9D9" fill-rule="evenodd"/><path d="M2622.65 1608.69 2810.31 1608.69 2810.31 1796.36 2622.65 1796.36Z" fill="#D9D9D9" fill-rule="evenodd"/><path d="M1871.99 1796.36 2059.65 1796.36 2059.65 1984.02 1871.99 1984.02Z" fill="#D9D9D9" fill-rule="evenodd"/><path d="M2059.65 1796.36 2247.32 1796.36 2247.32 1984.02 2059.65 1984.02Z" fill="#D9D9D9" fill-rule="evenodd"/><path d="M2247.32 1796.36 2434.98 1796.36 2434.98 1984.02 2247.32 1984.02Z" fill="#D9D9D9" fill-rule="evenodd"/><path d="M2434.98 1796.36 2622.65 1796.36 2622.65 1984.02 2434.98 1984.02Z" fill="#D9D9D9" fill-rule="evenodd"/><path d="M2622.65 1796.36 2810.31 1796.36 2810.31 1984.02 2622.65 1984.02Z" fill="#D9D9D9" fill-rule="evenodd"/><path d="M1496.66 1984.02 1684.32 1984.02 1684.32 2171.68 1496.66 2171.68Z" fill="#D9D9D9" fill-rule="evenodd"/><path d="M1684.32 1984.02 1871.99 1984.02 1871.99 2171.68 1684.32 2171.68Z" fill="#D9D9D9" fill-rule="evenodd"/><path d="M1871.99 1984.02 2059.65 1984.02 2059.65 2171.68 1871.99 2171.68Z" fill="#D9D9D9" fill-rule="evenodd"/><path d="M2059.65 1984.02 2247.32 1984.02 2247.32 2171.68 2059.65 2171.68Z" fill="#D9D9D9" fill-rule="evenodd"/><path d="M2247.32 1984.02 2434.98 1984.02 2434.98 2171.68 2247.32 2171.68Z" fill="#D9D9D9" fill-rule="evenodd"/><path d="M2434.98 1984.02 2622.65 1984.02 2622.65 2171.68 2434.98 2171.68Z" fill="#FFFFFF" fill-rule="evenodd"/><path d="M1871.99 2171.68 2059.65 2171.68 2059.65 2359.35 1871.99 2359.35Z" fill="#FFFFFF" fill-rule="evenodd"/><path d="M2622.65 2171.68 2810.31 2171.68 2810.31 2359.35 2622.65 2359.35Z" fill="#D9D9D9" fill-rule="evenodd"/><path d="M1684.32 2359.35 1871.99 2359.35 1871.99 2547.01 1684.32 2547.01Z" fill="#D9D9D9" fill-rule="evenodd"/><path d="M2059.65 2359.35 2247.32 2359.35 2247.32 2547.01 2059.65 2547.01Z" fill="#D9D9D9" fill-rule="evenodd"/><path d="M2247.32 2359.35 2434.98 2359.35 2434.98 2547.01 2247.32 2547.01Z" fill="#FFFFFF" fill-rule="evenodd"/><path d="M2434.98 2359.35 2622.65 2359.35 2622.65 2547.01 2434.98 2547.01Z" fill="#D9D9D9" fill-rule="evenodd"/><path d="M2622.65 2359.35 2810.31 2359.35 2810.31 2547.01 2622.65 2547.01Z" fill="#D9D9D9" fill-rule="evenodd"/><path d="M2810.31 2359.35 2997.97 2359.35 2997.97 2547.01 2810.31 2547.01Z" fill="#D9D9D9" fill-rule="evenodd"/><path d="M1684.32 2547.01 1871.99 2547.01 1871.99 2734.68 1684.32 2734.68Z" fill="#D9D9D9" fill-rule="evenodd"/><path d="M1871.99 2547.01 2059.65 2547.01 2059.65 2734.68 1871.99 2734.68Z" fill="#D9D9D9" fill-rule="evenodd"/><path d="M2059.65 2547.01 2247.32 2547.01 2247.32 2734.68 2059.65 2734.68Z" fill="#D9D9D9" fill-rule="evenodd"/><path d="M2247.32 2547.01 2434.98 2547.01 2434.98 2734.68 2247.32 2734.68Z" fill="#FFFFFF" fill-rule="evenodd"/><path d="M2622.65 2547.01 2810.31 2547.01 2810.31 2734.68 2622.65 2734.68Z" fill="#D9D9D9" fill-rule="evenodd"/><path d="M1496.66 1043.41 1496.66 2924.63" stroke="#000000" stroke-width="4.58333" stroke-linejoin="round" stroke-miterlimit="10" fill="none" fill-rule="evenodd"/><path d="M1684.32 1043.41 1684.32 2924.63" stroke="#000000" stroke-width="4.58333" stroke-linejoin="round" stroke-miterlimit="10" fill="none" fill-rule="evenodd"/><path d="M1871.99 1043.41 1871.99 2924.63" stroke="#000000" stroke-width="4.58333" stroke-linejoin="round" stroke-miterlimit="10" fill="none" fill-rule="evenodd"/><path d="M2059.65 1043.41 2059.65 2924.63" stroke="#000000" stroke-width="4.58333" stroke-linejoin="round" stroke-miterlimit="10" fill="none" fill-rule="evenodd"/><path d="M2247.32 1043.41 2247.32 2924.63" stroke="#000000" stroke-width="4.58333" stroke-linejoin="round" stroke-miterlimit="10" fill="none" fill-rule="evenodd"/><path d="M2434.98 1043.41 2434.98 2924.63" stroke="#000000" stroke-width="4.58333" stroke-linejoin="round" stroke-miterlimit="10" fill="none" fill-rule="evenodd"/><path d="M2622.65 1043.41 2622.65 2924.63" stroke="#000000" stroke-width="4.58333" stroke-linejoin="round" stroke-miterlimit="10" fill="none" fill-rule="evenodd"/><path d="M2810.31 1043.41 2810.31 2924.63" stroke="#000000" stroke-width="4.58333" stroke-linejoin="round" stroke-miterlimit="10" fill="none" fill-rule="evenodd"/><path d="M2997.97 1043.41 2997.97 2924.63" stroke="#000000" stroke-width="4.58333" stroke-linejoin="round" stroke-miterlimit="10" fill="none" fill-rule="evenodd"/><path d="M1306.71 1233.36 3187.93 1233.36" stroke="#000000" stroke-width="4.58333" stroke-linejoin="round" stroke-miterlimit="10" fill="none" fill-rule="evenodd"/><path d="M1306.71 1421.03 3187.93 1421.03" stroke="#000000" stroke-width="4.58333" stroke-linejoin="round" stroke-miterlimit="10" fill="none" fill-rule="evenodd"/><path d="M1306.71 1608.69 3187.93 1608.69" stroke="#000000" stroke-width="4.58333" stroke-linejoin="round" stroke-miterlimit="10" fill="none" fill-rule="evenodd"/><path d="M1306.71 1796.36 3187.93 1796.36" stroke="#000000" stroke-width="4.58333" stroke-linejoin="round" stroke-miterlimit="10" fill="none" fill-rule="evenodd"/><path d="M1306.71 1984.02 3187.93 1984.02" stroke="#000000" stroke-width="4.58333" stroke-linejoin="round" stroke-miterlimit="10" fill="none" fill-rule="evenodd"/><path d="M1306.71 2171.68 3187.93 2171.68" stroke="#000000" stroke-width="4.58333" stroke-linejoin="round" stroke-miterlimit="10" fill="none" fill-rule="evenodd"/><path d="M1306.71 2359.35 3187.93 2359.35" stroke="#000000" stroke-width="4.58333" stroke-linejoin="round" stroke-miterlimit="10" fill="none" fill-rule="evenodd"/><path d="M1306.71 2547.01 3187.93 2547.01" stroke="#000000" stroke-width="4.58333" stroke-linejoin="round" stroke-miterlimit="10" fill="none" fill-rule="evenodd"/><path d="M1306.71 2734.68 3187.93 2734.68" stroke="#000000" stroke-width="4.58333" stroke-linejoin="round" stroke-miterlimit="10" fill="none" fill-rule="evenodd"/><path d="M1309 1043.41 1309 2924.63" stroke="#000000" stroke-width="4.58333" stroke-linejoin="round" stroke-miterlimit="10" fill="none" fill-rule="evenodd"/><path d="M3185.64 1043.41 3185.64 2924.63" stroke="#000000" stroke-width="4.58333" stroke-linejoin="round" stroke-miterlimit="10" fill="none" fill-rule="evenodd"/><path d="M1306.71 1045.7 3187.93 1045.7" stroke="#000000" stroke-width="4.58333" stroke-linejoin="round" stroke-miterlimit="10" fill="none" fill-rule="evenodd"/><path d="M1306.71 2922.34 3187.93 2922.34" stroke="#000000" stroke-width="4.58333" stroke-linejoin="round" stroke-miterlimit="10" fill="none" fill-rule="evenodd"/><text font-family="Verdana,Verdana_MSFontService,sans-serif" font-weight="400" font-size="92" transform="matrix(1 0 0 1 2309.92 1363)">A</text><text font-family="Verdana,Verdana_MSFontService,sans-serif" font-weight="400" font-size="92" transform="matrix(1 0 0 1 2122.26 1363)">A</text><text font-family="Verdana,Verdana_MSFontService,sans-serif" font-weight="400" font-size="92" transform="matrix(1 0 0 1 2872.92 1551)">A</text><text font-family="Verdana,Verdana_MSFontService,sans-serif" font-weight="400" font-size="92" transform="matrix(1 0 0 1 2497.59 1551)">A</text><text font-family="Verdana,Verdana_MSFontService,sans-serif" font-weight="400" font-size="92" transform="matrix(1 0 0 1 2309.92 1551)">A</text><text font-family="Verdana,Verdana_MSFontService,sans-serif" font-weight="400" font-size="92" transform="matrix(1 0 0 1 2122.26 1551)">A</text><text font-family="Verdana,Verdana_MSFontService,sans-serif" font-weight="400" font-size="92" transform="matrix(1 0 0 1 1934.6 1551)">A</text><text font-family="Verdana,Verdana_MSFontService,sans-serif" font-weight="400" font-size="92" transform="matrix(1 0 0 1 2685.25 1739)">A</text><text font-family="Verdana,Verdana_MSFontService,sans-serif" font-weight="400" font-size="92" transform="matrix(1 0 0 1 2497.59 1739)">A</text><text font-family="Verdana,Verdana_MSFontService,sans-serif" font-weight="400" font-size="92" transform="matrix(1 0 0 1 2309.92 1739)">A</text><text font-family="Verdana,Verdana_MSFontService,sans-serif" font-weight="400" font-size="92" transform="matrix(1 0 0 1 2122.26 1739)">A</text><text font-family="Verdana,Verdana_MSFontService,sans-serif" font-weight="400" font-size="92" transform="matrix(1 0 0 1 1934.6 1739)">A</text><text font-family="Verdana,Verdana_MSFontService,sans-serif" font-weight="400" font-size="92" transform="matrix(1 0 0 1 1746.93 1739)">A</text><text font-family="Verdana,Verdana_MSFontService,sans-serif" font-weight="400" font-size="92" transform="matrix(1 0 0 1 2685.25 1926)">A</text><text font-family="Verdana,Verdana_MSFontService,sans-serif" font-weight="400" font-size="92" transform="matrix(1 0 0 1 2497.59 1926)">A</text><text font-family="Verdana,Verdana_MSFontService,sans-serif" font-weight="400" font-size="92" transform="matrix(1 0 0 1 2309.92 1926)">A</text><text font-family="Verdana,Verdana_MSFontService,sans-serif" font-weight="400" font-size="92" transform="matrix(1 0 0 1 2122.26 1926)">A</text><text font-family="Verdana,Verdana_MSFontService,sans-serif" font-weight="400" font-size="92" transform="matrix(1 0 0 1 1934.6 1926)">A</text><text font-family="Verdana,Verdana_MSFontService,sans-serif" font-weight="400" font-size="92" transform="matrix(1 0 0 1 2309.92 2114)">A</text><text font-family="Verdana,Verdana_MSFontService,sans-serif" font-weight="400" font-size="92" transform="matrix(1 0 0 1 2122.26 2114)">A</text><text font-family="Verdana,Verdana_MSFontService,sans-serif" font-weight="400" font-size="92" transform="matrix(1 0 0 1 1934.6 2114)">A</text><text font-family="Verdana,Verdana_MSFontService,sans-serif" font-weight="400" font-size="92" transform="matrix(1 0 0 1 1746.93 2114)">A</text><text font-family="Verdana,Verdana_MSFontService,sans-serif" font-weight="400" font-size="92" transform="matrix(1 0 0 1 1559.27 2114)">A</text><text font-family="Verdana,Verdana_MSFontService,sans-serif" font-weight="400" font-size="92" transform="matrix(1 0 0 1 2681.24 2302)">D</text><text font-family="Verdana,Verdana_MSFontService,sans-serif" font-weight="400" font-size="92" transform="matrix(1 0 0 1 2868.91 2489)">D</text><text font-family="Verdana,Verdana_MSFontService,sans-serif" font-weight="400" font-size="92" transform="matrix(1 0 0 1 2681.24 2489)">D</text><text font-family="Verdana,Verdana_MSFontService,sans-serif" font-weight="400" font-size="92" transform="matrix(1 0 0 1 2493.58 2489)">D</text><text font-family="Verdana,Verdana_MSFontService,sans-serif" font-weight="400" font-size="92" transform="matrix(1 0 0 1 2124.55 2489)">E</text><text font-family="Verdana,Verdana_MSFontService,sans-serif" font-weight="400" font-size="92" transform="matrix(1 0 0 1 1749.22 2489)">E</text><text font-family="Verdana,Verdana_MSFontService,sans-serif" font-weight="400" font-size="92" transform="matrix(1 0 0 1 2681.24 2677)">D</text><text font-family="Verdana,Verdana_MSFontService,sans-serif" font-weight="400" font-size="92" transform="matrix(1 0 0 1 2124.55 2677)">E</text><text font-family="Verdana,Verdana_MSFontService,sans-serif" font-weight="400" font-size="92" transform="matrix(1 0 0 1 1936.89 2677)">E</text><text font-family="Verdana,Verdana_MSFontService,sans-serif" font-weight="400" font-size="92" transform="matrix(1 0 0 1 1749.22 2677)">E</text><text font-family="Yu Gothic,Yu Gothic_MSFontService,sans-serif" font-weight="400" font-size="119" transform="matrix(1 0 0 1 -810.258 3174)">同じ連結成分であると記録された組：</text><text font-family="Aptos,Aptos_MSFontService,sans-serif" font-weight="400" font-size="119" transform="matrix(1 0 0 1 -810.258 3317)">A</text><text font-family="Aptos,Aptos_MSFontService,sans-serif" font-weight="400" font-size="119" transform="matrix(1 0 0 1 -739.789 3317)">-</text><text font-family="Aptos,Aptos_MSFontService,sans-serif" font-weight="400" font-size="119" transform="matrix(1 0 0 1 -699.112 3317)">B</text><text font-family="Aptos,Aptos_MSFontService,sans-serif" font-weight="400" font-size="119" transform="matrix(1 0 0 1 -626.924 3317)">-</text><text font-family="Aptos,Aptos_MSFontService,sans-serif" font-weight="400" font-size="119" transform="matrix(1 0 0 1 -586.247 3317)">C</text><text font-family="Yu Gothic,Yu Gothic_MSFontService,sans-serif" font-weight="400" font-size="119" transform="matrix(1 0 0 1 -503.747 3317)">，</text><text font-family="Aptos,Aptos_MSFontService,sans-serif" font-weight="400" font-size="119" transform="matrix(1 0 0 1 -384.58 3317)">E</text><text font-family="Aptos,Aptos_MSFontService,sans-serif" font-weight="400" font-size="119" transform="matrix(1 0 0 1 -318.122 3317)">-</text><text font-family="Aptos,Aptos_MSFontService,sans-serif" font-weight="400" font-size="119" transform="matrix(1 0 0 1 -277.445 3317)">F</text><text font-family="Yu Gothic,Yu Gothic_MSFontService,sans-serif" font-weight="400" font-size="119" transform="matrix(1 0 0 1 -214.997 3317)">，</text><text font-family="Aptos,Aptos_MSFontService,sans-serif" font-weight="400" font-size="119" transform="matrix(1 0 0 1 -95.8304 3317)">D</text></g></svg>